<?xml version="1.0" encoding="utf-8" standalone="no"?>
<!DOCTYPE svg PUBLIC "-//W3C//DTD SVG 1.1//EN"
  "http://www.w3.org/Graphics/SVG/1.1/DTD/svg11.dtd">
<!-- Created with matplotlib (https://matplotlib.org/) -->
<svg height="360pt" version="1.1" viewBox="0 0 576 360" width="576pt" xmlns="http://www.w3.org/2000/svg" xmlns:xlink="http://www.w3.org/1999/xlink">
 <defs>
  <style type="text/css">
*{stroke-linecap:butt;stroke-linejoin:round;}
  </style>
 </defs>
 <g id="figure_1">
  <g id="patch_1">
   <path d="M 0 360 
L 576 360 
L 576 0 
L 0 0 
z
" style="fill:#ffffff;"/>
  </g>
  <g id="axes_1">
   <g id="patch_2">
    <path d="M 58.08 314.61 
L 548.525 314.61 
L 548.525 13.615 
L 58.08 13.615 
z
" style="fill:#ffffff;"/>
   </g>
   <g id="matplotlib.axis_1">
    <g id="xtick_1">
     <g id="text_1">
      <!-- −3 -->
      <defs>
       <path d="M 52.828125 31.203125 
L 5.5625 31.203125 
L 5.5625 39.40625 
L 52.828125 39.40625 
z
" id="ArialMT-8722"/>
       <path d="M 4.203125 18.890625 
L 12.984375 20.0625 
Q 14.5 12.59375 18.140625 9.296875 
Q 21.78125 6 27 6 
Q 33.203125 6 37.46875 10.296875 
Q 41.75 14.59375 41.75 20.953125 
Q 41.75 27 37.796875 30.921875 
Q 33.84375 34.859375 27.734375 34.859375 
Q 25.25 34.859375 21.53125 33.890625 
L 22.515625 41.609375 
Q 23.390625 41.5 23.921875 41.5 
Q 29.546875 41.5 34.03125 44.421875 
Q 38.53125 47.359375 38.53125 53.46875 
Q 38.53125 58.296875 35.25 61.46875 
Q 31.984375 64.65625 26.8125 64.65625 
Q 21.6875 64.65625 18.265625 61.421875 
Q 14.84375 58.203125 13.875 51.765625 
L 5.078125 53.328125 
Q 6.6875 62.15625 12.390625 67.015625 
Q 18.109375 71.875 26.609375 71.875 
Q 32.46875 71.875 37.390625 69.359375 
Q 42.328125 66.84375 44.9375 62.5 
Q 47.5625 58.15625 47.5625 53.265625 
Q 47.5625 48.640625 45.0625 44.828125 
Q 42.578125 41.015625 37.703125 38.765625 
Q 44.046875 37.3125 47.5625 32.6875 
Q 51.078125 28.078125 51.078125 21.140625 
Q 51.078125 11.765625 44.234375 5.25 
Q 37.40625 -1.265625 26.953125 -1.265625 
Q 17.53125 -1.265625 11.296875 4.34375 
Q 5.078125 9.96875 4.203125 18.890625 
z
" id="ArialMT-51"/>
      </defs>
      <g style="fill:#262626;" transform="translate(97.442119 328.767812)scale(0.1 -0.1)">
       <use xlink:href="#ArialMT-8722"/>
       <use x="58.398438" xlink:href="#ArialMT-51"/>
      </g>
     </g>
    </g>
    <g id="xtick_2">
     <g id="text_2">
      <!-- −2 -->
      <defs>
       <path d="M 50.34375 8.453125 
L 50.34375 0 
L 3.03125 0 
Q 2.9375 3.171875 4.046875 6.109375 
Q 5.859375 10.9375 9.828125 15.625 
Q 13.8125 20.3125 21.34375 26.46875 
Q 33.015625 36.03125 37.109375 41.625 
Q 41.21875 47.21875 41.21875 52.203125 
Q 41.21875 57.421875 37.46875 61 
Q 33.734375 64.59375 27.734375 64.59375 
Q 21.390625 64.59375 17.578125 60.78125 
Q 13.765625 56.984375 13.71875 50.25 
L 4.6875 51.171875 
Q 5.609375 61.28125 11.65625 66.578125 
Q 17.71875 71.875 27.9375 71.875 
Q 38.234375 71.875 44.234375 66.15625 
Q 50.25 60.453125 50.25 52 
Q 50.25 47.703125 48.484375 43.546875 
Q 46.734375 39.40625 42.65625 34.8125 
Q 38.578125 30.21875 29.109375 22.21875 
Q 21.1875 15.578125 18.9375 13.203125 
Q 16.703125 10.84375 15.234375 8.453125 
z
" id="ArialMT-50"/>
      </defs>
      <g style="fill:#262626;" transform="translate(170.711685 328.767812)scale(0.1 -0.1)">
       <use xlink:href="#ArialMT-8722"/>
       <use x="58.398438" xlink:href="#ArialMT-50"/>
      </g>
     </g>
    </g>
    <g id="xtick_3">
     <g id="text_3">
      <!-- −1 -->
      <defs>
       <path d="M 37.25 0 
L 28.46875 0 
L 28.46875 56 
Q 25.296875 52.984375 20.140625 49.953125 
Q 14.984375 46.921875 10.890625 45.40625 
L 10.890625 53.90625 
Q 18.265625 57.375 23.78125 62.296875 
Q 29.296875 67.234375 31.59375 71.875 
L 37.25 71.875 
z
" id="ArialMT-49"/>
      </defs>
      <g style="fill:#262626;" transform="translate(243.98125 328.767812)scale(0.1 -0.1)">
       <use xlink:href="#ArialMT-8722"/>
       <use x="58.398438" xlink:href="#ArialMT-49"/>
      </g>
     </g>
    </g>
    <g id="xtick_4">
     <g id="text_4">
      <!-- 0 -->
      <defs>
       <path d="M 4.15625 35.296875 
Q 4.15625 48 6.765625 55.734375 
Q 9.375 63.484375 14.515625 67.671875 
Q 19.671875 71.875 27.484375 71.875 
Q 33.25 71.875 37.59375 69.546875 
Q 41.9375 67.234375 44.765625 62.859375 
Q 47.609375 58.5 49.21875 52.21875 
Q 50.828125 45.953125 50.828125 35.296875 
Q 50.828125 22.703125 48.234375 14.96875 
Q 45.65625 7.234375 40.5 3 
Q 35.359375 -1.21875 27.484375 -1.21875 
Q 17.140625 -1.21875 11.234375 6.203125 
Q 4.15625 15.140625 4.15625 35.296875 
z
M 13.1875 35.296875 
Q 13.1875 17.671875 17.3125 11.828125 
Q 21.4375 6 27.484375 6 
Q 33.546875 6 37.671875 11.859375 
Q 41.796875 17.71875 41.796875 35.296875 
Q 41.796875 52.984375 37.671875 58.78125 
Q 33.546875 64.59375 27.390625 64.59375 
Q 21.34375 64.59375 17.71875 59.46875 
Q 13.1875 52.9375 13.1875 35.296875 
z
" id="ArialMT-48"/>
      </defs>
      <g style="fill:#262626;" transform="translate(320.171128 328.767812)scale(0.1 -0.1)">
       <use xlink:href="#ArialMT-48"/>
      </g>
     </g>
    </g>
    <g id="xtick_5">
     <g id="text_5">
      <!-- 1 -->
      <g style="fill:#262626;" transform="translate(393.440694 328.767812)scale(0.1 -0.1)">
       <use xlink:href="#ArialMT-49"/>
      </g>
     </g>
    </g>
    <g id="xtick_6">
     <g id="text_6">
      <!-- 2 -->
      <g style="fill:#262626;" transform="translate(466.710259 328.767812)scale(0.1 -0.1)">
       <use xlink:href="#ArialMT-50"/>
      </g>
     </g>
    </g>
    <g id="xtick_7">
     <g id="text_7">
      <!-- 3 -->
      <g style="fill:#262626;" transform="translate(539.979824 328.767812)scale(0.1 -0.1)">
       <use xlink:href="#ArialMT-51"/>
      </g>
     </g>
    </g>
    <g id="text_8">
     <!-- PC 1 -->
     <defs>
      <path d="M 7.71875 0 
L 7.71875 71.578125 
L 34.71875 71.578125 
Q 41.84375 71.578125 45.609375 70.90625 
Q 50.875 70.015625 54.4375 67.546875 
Q 58.015625 65.09375 60.1875 60.640625 
Q 62.359375 56.203125 62.359375 50.875 
Q 62.359375 41.75 56.546875 35.421875 
Q 50.734375 29.109375 35.546875 29.109375 
L 17.1875 29.109375 
L 17.1875 0 
z
M 17.1875 37.546875 
L 35.6875 37.546875 
Q 44.875 37.546875 48.734375 40.96875 
Q 52.59375 44.390625 52.59375 50.59375 
Q 52.59375 55.078125 50.3125 58.265625 
Q 48.046875 61.46875 44.34375 62.5 
Q 41.9375 63.140625 35.5 63.140625 
L 17.1875 63.140625 
z
" id="ArialMT-80"/>
      <path d="M 58.796875 25.09375 
L 68.265625 22.703125 
Q 65.28125 11.03125 57.546875 4.90625 
Q 49.8125 -1.21875 38.625 -1.21875 
Q 27.046875 -1.21875 19.796875 3.484375 
Q 12.546875 8.203125 8.765625 17.140625 
Q 4.984375 26.078125 4.984375 36.328125 
Q 4.984375 47.515625 9.25 55.828125 
Q 13.53125 64.15625 21.40625 68.46875 
Q 29.296875 72.796875 38.765625 72.796875 
Q 49.515625 72.796875 56.828125 67.328125 
Q 64.15625 61.859375 67.046875 51.953125 
L 57.71875 49.75 
Q 55.21875 57.5625 50.484375 61.125 
Q 45.75 64.703125 38.578125 64.703125 
Q 30.328125 64.703125 24.78125 60.734375 
Q 19.234375 56.78125 16.984375 50.109375 
Q 14.75 43.453125 14.75 36.375 
Q 14.75 27.25 17.40625 20.4375 
Q 20.0625 13.625 25.671875 10.25 
Q 31.296875 6.890625 37.84375 6.890625 
Q 45.796875 6.890625 51.3125 11.46875 
Q 56.84375 16.0625 58.796875 25.09375 
z
" id="ArialMT-67"/>
      <path id="ArialMT-32"/>
     </defs>
     <g style="fill:#262626;" transform="translate(531.851562 347.921344)scale(0.15 -0.15)">
      <use xlink:href="#ArialMT-80"/>
      <use x="66.699219" xlink:href="#ArialMT-67"/>
      <use x="138.916016" xlink:href="#ArialMT-32"/>
      <use x="166.699219" xlink:href="#ArialMT-49"/>
     </g>
    </g>
   </g>
   <g id="matplotlib.axis_2">
    <g id="ytick_1">
     <g id="text_9">
      <!-- −2 -->
      <g style="fill:#262626;" transform="translate(39.678438 269.338602)scale(0.1 -0.1)">
       <use xlink:href="#ArialMT-8722"/>
       <use x="58.398438" xlink:href="#ArialMT-50"/>
      </g>
     </g>
    </g>
    <g id="ytick_2">
     <g id="text_10">
      <!-- −1 -->
      <g style="fill:#262626;" transform="translate(39.678438 218.102402)scale(0.1 -0.1)">
       <use xlink:href="#ArialMT-8722"/>
       <use x="58.398438" xlink:href="#ArialMT-49"/>
      </g>
     </g>
    </g>
    <g id="ytick_3">
     <g id="text_11">
      <!-- 0 -->
      <g style="fill:#262626;" transform="translate(45.519063 166.866203)scale(0.1 -0.1)">
       <use xlink:href="#ArialMT-48"/>
      </g>
     </g>
    </g>
    <g id="ytick_4">
     <g id="text_12">
      <!-- 1 -->
      <g style="fill:#262626;" transform="translate(45.519063 115.630003)scale(0.1 -0.1)">
       <use xlink:href="#ArialMT-49"/>
      </g>
     </g>
    </g>
    <g id="ytick_5">
     <g id="text_13">
      <!-- 2 -->
      <g style="fill:#262626;" transform="translate(45.519063 64.393803)scale(0.1 -0.1)">
       <use xlink:href="#ArialMT-50"/>
      </g>
     </g>
    </g>
    <g id="text_14">
     <!-- PC 2 -->
     <g style="fill:#262626;" transform="translate(18.315375 45.338188)rotate(-90)scale(0.15 -0.15)">
      <use xlink:href="#ArialMT-80"/>
      <use x="66.699219" xlink:href="#ArialMT-67"/>
      <use x="138.916016" xlink:href="#ArialMT-32"/>
      <use x="166.699219" xlink:href="#ArialMT-50"/>
     </g>
    </g>
   </g>
   <g id="PathCollection_1">
    <defs>
     <path d="M 0 3 
C 0.795609 3 1.55874 2.683901 2.12132 2.12132 
C 2.683901 1.55874 3 0.795609 3 0 
C 3 -0.795609 2.683901 -1.55874 2.12132 -2.12132 
C 1.55874 -2.683901 0.795609 -3 0 -3 
C -0.795609 -3 -1.55874 -2.683901 -2.12132 -2.12132 
C -2.683901 -1.55874 -3 -0.795609 -3 0 
C -3 0.795609 -2.683901 1.55874 -2.12132 2.12132 
C -1.55874 2.683901 -0.795609 3 0 3 
z
" id="m16e5eb1f5a" style="stroke:#ffffff;stroke-width:0.75;"/>
    </defs>
    <g clip-path="url(#p691533ae85)">
     <use style="fill:#1f77b4;stroke:#ffffff;stroke-width:0.75;" x="488.885393" xlink:href="#m16e5eb1f5a" y="187.882031"/>
     <use style="fill:#1f77b4;stroke:#ffffff;stroke-width:0.75;" x="475.422712" xlink:href="#m16e5eb1f5a" y="128.747255"/>
     <use style="fill:#1f77b4;stroke:#ffffff;stroke-width:0.75;" x="496.177645" xlink:href="#m16e5eb1f5a" y="145.769227"/>
     <use style="fill:#1f77b4;stroke:#ffffff;stroke-width:0.75;" x="491.426479" xlink:href="#m16e5eb1f5a" y="132.679057"/>
     <use style="fill:#1f77b4;stroke:#ffffff;stroke-width:0.75;" x="498.054291" xlink:href="#m16e5eb1f5a" y="196.428671"/>
     <use style="fill:#1f77b4;stroke:#ffffff;stroke-width:0.75;" x="475.032174" xlink:href="#m16e5eb1f5a" y="239.587105"/>
     <use style="fill:#1f77b4;stroke:#ffffff;stroke-width:0.75;" x="502.024537" xlink:href="#m16e5eb1f5a" y="165.72841"/>
     <use style="fill:#1f77b4;stroke:#ffffff;stroke-width:0.75;" x="486.551343" xlink:href="#m16e5eb1f5a" y="174.720564"/>
     <use style="fill:#1f77b4;stroke:#ffffff;stroke-width:0.75;" x="494.00969" xlink:href="#m16e5eb1f5a" y="106.142155"/>
     <use style="fill:#1f77b4;stroke:#ffffff;stroke-width:0.75;" x="482.996364" xlink:href="#m16e5eb1f5a" y="139.256814"/>
     <use style="fill:#1f77b4;stroke:#ffffff;stroke-width:0.75;" x="481.676195" xlink:href="#m16e5eb1f5a" y="216.762045"/>
     <use style="fill:#1f77b4;stroke:#ffffff;stroke-width:0.75;" x="493.38619" xlink:href="#m16e5eb1f5a" y="170.105737"/>
     <use style="fill:#1f77b4;stroke:#ffffff;stroke-width:0.75;" x="485.496522" xlink:href="#m16e5eb1f5a" y="125.952701"/>
     <use style="fill:#1f77b4;stroke:#ffffff;stroke-width:0.75;" x="515.877731" xlink:href="#m16e5eb1f5a" y="114.023348"/>
     <use style="fill:#1f77b4;stroke:#ffffff;stroke-width:0.75;" x="484.052357" xlink:href="#m16e5eb1f5a" y="258.589557"/>
     <use style="fill:#1f77b4;stroke:#ffffff;stroke-width:0.75;" x="488.703088" xlink:href="#m16e5eb1f5a" y="300.92231"/>
     <use style="fill:#1f77b4;stroke:#ffffff;stroke-width:0.75;" x="484.70059" xlink:href="#m16e5eb1f5a" y="239.301813"/>
     <use style="fill:#1f77b4;stroke:#ffffff;stroke-width:0.75;" x="483.437559" xlink:href="#m16e5eb1f5a" y="188.33351"/>
     <use style="fill:#1f77b4;stroke:#ffffff;stroke-width:0.75;" x="462.059148" xlink:href="#m16e5eb1f5a" y="235.275109"/>
     <use style="fill:#1f77b4;stroke:#ffffff;stroke-width:0.75;" x="494.649232" xlink:href="#m16e5eb1f5a" y="221.074004"/>
     <use style="fill:#1f77b4;stroke:#ffffff;stroke-width:0.75;" x="463.21321" xlink:href="#m16e5eb1f5a" y="184.23552"/>
     <use style="fill:#1f77b4;stroke:#ffffff;stroke-width:0.75;" x="484.658476" xlink:href="#m16e5eb1f5a" y="210.635768"/>
     <use style="fill:#1f77b4;stroke:#ffffff;stroke-width:0.75;" x="526.226629" xlink:href="#m16e5eb1f5a" y="186.771069"/>
     <use style="fill:#1f77b4;stroke:#ffffff;stroke-width:0.75;" x="456.204724" xlink:href="#m16e5eb1f5a" y="167.670981"/>
     <use style="fill:#1f77b4;stroke:#ffffff;stroke-width:0.75;" x="486.134881" xlink:href="#m16e5eb1f5a" y="170.319706"/>
     <use style="fill:#1f77b4;stroke:#ffffff;stroke-width:0.75;" x="465.962528" xlink:href="#m16e5eb1f5a" y="131.232975"/>
     <use style="fill:#1f77b4;stroke:#ffffff;stroke-width:0.75;" x="473.238571" xlink:href="#m16e5eb1f5a" y="175.694845"/>
     <use style="fill:#1f77b4;stroke:#ffffff;stroke-width:0.75;" x="481.842313" xlink:href="#m16e5eb1f5a" y="190.296428"/>
     <use style="fill:#1f77b4;stroke:#ffffff;stroke-width:0.75;" x="479.716495" xlink:href="#m16e5eb1f5a" y="179.335391"/>
     <use style="fill:#1f77b4;stroke:#ffffff;stroke-width:0.75;" x="488.926333" xlink:href="#m16e5eb1f5a" y="145.983196"/>
     <use style="fill:#1f77b4;stroke:#ffffff;stroke-width:0.75;" x="479.757402" xlink:href="#m16e5eb1f5a" y="137.436541"/>
     <use style="fill:#1f77b4;stroke:#ffffff;stroke-width:0.75;" x="457.15175" xlink:href="#m16e5eb1f5a" y="184.995833"/>
     <use style="fill:#1f77b4;stroke:#ffffff;stroke-width:0.75;" x="514.547702" xlink:href="#m16e5eb1f5a" y="255.183291"/>
     <use style="fill:#1f77b4;stroke:#ffffff;stroke-width:0.75;" x="502.181945" xlink:href="#m16e5eb1f5a" y="273.482397"/>
     <use style="fill:#1f77b4;stroke:#ffffff;stroke-width:0.75;" x="477.54853" xlink:href="#m16e5eb1f5a" y="139.708293"/>
     <use style="fill:#1f77b4;stroke:#ffffff;stroke-width:0.75;" x="484.716796" xlink:href="#m16e5eb1f5a" y="152.72714"/>
     <use style="fill:#1f77b4;stroke:#ffffff;stroke-width:0.75;" x="472.798572" xlink:href="#m16e5eb1f5a" y="197.183018"/>
     <use style="fill:#1f77b4;stroke:#ffffff;stroke-width:0.75;" x="508.128101" xlink:href="#m16e5eb1f5a" y="193.634117"/>
     <use style="fill:#1f77b4;stroke:#ffffff;stroke-width:0.75;" x="500.969717" xlink:href="#m16e5eb1f5a" y="116.960547"/>
     <use style="fill:#1f77b4;stroke:#ffffff;stroke-width:0.75;" x="481.925367" xlink:href="#m16e5eb1f5a" y="177.063639"/>
     <use style="fill:#1f77b4;stroke:#ffffff;stroke-width:0.75;" x="490.480638" xlink:href="#m16e5eb1f5a" y="185.919112"/>
     <use style="fill:#1f77b4;stroke:#ffffff;stroke-width:0.75;" x="459.095418" xlink:href="#m16e5eb1f5a" y="43.527019"/>
     <use style="fill:#1f77b4;stroke:#ffffff;stroke-width:0.75;" x="510.055572" xlink:href="#m16e5eb1f5a" y="138.740003"/>
     <use style="fill:#1f77b4;stroke:#ffffff;stroke-width:0.75;" x="466.885824" xlink:href="#m16e5eb1f5a" y="187.487519"/>
     <use style="fill:#1f77b4;stroke:#ffffff;stroke-width:0.75;" x="479.532986" xlink:href="#m16e5eb1f5a" y="221.810774"/>
     <use style="fill:#1f77b4;stroke:#ffffff;stroke-width:0.75;" x="474.600853" xlink:href="#m16e5eb1f5a" y="126.855659"/>
     <use style="fill:#1f77b4;stroke:#ffffff;stroke-width:0.75;" x="497.679963" xlink:href="#m16e5eb1f5a" y="220.693847"/>
     <use style="fill:#1f77b4;stroke:#ffffff;stroke-width:0.75;" x="498.386516" xlink:href="#m16e5eb1f5a" y="143.497475"/>
     <use style="fill:#1f77b4;stroke:#ffffff;stroke-width:0.75;" x="486.302171" xlink:href="#m16e5eb1f5a" y="214.41897"/>
     <use style="fill:#1f77b4;stroke:#ffffff;stroke-width:0.75;" x="484.425514" xlink:href="#m16e5eb1f5a" y="163.7595"/>
     <use style="fill:#1f77b4;stroke:#ffffff;stroke-width:0.75;" x="242.224575" xlink:href="#m16e5eb1f5a" y="207.502729"/>
     <use style="fill:#1f77b4;stroke:#ffffff;stroke-width:0.75;" x="269.366818" xlink:href="#m16e5eb1f5a" y="193.753103"/>
     <use style="fill:#1f77b4;stroke:#ffffff;stroke-width:0.75;" x="232.025568" xlink:href="#m16e5eb1f5a" y="194.864039"/>
     <use style="fill:#1f77b4;stroke:#ffffff;stroke-width:0.75;" x="293.095488" xlink:href="#m16e5eb1f5a" y="73.398298"/>
     <use style="fill:#1f77b4;stroke:#ffffff;stroke-width:0.75;" x="244.152031" xlink:href="#m16e5eb1f5a" y="152.608589"/>
     <use style="fill:#1f77b4;stroke:#ffffff;stroke-width:0.75;" x="294.472652" xlink:href="#m16e5eb1f5a" y="132.889688"/>
     <use style="fill:#1f77b4;stroke:#ffffff;stroke-width:0.75;" x="268.253679" xlink:href="#m16e5eb1f5a" y="202.893868"/>
     <use style="fill:#1f77b4;stroke:#ffffff;stroke-width:0.75;" x="358.657522" xlink:href="#m16e5eb1f5a" y="68.375881"/>
     <use style="fill:#1f77b4;stroke:#ffffff;stroke-width:0.75;" x="254.964659" xlink:href="#m16e5eb1f5a" y="164.938446"/>
     <use style="fill:#1f77b4;stroke:#ffffff;stroke-width:0.75;" x="322.114413" xlink:href="#m16e5eb1f5a" y="110.30813"/>
     <use style="fill:#1f77b4;stroke:#ffffff;stroke-width:0.75;" x="331.025627" xlink:href="#m16e5eb1f5a" y="27.30269"/>
     <use style="fill:#1f77b4;stroke:#ffffff;stroke-width:0.75;" x="290.662178" xlink:href="#m16e5eb1f5a" y="160.044294"/>
     <use style="fill:#1f77b4;stroke:#ffffff;stroke-width:0.75;" x="281.766164" xlink:href="#m16e5eb1f5a" y="72.86953"/>
     <use style="fill:#1f77b4;stroke:#ffffff;stroke-width:0.75;" x="270.229623" xlink:href="#m16e5eb1f5a" y="153.745864"/>
     <use style="fill:#1f77b4;stroke:#ffffff;stroke-width:0.75;" x="325.395494" xlink:href="#m16e5eb1f5a" y="140.794448"/>
     <use style="fill:#1f77b4;stroke:#ffffff;stroke-width:0.75;" x="258.810894" xlink:href="#m16e5eb1f5a" y="189.369785"/>
     <use style="fill:#1f77b4;stroke:#ffffff;stroke-width:0.75;" x="297.288813" xlink:href="#m16e5eb1f5a" y="153.229027"/>
     <use style="fill:#1f77b4;stroke:#ffffff;stroke-width:0.75;" x="311.315647" xlink:href="#m16e5eb1f5a" y="122.70333"/>
     <use style="fill:#1f77b4;stroke:#ffffff;stroke-width:0.75;" x="233.189526" xlink:href="#m16e5eb1f5a" y="80.16969"/>
     <use style="fill:#1f77b4;stroke:#ffffff;stroke-width:0.75;" x="310.868133" xlink:href="#m16e5eb1f5a" y="96.546547"/>
     <use style="fill:#1f77b4;stroke:#ffffff;stroke-width:0.75;" x="268.901905" xlink:href="#m16e5eb1f5a" y="183.606125"/>
     <use style="fill:#1f77b4;stroke:#ffffff;stroke-width:0.75;" x="288.054244" xlink:href="#m16e5eb1f5a" y="141.905384"/>
     <use style="fill:#1f77b4;stroke:#ffffff;stroke-width:0.75;" x="232.52389" xlink:href="#m16e5eb1f5a" y="115.467238"/>
     <use style="fill:#1f77b4;stroke:#ffffff;stroke-width:0.75;" x="276.582354" xlink:href="#m16e5eb1f5a" y="141.953165"/>
     <use style="fill:#1f77b4;stroke:#ffffff;stroke-width:0.75;" x="271.467913" xlink:href="#m16e5eb1f5a" y="160.038329"/>
     <use style="fill:#1f77b4;stroke:#ffffff;stroke-width:0.75;" x="258.893948" xlink:href="#m16e5eb1f5a" y="176.136995"/>
     <use style="fill:#1f77b4;stroke:#ffffff;stroke-width:0.75;" x="230.887703" xlink:href="#m16e5eb1f5a" y="159.328991"/>
     <use style="fill:#1f77b4;stroke:#ffffff;stroke-width:0.75;" x="223.421848" xlink:href="#m16e5eb1f5a" y="180.262445"/>
     <use style="fill:#1f77b4;stroke:#ffffff;stroke-width:0.75;" x="274.241966" xlink:href="#m16e5eb1f5a" y="151.711623"/>
     <use style="fill:#1f77b4;stroke:#ffffff;stroke-width:0.75;" x="325.90133" xlink:href="#m16e5eb1f5a" y="109.042566"/>
     <use style="fill:#1f77b4;stroke:#ffffff;stroke-width:0.75;" x="313.368293" xlink:href="#m16e5eb1f5a" y="83.242435"/>
     <use style="fill:#1f77b4;stroke:#ffffff;stroke-width:0.75;" x="321.233229" xlink:href="#m16e5eb1f5a" y="82.719633"/>
     <use style="fill:#1f77b4;stroke:#ffffff;stroke-width:0.75;" x="305.254179" xlink:href="#m16e5eb1f5a" y="123.463643"/>
     <use style="fill:#1f77b4;stroke:#ffffff;stroke-width:0.75;" x="245.205657" xlink:href="#m16e5eb1f5a" y="130.811583"/>
     <use style="fill:#1f77b4;stroke:#ffffff;stroke-width:0.75;" x="306.540764" xlink:href="#m16e5eb1f5a" y="148.542878"/>
     <use style="fill:#1f77b4;stroke:#ffffff;stroke-width:0.75;" x="291.508763" xlink:href="#m16e5eb1f5a" y="206.611728"/>
     <use style="fill:#1f77b4;stroke:#ffffff;stroke-width:0.75;" x="246.111756" xlink:href="#m16e5eb1f5a" y="190.035232"/>
     <use style="fill:#1f77b4;stroke:#ffffff;stroke-width:0.75;" x="246.419222" xlink:href="#m16e5eb1f5a" y="92.428209"/>
     <use style="fill:#1f77b4;stroke:#ffffff;stroke-width:0.75;" x="317.852899" xlink:href="#m16e5eb1f5a" y="152.040777"/>
     <use style="fill:#1f77b4;stroke:#ffffff;stroke-width:0.75;" x="302.181343" xlink:href="#m16e5eb1f5a" y="95.177753"/>
     <use style="fill:#1f77b4;stroke:#ffffff;stroke-width:0.75;" x="302.503678" xlink:href="#m16e5eb1f5a" y="105.901281"/>
     <use style="fill:#1f77b4;stroke:#ffffff;stroke-width:0.75;" x="277.189646" xlink:href="#m16e5eb1f5a" y="164.564256"/>
     <use style="fill:#1f77b4;stroke:#ffffff;stroke-width:0.75;" x="298.294145" xlink:href="#m16e5eb1f5a" y="112.645225"/>
     <use style="fill:#1f77b4;stroke:#ffffff;stroke-width:0.75;" x="349.488613" xlink:href="#m16e5eb1f5a" y="59.829215"/>
     <use style="fill:#1f77b4;stroke:#ffffff;stroke-width:0.75;" x="301.807021" xlink:href="#m16e5eb1f5a" y="119.442929"/>
     <use style="fill:#1f77b4;stroke:#ffffff;stroke-width:0.75;" x="316.257651" xlink:href="#m16e5eb1f5a" y="154.003696"/>
     <use style="fill:#1f77b4;stroke:#ffffff;stroke-width:0.75;" x="306.2669" xlink:href="#m16e5eb1f5a" y="143.56546"/>
     <use style="fill:#1f77b4;stroke:#ffffff;stroke-width:0.75;" x="280.719887" xlink:href="#m16e5eb1f5a" y="155.352168"/>
     <use style="fill:#1f77b4;stroke:#ffffff;stroke-width:0.75;" x="355.751966" xlink:href="#m16e5eb1f5a" y="84.189257"/>
     <use style="fill:#1f77b4;stroke:#ffffff;stroke-width:0.75;" x="304.141068" xlink:href="#m16e5eb1f5a" y="132.604396"/>
     <use style="fill:#1f77b4;stroke:#ffffff;stroke-width:0.75;" x="187.800825" xlink:href="#m16e5eb1f5a" y="207.884378"/>
     <use style="fill:#1f77b4;stroke:#ffffff;stroke-width:0.75;" x="238.114109" xlink:href="#m16e5eb1f5a" y="127.479871"/>
     <use style="fill:#1f77b4;stroke:#ffffff;stroke-width:0.75;" x="161.372662" xlink:href="#m16e5eb1f5a" y="192.082577"/>
     <use style="fill:#1f77b4;stroke:#ffffff;stroke-width:0.75;" x="217.432382" xlink:href="#m16e5eb1f5a" y="160.879847"/>
     <use style="fill:#1f77b4;stroke:#ffffff;stroke-width:0.75;" x="186.097798" xlink:href="#m16e5eb1f5a" y="178.404274"/>
     <use style="fill:#1f77b4;stroke:#ffffff;stroke-width:0.75;" x="121.323043" xlink:href="#m16e5eb1f5a" y="204.297222"/>
     <use style="fill:#1f77b4;stroke:#ffffff;stroke-width:0.75;" x="296.060362" xlink:href="#m16e5eb1f5a" y="83.281825"/>
     <use style="fill:#1f77b4;stroke:#ffffff;stroke-width:0.75;" x="154.25285" xlink:href="#m16e5eb1f5a" y="184.809877"/>
     <use style="fill:#1f77b4;stroke:#ffffff;stroke-width:0.75;" x="175.922555" xlink:href="#m16e5eb1f5a" y="126.83588"/>
     <use style="fill:#1f77b4;stroke:#ffffff;stroke-width:0.75;" x="157.378698" xlink:href="#m16e5eb1f5a" y="261.712556"/>
     <use style="fill:#1f77b4;stroke:#ffffff;stroke-width:0.75;" x="222.999054" xlink:href="#m16e5eb1f5a" y="198.781511"/>
     <use style="fill:#1f77b4;stroke:#ffffff;stroke-width:0.75;" x="205.524019" xlink:href="#m16e5eb1f5a" y="141.680977"/>
     <use style="fill:#1f77b4;stroke:#ffffff;stroke-width:0.75;" x="184.919005" xlink:href="#m16e5eb1f5a" y="184.768061"/>
     <use style="fill:#1f77b4;stroke:#ffffff;stroke-width:0.75;" x="230.623517" xlink:href="#m16e5eb1f5a" y="103.737486"/>
     <use style="fill:#1f77b4;stroke:#ffffff;stroke-width:0.75;" x="215.417855" xlink:href="#m16e5eb1f5a" y="140.626982"/>
     <use style="fill:#1f77b4;stroke:#ffffff;stroke-width:0.75;" x="206.447317" xlink:href="#m16e5eb1f5a" y="197.93552"/>
     <use style="fill:#1f77b4;stroke:#ffffff;stroke-width:0.75;" x="215.140454" xlink:href="#m16e5eb1f5a" y="176.384388"/>
     <use style="fill:#1f77b4;stroke:#ffffff;stroke-width:0.75;" x="145.175534" xlink:href="#m16e5eb1f5a" y="294.280896"/>
     <use style="fill:#1f77b4;stroke:#ffffff;stroke-width:0.75;" x="80.378371" xlink:href="#m16e5eb1f5a" y="164.198312"/>
     <use style="fill:#1f77b4;stroke:#ffffff;stroke-width:0.75;" x="230.355961" xlink:href="#m16e5eb1f5a" y="75.840155"/>
     <use style="fill:#1f77b4;stroke:#ffffff;stroke-width:0.75;" x="173.649012" xlink:href="#m16e5eb1f5a" y="209.936196"/>
     <use style="fill:#1f77b4;stroke:#ffffff;stroke-width:0.75;" x="251.295372" xlink:href="#m16e5eb1f5a" y="133.992259"/>
     <use style="fill:#1f77b4;stroke:#ffffff;stroke-width:0.75;" x="110.641939" xlink:href="#m16e5eb1f5a" y="184.480685"/>
     <use style="fill:#1f77b4;stroke:#ffffff;stroke-width:0.75;" x="225.266246" xlink:href="#m16e5eb1f5a" y="138.601131"/>
     <use style="fill:#1f77b4;stroke:#ffffff;stroke-width:0.75;" x="198.339578" xlink:href="#m16e5eb1f5a" y="215.236791"/>
     <use style="fill:#1f77b4;stroke:#ffffff;stroke-width:0.75;" x="179.75894" xlink:href="#m16e5eb1f5a" y="214.921993"/>
     <use style="fill:#1f77b4;stroke:#ffffff;stroke-width:0.75;" x="236.852267" xlink:href="#m16e5eb1f5a" y="147.076437"/>
     <use style="fill:#1f77b4;stroke:#ffffff;stroke-width:0.75;" x="248.146997" xlink:href="#m16e5eb1f5a" y="166.584141"/>
     <use style="fill:#1f77b4;stroke:#ffffff;stroke-width:0.75;" x="191.919974" xlink:href="#m16e5eb1f5a" y="153.687618"/>
     <use style="fill:#1f77b4;stroke:#ffffff;stroke-width:0.75;" x="186.402951" xlink:href="#m16e5eb1f5a" y="192.096933"/>
     <use style="fill:#1f77b4;stroke:#ffffff;stroke-width:0.75;" x="144.47032" xlink:href="#m16e5eb1f5a" y="176.572044"/>
     <use style="fill:#1f77b4;stroke:#ffffff;stroke-width:0.75;" x="154.070534" xlink:href="#m16e5eb1f5a" y="297.85013"/>
     <use style="fill:#1f77b4;stroke:#ffffff;stroke-width:0.75;" x="186.472132" xlink:href="#m16e5eb1f5a" y="154.139098"/>
     <use style="fill:#1f77b4;stroke:#ffffff;stroke-width:0.75;" x="241.318465" xlink:href="#m16e5eb1f5a" y="148.279054"/>
     <use style="fill:#1f77b4;stroke:#ffffff;stroke-width:0.75;" x="234.846902" xlink:href="#m16e5eb1f5a" y="121.718573"/>
     <use style="fill:#1f77b4;stroke:#ffffff;stroke-width:0.75;" x="117.886913" xlink:href="#m16e5eb1f5a" y="207.186641"/>
     <use style="fill:#1f77b4;stroke:#ffffff;stroke-width:0.75;" x="207.460003" xlink:href="#m16e5eb1f5a" y="218.037349"/>
     <use style="fill:#1f77b4;stroke:#ffffff;stroke-width:0.75;" x="224.309352" xlink:href="#m16e5eb1f5a" y="184.931029"/>
     <use style="fill:#1f77b4;stroke:#ffffff;stroke-width:0.75;" x="255.190074" xlink:href="#m16e5eb1f5a" y="164.169744"/>
     <use style="fill:#1f77b4;stroke:#ffffff;stroke-width:0.75;" x="187.253053" xlink:href="#m16e5eb1f5a" y="197.929528"/>
     <use style="fill:#1f77b4;stroke:#ffffff;stroke-width:0.75;" x="175.327312" xlink:href="#m16e5eb1f5a" y="194.740451"/>
     <use style="fill:#1f77b4;stroke:#ffffff;stroke-width:0.75;" x="183.608697" xlink:href="#m16e5eb1f5a" y="198.618518"/>
     <use style="fill:#1f77b4;stroke:#ffffff;stroke-width:0.75;" x="238.114109" xlink:href="#m16e5eb1f5a" y="127.479871"/>
     <use style="fill:#1f77b4;stroke:#ffffff;stroke-width:0.75;" x="173.440774" xlink:href="#m16e5eb1f5a" y="207.735767"/>
     <use style="fill:#1f77b4;stroke:#ffffff;stroke-width:0.75;" x="176.548237" xlink:href="#m16e5eb1f5a" y="217.042708"/>
     <use style="fill:#1f77b4;stroke:#ffffff;stroke-width:0.75;" x="185.900647" xlink:href="#m16e5eb1f5a" y="183.113965"/>
     <use style="fill:#1f77b4;stroke:#ffffff;stroke-width:0.75;" x="208.315454" xlink:href="#m16e5eb1f5a" y="117.344477"/>
     <use style="fill:#1f77b4;stroke:#ffffff;stroke-width:0.75;" x="211.496098" xlink:href="#m16e5eb1f5a" y="177.073378"/>
     <use style="fill:#1f77b4;stroke:#ffffff;stroke-width:0.75;" x="222.368045" xlink:href="#m16e5eb1f5a" y="215.100138"/>
     <use style="fill:#1f77b4;stroke:#ffffff;stroke-width:0.75;" x="252.564746" xlink:href="#m16e5eb1f5a" y="162.040637"/>
    </g>
   </g>
   <g id="patch_3">
    <path d="M 58.08 314.61 
L 58.08 13.615 
" style="fill:none;stroke:#262626;stroke-linecap:square;stroke-linejoin:miter;stroke-width:0.8;"/>
   </g>
   <g id="patch_4">
    <path d="M 58.08 314.61 
L 548.525 314.61 
" style="fill:none;stroke:#262626;stroke-linecap:square;stroke-linejoin:miter;stroke-width:0.8;"/>
   </g>
  </g>
 </g>
 <defs>
  <clipPath id="p691533ae85">
   <rect height="300.995" width="490.445" x="58.08" y="13.615"/>
  </clipPath>
 </defs>
</svg>
