<?xml version="1.0" encoding="utf-8" standalone="no"?>
<!DOCTYPE svg PUBLIC "-//W3C//DTD SVG 1.1//EN"
  "http://www.w3.org/Graphics/SVG/1.1/DTD/svg11.dtd">
<!-- Created with matplotlib (https://matplotlib.org/) -->
<svg height="360pt" version="1.1" viewBox="0 0 576 360" width="576pt" xmlns="http://www.w3.org/2000/svg" xmlns:xlink="http://www.w3.org/1999/xlink">
 <defs>
  <style type="text/css">
*{stroke-linecap:butt;stroke-linejoin:round;}
  </style>
 </defs>
 <g id="figure_1">
  <g id="patch_1">
   <path d="M 0 360 
L 576 360 
L 576 0 
L 0 0 
z
" style="fill:#ffffff;"/>
  </g>
  <g id="axes_1">
   <g id="patch_2">
    <path d="M 58.28 314.41 
L 554.76875 314.41 
L 554.76875 18.49875 
L 58.28 18.49875 
z
" style="fill:#ffffff;"/>
   </g>
   <g id="matplotlib.axis_1">
    <g id="xtick_1">
     <g id="text_1">
      <!-- −4 -->
      <defs>
       <path d="M 52.828125 31.203125 
L 5.5625 31.203125 
L 5.5625 39.40625 
L 52.828125 39.40625 
z
" id="ArialMT-8722"/>
       <path d="M 32.328125 0 
L 32.328125 17.140625 
L 1.265625 17.140625 
L 1.265625 25.203125 
L 33.9375 71.578125 
L 41.109375 71.578125 
L 41.109375 25.203125 
L 50.78125 25.203125 
L 50.78125 17.140625 
L 41.109375 17.140625 
L 41.109375 0 
z
M 32.328125 25.203125 
L 32.328125 57.46875 
L 9.90625 25.203125 
z
" id="ArialMT-52"/>
      </defs>
      <g style="fill:#262626;" transform="translate(135.419383 328.567813)scale(0.1 -0.1)">
       <use xlink:href="#ArialMT-8722"/>
       <use x="58.398438" xlink:href="#ArialMT-52"/>
      </g>
     </g>
    </g>
    <g id="xtick_2">
     <g id="text_2">
      <!-- −2 -->
      <defs>
       <path d="M 50.34375 8.453125 
L 50.34375 0 
L 3.03125 0 
Q 2.9375 3.171875 4.046875 6.109375 
Q 5.859375 10.9375 9.828125 15.625 
Q 13.8125 20.3125 21.34375 26.46875 
Q 33.015625 36.03125 37.109375 41.625 
Q 41.21875 47.21875 41.21875 52.203125 
Q 41.21875 57.421875 37.46875 61 
Q 33.734375 64.59375 27.734375 64.59375 
Q 21.390625 64.59375 17.578125 60.78125 
Q 13.765625 56.984375 13.71875 50.25 
L 4.6875 51.171875 
Q 5.609375 61.28125 11.65625 66.578125 
Q 17.71875 71.875 27.9375 71.875 
Q 38.234375 71.875 44.234375 66.15625 
Q 50.25 60.453125 50.25 52 
Q 50.25 47.703125 48.484375 43.546875 
Q 46.734375 39.40625 42.65625 34.8125 
Q 38.578125 30.21875 29.109375 22.21875 
Q 21.1875 15.578125 18.9375 13.203125 
Q 16.703125 10.84375 15.234375 8.453125 
z
" id="ArialMT-50"/>
      </defs>
      <g style="fill:#262626;" transform="translate(232.133406 328.567813)scale(0.1 -0.1)">
       <use xlink:href="#ArialMT-8722"/>
       <use x="58.398438" xlink:href="#ArialMT-50"/>
      </g>
     </g>
    </g>
    <g id="xtick_3">
     <g id="text_3">
      <!-- 0 -->
      <defs>
       <path d="M 4.15625 35.296875 
Q 4.15625 48 6.765625 55.734375 
Q 9.375 63.484375 14.515625 67.671875 
Q 19.671875 71.875 27.484375 71.875 
Q 33.25 71.875 37.59375 69.546875 
Q 41.9375 67.234375 44.765625 62.859375 
Q 47.609375 58.5 49.21875 52.21875 
Q 50.828125 45.953125 50.828125 35.296875 
Q 50.828125 22.703125 48.234375 14.96875 
Q 45.65625 7.234375 40.5 3 
Q 35.359375 -1.21875 27.484375 -1.21875 
Q 17.140625 -1.21875 11.234375 6.203125 
Q 4.15625 15.140625 4.15625 35.296875 
z
M 13.1875 35.296875 
Q 13.1875 17.671875 17.3125 11.828125 
Q 21.4375 6 27.484375 6 
Q 33.546875 6 37.671875 11.859375 
Q 41.796875 17.71875 41.796875 35.296875 
Q 41.796875 52.984375 37.671875 58.78125 
Q 33.546875 64.59375 27.390625 64.59375 
Q 21.34375 64.59375 17.71875 59.46875 
Q 13.1875 52.9375 13.1875 35.296875 
z
" id="ArialMT-48"/>
      </defs>
      <g style="fill:#262626;" transform="translate(331.767742 328.567813)scale(0.1 -0.1)">
       <use xlink:href="#ArialMT-48"/>
      </g>
     </g>
    </g>
    <g id="xtick_4">
     <g id="text_4">
      <!-- 2 -->
      <g style="fill:#262626;" transform="translate(428.481765 328.567813)scale(0.1 -0.1)">
       <use xlink:href="#ArialMT-50"/>
      </g>
     </g>
    </g>
    <g id="xtick_5">
     <g id="text_5">
      <!-- 4 -->
      <g style="fill:#262626;" transform="translate(525.195788 328.567813)scale(0.1 -0.1)">
       <use xlink:href="#ArialMT-52"/>
      </g>
     </g>
    </g>
    <g id="text_6">
     <!-- f_3 -->
     <defs>
      <path d="M 8.6875 0 
L 8.6875 45.015625 
L 0.921875 45.015625 
L 0.921875 51.859375 
L 8.6875 51.859375 
L 8.6875 57.375 
Q 8.6875 62.59375 9.625 65.140625 
Q 10.890625 68.5625 14.078125 70.671875 
Q 17.28125 72.796875 23.046875 72.796875 
Q 26.765625 72.796875 31.25 71.921875 
L 29.9375 64.265625 
Q 27.203125 64.75 24.75 64.75 
Q 20.75 64.75 19.09375 63.03125 
Q 17.4375 61.328125 17.4375 56.640625 
L 17.4375 51.859375 
L 27.546875 51.859375 
L 27.546875 45.015625 
L 17.4375 45.015625 
L 17.4375 0 
z
" id="ArialMT-102"/>
      <path d="M -1.515625 -19.875 
L -1.515625 -13.53125 
L 56.734375 -13.53125 
L 56.734375 -19.875 
z
" id="ArialMT-95"/>
      <path d="M 4.203125 18.890625 
L 12.984375 20.0625 
Q 14.5 12.59375 18.140625 9.296875 
Q 21.78125 6 27 6 
Q 33.203125 6 37.46875 10.296875 
Q 41.75 14.59375 41.75 20.953125 
Q 41.75 27 37.796875 30.921875 
Q 33.84375 34.859375 27.734375 34.859375 
Q 25.25 34.859375 21.53125 33.890625 
L 22.515625 41.609375 
Q 23.390625 41.5 23.921875 41.5 
Q 29.546875 41.5 34.03125 44.421875 
Q 38.53125 47.359375 38.53125 53.46875 
Q 38.53125 58.296875 35.25 61.46875 
Q 31.984375 64.65625 26.8125 64.65625 
Q 21.6875 64.65625 18.265625 61.421875 
Q 14.84375 58.203125 13.875 51.765625 
L 5.078125 53.328125 
Q 6.6875 62.15625 12.390625 67.015625 
Q 18.109375 71.875 26.609375 71.875 
Q 32.46875 71.875 37.390625 69.359375 
Q 42.328125 66.84375 44.9375 62.5 
Q 47.5625 58.15625 47.5625 53.265625 
Q 47.5625 48.640625 45.0625 44.828125 
Q 42.578125 41.015625 37.703125 38.765625 
Q 44.046875 37.3125 47.5625 32.6875 
Q 51.078125 28.078125 51.078125 21.140625 
Q 51.078125 11.765625 44.234375 5.25 
Q 37.40625 -1.265625 26.953125 -1.265625 
Q 17.53125 -1.265625 11.296875 4.34375 
Q 5.078125 9.96875 4.203125 18.890625 
z
" id="ArialMT-51"/>
     </defs>
     <g style="fill:#262626;" transform="translate(544.34375 347.522875)scale(0.15 -0.15)">
      <use xlink:href="#ArialMT-102"/>
      <use x="27.783203" xlink:href="#ArialMT-95"/>
      <use x="83.398438" xlink:href="#ArialMT-51"/>
     </g>
    </g>
   </g>
   <g id="matplotlib.axis_2">
    <g id="ytick_1">
     <g id="text_7">
      <!-- 0 -->
      <g style="fill:#262626;" transform="translate(45.719063 317.988906)scale(0.1 -0.1)">
       <use xlink:href="#ArialMT-48"/>
      </g>
     </g>
    </g>
    <g id="ytick_2">
     <g id="text_8">
      <!-- 50 -->
      <defs>
       <path d="M 4.15625 18.75 
L 13.375 19.53125 
Q 14.40625 12.796875 18.140625 9.390625 
Q 21.875 6 27.15625 6 
Q 33.5 6 37.890625 10.78125 
Q 42.28125 15.578125 42.28125 23.484375 
Q 42.28125 31 38.0625 35.34375 
Q 33.84375 39.703125 27 39.703125 
Q 22.75 39.703125 19.328125 37.765625 
Q 15.921875 35.84375 13.96875 32.765625 
L 5.71875 33.84375 
L 12.640625 70.609375 
L 48.25 70.609375 
L 48.25 62.203125 
L 19.671875 62.203125 
L 15.828125 42.96875 
Q 22.265625 47.46875 29.34375 47.46875 
Q 38.71875 47.46875 45.15625 40.96875 
Q 51.609375 34.46875 51.609375 24.265625 
Q 51.609375 14.546875 45.953125 7.46875 
Q 39.0625 -1.21875 27.15625 -1.21875 
Q 17.390625 -1.21875 11.203125 4.25 
Q 5.03125 9.71875 4.15625 18.75 
z
" id="ArialMT-53"/>
      </defs>
      <g style="fill:#262626;" transform="translate(40.158125 278.738177)scale(0.1 -0.1)">
       <use xlink:href="#ArialMT-53"/>
       <use x="55.615234" xlink:href="#ArialMT-48"/>
      </g>
     </g>
    </g>
    <g id="ytick_3">
     <g id="text_9">
      <!-- 100 -->
      <defs>
       <path d="M 37.25 0 
L 28.46875 0 
L 28.46875 56 
Q 25.296875 52.984375 20.140625 49.953125 
Q 14.984375 46.921875 10.890625 45.40625 
L 10.890625 53.90625 
Q 18.265625 57.375 23.78125 62.296875 
Q 29.296875 67.234375 31.59375 71.875 
L 37.25 71.875 
z
" id="ArialMT-49"/>
      </defs>
      <g style="fill:#262626;" transform="translate(34.597188 239.487447)scale(0.1 -0.1)">
       <use xlink:href="#ArialMT-49"/>
       <use x="55.615234" xlink:href="#ArialMT-48"/>
       <use x="111.230469" xlink:href="#ArialMT-48"/>
      </g>
     </g>
    </g>
    <g id="ytick_4">
     <g id="text_10">
      <!-- 150 -->
      <g style="fill:#262626;" transform="translate(34.597188 200.236718)scale(0.1 -0.1)">
       <use xlink:href="#ArialMT-49"/>
       <use x="55.615234" xlink:href="#ArialMT-53"/>
       <use x="111.230469" xlink:href="#ArialMT-48"/>
      </g>
     </g>
    </g>
    <g id="ytick_5">
     <g id="text_11">
      <!-- 200 -->
      <g style="fill:#262626;" transform="translate(34.597188 160.985988)scale(0.1 -0.1)">
       <use xlink:href="#ArialMT-50"/>
       <use x="55.615234" xlink:href="#ArialMT-48"/>
       <use x="111.230469" xlink:href="#ArialMT-48"/>
      </g>
     </g>
    </g>
    <g id="ytick_6">
     <g id="text_12">
      <!-- 250 -->
      <g style="fill:#262626;" transform="translate(34.597188 121.735259)scale(0.1 -0.1)">
       <use xlink:href="#ArialMT-50"/>
       <use x="55.615234" xlink:href="#ArialMT-53"/>
       <use x="111.230469" xlink:href="#ArialMT-48"/>
      </g>
     </g>
    </g>
    <g id="ytick_7">
     <g id="text_13">
      <!-- 300 -->
      <g style="fill:#262626;" transform="translate(34.597188 82.484529)scale(0.1 -0.1)">
       <use xlink:href="#ArialMT-51"/>
       <use x="55.615234" xlink:href="#ArialMT-48"/>
       <use x="111.230469" xlink:href="#ArialMT-48"/>
      </g>
     </g>
    </g>
    <g id="ytick_8">
     <g id="text_14">
      <!-- 350 -->
      <g style="fill:#262626;" transform="translate(34.597188 43.233799)scale(0.1 -0.1)">
       <use xlink:href="#ArialMT-51"/>
       <use x="55.615234" xlink:href="#ArialMT-53"/>
       <use x="111.230469" xlink:href="#ArialMT-48"/>
      </g>
     </g>
    </g>
    <g id="text_15">
     <!-- Frequency -->
     <defs>
      <path d="M 8.203125 0 
L 8.203125 71.578125 
L 56.5 71.578125 
L 56.5 63.140625 
L 17.671875 63.140625 
L 17.671875 40.96875 
L 51.265625 40.96875 
L 51.265625 32.515625 
L 17.671875 32.515625 
L 17.671875 0 
z
" id="ArialMT-70"/>
      <path d="M 6.5 0 
L 6.5 51.859375 
L 14.40625 51.859375 
L 14.40625 44 
Q 17.4375 49.515625 20 51.265625 
Q 22.5625 53.03125 25.640625 53.03125 
Q 30.078125 53.03125 34.671875 50.203125 
L 31.640625 42.046875 
Q 28.421875 43.953125 25.203125 43.953125 
Q 22.3125 43.953125 20.015625 42.21875 
Q 17.71875 40.484375 16.75 37.40625 
Q 15.28125 32.71875 15.28125 27.15625 
L 15.28125 0 
z
" id="ArialMT-114"/>
      <path d="M 42.09375 16.703125 
L 51.171875 15.578125 
Q 49.03125 7.625 43.21875 3.21875 
Q 37.40625 -1.171875 28.375 -1.171875 
Q 17 -1.171875 10.328125 5.828125 
Q 3.65625 12.84375 3.65625 25.484375 
Q 3.65625 38.578125 10.390625 45.796875 
Q 17.140625 53.03125 27.875 53.03125 
Q 38.28125 53.03125 44.875 45.953125 
Q 51.46875 38.875 51.46875 26.03125 
Q 51.46875 25.25 51.421875 23.6875 
L 12.75 23.6875 
Q 13.234375 15.140625 17.578125 10.59375 
Q 21.921875 6.0625 28.421875 6.0625 
Q 33.25 6.0625 36.671875 8.59375 
Q 40.09375 11.140625 42.09375 16.703125 
z
M 13.234375 30.90625 
L 42.1875 30.90625 
Q 41.609375 37.453125 38.875 40.71875 
Q 34.671875 45.796875 27.984375 45.796875 
Q 21.921875 45.796875 17.796875 41.75 
Q 13.671875 37.703125 13.234375 30.90625 
z
" id="ArialMT-101"/>
      <path d="M 39.65625 -19.875 
L 39.65625 5.515625 
Q 37.59375 2.640625 33.90625 0.734375 
Q 30.21875 -1.171875 26.078125 -1.171875 
Q 16.84375 -1.171875 10.171875 6.203125 
Q 3.515625 13.578125 3.515625 26.421875 
Q 3.515625 34.234375 6.21875 40.421875 
Q 8.9375 46.625 14.078125 49.828125 
Q 19.234375 53.03125 25.390625 53.03125 
Q 35.015625 53.03125 40.53125 44.921875 
L 40.53125 51.859375 
L 48.4375 51.859375 
L 48.4375 -19.875 
z
M 12.546875 26.078125 
Q 12.546875 16.0625 16.75 11.0625 
Q 20.953125 6.0625 26.8125 6.0625 
Q 32.421875 6.0625 36.46875 10.8125 
Q 40.53125 15.578125 40.53125 25.296875 
Q 40.53125 35.640625 36.25 40.859375 
Q 31.984375 46.09375 26.21875 46.09375 
Q 20.515625 46.09375 16.53125 41.234375 
Q 12.546875 36.375 12.546875 26.078125 
z
" id="ArialMT-113"/>
      <path d="M 40.578125 0 
L 40.578125 7.625 
Q 34.515625 -1.171875 24.125 -1.171875 
Q 19.53125 -1.171875 15.546875 0.578125 
Q 11.578125 2.34375 9.640625 5 
Q 7.71875 7.671875 6.9375 11.53125 
Q 6.390625 14.109375 6.390625 19.734375 
L 6.390625 51.859375 
L 15.1875 51.859375 
L 15.1875 23.09375 
Q 15.1875 16.21875 15.71875 13.8125 
Q 16.546875 10.359375 19.234375 8.375 
Q 21.921875 6.390625 25.875 6.390625 
Q 29.828125 6.390625 33.296875 8.421875 
Q 36.765625 10.453125 38.203125 13.9375 
Q 39.65625 17.4375 39.65625 24.078125 
L 39.65625 51.859375 
L 48.4375 51.859375 
L 48.4375 0 
z
" id="ArialMT-117"/>
      <path d="M 6.59375 0 
L 6.59375 51.859375 
L 14.5 51.859375 
L 14.5 44.484375 
Q 20.21875 53.03125 31 53.03125 
Q 35.6875 53.03125 39.625 51.34375 
Q 43.5625 49.65625 45.515625 46.921875 
Q 47.46875 44.1875 48.25 40.4375 
Q 48.734375 37.984375 48.734375 31.890625 
L 48.734375 0 
L 39.9375 0 
L 39.9375 31.546875 
Q 39.9375 36.921875 38.90625 39.578125 
Q 37.890625 42.234375 35.28125 43.8125 
Q 32.671875 45.40625 29.15625 45.40625 
Q 23.53125 45.40625 19.453125 41.84375 
Q 15.375 38.28125 15.375 28.328125 
L 15.375 0 
z
" id="ArialMT-110"/>
      <path d="M 40.4375 19 
L 49.078125 17.875 
Q 47.65625 8.9375 41.8125 3.875 
Q 35.984375 -1.171875 27.484375 -1.171875 
Q 16.84375 -1.171875 10.375 5.78125 
Q 3.90625 12.75 3.90625 25.734375 
Q 3.90625 34.125 6.6875 40.421875 
Q 9.46875 46.734375 15.15625 49.875 
Q 20.84375 53.03125 27.546875 53.03125 
Q 35.984375 53.03125 41.359375 48.75 
Q 46.734375 44.484375 48.25 36.625 
L 39.703125 35.296875 
Q 38.484375 40.53125 35.375 43.15625 
Q 32.28125 45.796875 27.875 45.796875 
Q 21.234375 45.796875 17.078125 41.03125 
Q 12.9375 36.28125 12.9375 25.984375 
Q 12.9375 15.53125 16.9375 10.796875 
Q 20.953125 6.0625 27.390625 6.0625 
Q 32.5625 6.0625 36.03125 9.234375 
Q 39.5 12.40625 40.4375 19 
z
" id="ArialMT-99"/>
      <path d="M 6.203125 -19.96875 
L 5.21875 -11.71875 
Q 8.109375 -12.5 10.25 -12.5 
Q 13.1875 -12.5 14.9375 -11.515625 
Q 16.703125 -10.546875 17.828125 -8.796875 
Q 18.65625 -7.46875 20.515625 -2.25 
Q 20.75 -1.515625 21.296875 -0.09375 
L 1.609375 51.859375 
L 11.078125 51.859375 
L 21.875 21.828125 
Q 23.96875 16.109375 25.640625 9.8125 
Q 27.15625 15.875 29.25 21.625 
L 40.328125 51.859375 
L 49.125 51.859375 
L 29.390625 -0.875 
Q 26.21875 -9.421875 24.46875 -12.640625 
Q 22.125 -17 19.09375 -19.015625 
Q 16.0625 -21.046875 11.859375 -21.046875 
Q 9.328125 -21.046875 6.203125 -19.96875 
z
" id="ArialMT-121"/>
     </defs>
     <g style="fill:#262626;" transform="translate(17.886313 83.521516)rotate(-90)scale(0.15 -0.15)">
      <use xlink:href="#ArialMT-70"/>
      <use x="61.083984" xlink:href="#ArialMT-114"/>
      <use x="94.384766" xlink:href="#ArialMT-101"/>
      <use x="150" xlink:href="#ArialMT-113"/>
      <use x="205.615234" xlink:href="#ArialMT-117"/>
      <use x="261.230469" xlink:href="#ArialMT-101"/>
      <use x="316.845703" xlink:href="#ArialMT-110"/>
      <use x="372.460938" xlink:href="#ArialMT-99"/>
      <use x="422.460938" xlink:href="#ArialMT-121"/>
     </g>
    </g>
   </g>
   <g id="patch_3">
    <path clip-path="url(#pad06f28c3b)" d="M 80.84767 314.41 
L 89.874739 314.41 
L 89.874739 313.624985 
L 80.84767 313.624985 
z
" style="opacity:0.5;stroke:#ffffff;stroke-linejoin:miter;"/>
   </g>
   <g id="patch_4">
    <path clip-path="url(#pad06f28c3b)" d="M 89.874739 314.41 
L 98.901807 314.41 
L 98.901807 313.624985 
L 89.874739 313.624985 
z
" style="opacity:0.5;stroke:#ffffff;stroke-linejoin:miter;"/>
   </g>
   <g id="patch_5">
    <path clip-path="url(#pad06f28c3b)" d="M 98.901807 314.41 
L 107.928875 314.41 
L 107.928875 310.484927 
L 98.901807 310.484927 
z
" style="opacity:0.5;stroke:#ffffff;stroke-linejoin:miter;"/>
   </g>
   <g id="patch_6">
    <path clip-path="url(#pad06f28c3b)" d="M 107.928875 314.41 
L 116.955943 314.41 
L 116.955943 311.269942 
L 107.928875 311.269942 
z
" style="opacity:0.5;stroke:#ffffff;stroke-linejoin:miter;"/>
   </g>
   <g id="patch_7">
    <path clip-path="url(#pad06f28c3b)" d="M 116.955943 314.41 
L 125.983011 314.41 
L 125.983011 311.269942 
L 116.955943 311.269942 
z
" style="opacity:0.5;stroke:#ffffff;stroke-linejoin:miter;"/>
   </g>
   <g id="patch_8">
    <path clip-path="url(#pad06f28c3b)" d="M 125.983011 314.41 
L 135.01008 314.41 
L 135.01008 308.914898 
L 125.983011 308.914898 
z
" style="opacity:0.5;stroke:#ffffff;stroke-linejoin:miter;"/>
   </g>
   <g id="patch_9">
    <path clip-path="url(#pad06f28c3b)" d="M 135.01008 314.41 
L 144.037148 314.41 
L 144.037148 304.989825 
L 135.01008 304.989825 
z
" style="opacity:0.5;stroke:#ffffff;stroke-linejoin:miter;"/>
   </g>
   <g id="patch_10">
    <path clip-path="url(#pad06f28c3b)" d="M 144.037148 314.41 
L 153.064216 314.41 
L 153.064216 298.709708 
L 144.037148 298.709708 
z
" style="opacity:0.5;stroke:#ffffff;stroke-linejoin:miter;"/>
   </g>
   <g id="patch_11">
    <path clip-path="url(#pad06f28c3b)" d="M 153.064216 314.41 
L 162.091284 314.41 
L 162.091284 291.644577 
L 153.064216 291.644577 
z
" style="opacity:0.5;stroke:#ffffff;stroke-linejoin:miter;"/>
   </g>
   <g id="patch_12">
    <path clip-path="url(#pad06f28c3b)" d="M 162.091284 314.41 
L 171.118352 314.41 
L 171.118352 286.149475 
L 162.091284 286.149475 
z
" style="opacity:0.5;stroke:#ffffff;stroke-linejoin:miter;"/>
   </g>
   <g id="patch_13">
    <path clip-path="url(#pad06f28c3b)" d="M 171.118352 314.41 
L 180.14542 314.41 
L 180.14542 264.169066 
L 171.118352 264.169066 
z
" style="opacity:0.5;stroke:#ffffff;stroke-linejoin:miter;"/>
   </g>
   <g id="patch_14">
    <path clip-path="url(#pad06f28c3b)" d="M 180.14542 314.41 
L 189.172489 314.41 
L 189.172489 251.608833 
L 180.14542 251.608833 
z
" style="opacity:0.5;stroke:#ffffff;stroke-linejoin:miter;"/>
   </g>
   <g id="patch_15">
    <path clip-path="url(#pad06f28c3b)" d="M 189.172489 314.41 
L 198.199557 314.41 
L 198.199557 210.003059 
L 189.172489 210.003059 
z
" style="opacity:0.5;stroke:#ffffff;stroke-linejoin:miter;"/>
   </g>
   <g id="patch_16">
    <path clip-path="url(#pad06f28c3b)" d="M 198.199557 314.41 
L 207.226625 314.41 
L 207.226625 170.75233 
L 198.199557 170.75233 
z
" style="opacity:0.5;stroke:#ffffff;stroke-linejoin:miter;"/>
   </g>
   <g id="patch_17">
    <path clip-path="url(#pad06f28c3b)" d="M 207.226625 314.41 
L 216.253693 314.41 
L 216.253693 125.221484 
L 207.226625 125.221484 
z
" style="opacity:0.5;stroke:#ffffff;stroke-linejoin:miter;"/>
   </g>
   <g id="patch_18">
    <path clip-path="url(#pad06f28c3b)" d="M 216.253693 314.41 
L 225.280761 314.41 
L 225.280761 91.465856 
L 216.253693 91.465856 
z
" style="opacity:0.5;stroke:#ffffff;stroke-linejoin:miter;"/>
   </g>
   <g id="patch_19">
    <path clip-path="url(#pad06f28c3b)" d="M 225.280761 314.41 
L 234.30783 314.41 
L 234.30783 85.185739 
L 225.280761 85.185739 
z
" style="opacity:0.5;stroke:#ffffff;stroke-linejoin:miter;"/>
   </g>
   <g id="patch_20">
    <path clip-path="url(#pad06f28c3b)" d="M 234.30783 314.41 
L 243.334898 314.41 
L 243.334898 59.280258 
L 234.30783 59.280258 
z
" style="opacity:0.5;stroke:#ffffff;stroke-linejoin:miter;"/>
   </g>
   <g id="patch_21">
    <path clip-path="url(#pad06f28c3b)" d="M 243.334898 314.41 
L 252.361966 314.41 
L 252.361966 85.185739 
L 243.334898 85.185739 
z
" style="opacity:0.5;stroke:#ffffff;stroke-linejoin:miter;"/>
   </g>
   <g id="patch_22">
    <path clip-path="url(#pad06f28c3b)" d="M 252.361966 314.41 
L 261.389034 314.41 
L 261.389034 33.374776 
L 252.361966 33.374776 
z
" style="opacity:0.5;stroke:#ffffff;stroke-linejoin:miter;"/>
   </g>
   <g id="patch_23">
    <path clip-path="url(#pad06f28c3b)" d="M 261.389034 314.41 
L 270.416102 314.41 
L 270.416102 55.355185 
L 261.389034 55.355185 
z
" style="opacity:0.5;stroke:#ffffff;stroke-linejoin:miter;"/>
   </g>
   <g id="patch_24">
    <path clip-path="url(#pad06f28c3b)" d="M 270.416102 314.41 
L 279.44317 314.41 
L 279.44317 64.77536 
L 270.416102 64.77536 
z
" style="opacity:0.5;stroke:#ffffff;stroke-linejoin:miter;"/>
   </g>
   <g id="patch_25">
    <path clip-path="url(#pad06f28c3b)" d="M 279.44317 314.41 
L 288.470239 314.41 
L 288.470239 64.77536 
L 279.44317 64.77536 
z
" style="opacity:0.5;stroke:#ffffff;stroke-linejoin:miter;"/>
   </g>
   <g id="patch_26">
    <path clip-path="url(#pad06f28c3b)" d="M 288.470239 314.41 
L 297.497307 314.41 
L 297.497307 59.280258 
L 288.470239 59.280258 
z
" style="opacity:0.5;stroke:#ffffff;stroke-linejoin:miter;"/>
   </g>
   <g id="patch_27">
    <path clip-path="url(#pad06f28c3b)" d="M 297.497307 314.41 
L 306.524375 314.41 
L 306.524375 32.589762 
L 297.497307 32.589762 
z
" style="opacity:0.5;stroke:#ffffff;stroke-linejoin:miter;"/>
   </g>
   <g id="patch_28">
    <path clip-path="url(#pad06f28c3b)" d="M 306.524375 314.41 
L 315.551443 314.41 
L 315.551443 58.495243 
L 306.524375 58.495243 
z
" style="opacity:0.5;stroke:#ffffff;stroke-linejoin:miter;"/>
   </g>
   <g id="patch_29">
    <path clip-path="url(#pad06f28c3b)" d="M 315.551443 314.41 
L 324.578511 314.41 
L 324.578511 63.990346 
L 315.551443 63.990346 
z
" style="opacity:0.5;stroke:#ffffff;stroke-linejoin:miter;"/>
   </g>
   <g id="patch_30">
    <path clip-path="url(#pad06f28c3b)" d="M 324.578511 314.41 
L 333.60558 314.41 
L 333.60558 85.970754 
L 324.578511 85.970754 
z
" style="opacity:0.5;stroke:#ffffff;stroke-linejoin:miter;"/>
   </g>
   <g id="patch_31">
    <path clip-path="url(#pad06f28c3b)" d="M 333.60558 314.41 
L 342.632648 314.41 
L 342.632648 67.915418 
L 333.60558 67.915418 
z
" style="opacity:0.5;stroke:#ffffff;stroke-linejoin:miter;"/>
   </g>
   <g id="patch_32">
    <path clip-path="url(#pad06f28c3b)" d="M 342.632648 314.41 
L 351.659716 314.41 
L 351.659716 46.720025 
L 342.632648 46.720025 
z
" style="opacity:0.5;stroke:#ffffff;stroke-linejoin:miter;"/>
   </g>
   <g id="patch_33">
    <path clip-path="url(#pad06f28c3b)" d="M 351.659716 314.41 
L 360.686784 314.41 
L 360.686784 42.009937 
L 351.659716 42.009937 
z
" style="opacity:0.5;stroke:#ffffff;stroke-linejoin:miter;"/>
   </g>
   <g id="patch_34">
    <path clip-path="url(#pad06f28c3b)" d="M 360.686784 314.41 
L 369.713852 314.41 
L 369.713852 36.514835 
L 360.686784 36.514835 
z
" style="opacity:0.5;stroke:#ffffff;stroke-linejoin:miter;"/>
   </g>
   <g id="patch_35">
    <path clip-path="url(#pad06f28c3b)" d="M 369.713852 314.41 
L 378.74092 314.41 
L 378.74092 74.195535 
L 369.713852 74.195535 
z
" style="opacity:0.5;stroke:#ffffff;stroke-linejoin:miter;"/>
   </g>
   <g id="patch_36">
    <path clip-path="url(#pad06f28c3b)" d="M 378.74092 314.41 
L 387.767989 314.41 
L 387.767989 63.205331 
L 378.74092 63.205331 
z
" style="opacity:0.5;stroke:#ffffff;stroke-linejoin:miter;"/>
   </g>
   <g id="patch_37">
    <path clip-path="url(#pad06f28c3b)" d="M 387.767989 314.41 
L 396.795057 314.41 
L 396.795057 60.850287 
L 387.767989 60.850287 
z
" style="opacity:0.5;stroke:#ffffff;stroke-linejoin:miter;"/>
   </g>
   <g id="patch_38">
    <path clip-path="url(#pad06f28c3b)" d="M 396.795057 314.41 
L 405.822125 314.41 
L 405.822125 78.120608 
L 396.795057 78.120608 
z
" style="opacity:0.5;stroke:#ffffff;stroke-linejoin:miter;"/>
   </g>
   <g id="patch_39">
    <path clip-path="url(#pad06f28c3b)" d="M 405.822125 314.41 
L 414.849193 314.41 
L 414.849193 52.215127 
L 405.822125 52.215127 
z
" style="opacity:0.5;stroke:#ffffff;stroke-linejoin:miter;"/>
   </g>
   <g id="patch_40">
    <path clip-path="url(#pad06f28c3b)" d="M 414.849193 314.41 
L 423.876261 314.41 
L 423.876261 69.485448 
L 414.849193 69.485448 
z
" style="opacity:0.5;stroke:#ffffff;stroke-linejoin:miter;"/>
   </g>
   <g id="patch_41">
    <path clip-path="url(#pad06f28c3b)" d="M 423.876261 314.41 
L 432.90333 314.41 
L 432.90333 80.475652 
L 423.876261 80.475652 
z
" style="opacity:0.5;stroke:#ffffff;stroke-linejoin:miter;"/>
   </g>
   <g id="patch_42">
    <path clip-path="url(#pad06f28c3b)" d="M 432.90333 314.41 
L 441.930398 314.41 
L 441.930398 98.530988 
L 432.90333 98.530988 
z
" style="opacity:0.5;stroke:#ffffff;stroke-linejoin:miter;"/>
   </g>
   <g id="patch_43">
    <path clip-path="url(#pad06f28c3b)" d="M 441.930398 314.41 
L 450.957466 314.41 
L 450.957466 117.371338 
L 441.930398 117.371338 
z
" style="opacity:0.5;stroke:#ffffff;stroke-linejoin:miter;"/>
   </g>
   <g id="patch_44">
    <path clip-path="url(#pad06f28c3b)" d="M 450.957466 314.41 
L 459.984534 314.41 
L 459.984534 124.436469 
L 450.957466 124.436469 
z
" style="opacity:0.5;stroke:#ffffff;stroke-linejoin:miter;"/>
   </g>
   <g id="patch_45">
    <path clip-path="url(#pad06f28c3b)" d="M 459.984534 314.41 
L 469.011602 314.41 
L 469.011602 147.201892 
L 459.984534 147.201892 
z
" style="opacity:0.5;stroke:#ffffff;stroke-linejoin:miter;"/>
   </g>
   <g id="patch_46">
    <path clip-path="url(#pad06f28c3b)" d="M 469.011602 314.41 
L 478.03867 314.41 
L 478.03867 174.677403 
L 469.011602 174.677403 
z
" style="opacity:0.5;stroke:#ffffff;stroke-linejoin:miter;"/>
   </g>
   <g id="patch_47">
    <path clip-path="url(#pad06f28c3b)" d="M 478.03867 314.41 
L 487.065739 314.41 
L 487.065739 204.507957 
L 478.03867 204.507957 
z
" style="opacity:0.5;stroke:#ffffff;stroke-linejoin:miter;"/>
   </g>
   <g id="patch_48">
    <path clip-path="url(#pad06f28c3b)" d="M 487.065739 314.41 
L 496.092807 314.41 
L 496.092807 233.553497 
L 487.065739 233.553497 
z
" style="opacity:0.5;stroke:#ffffff;stroke-linejoin:miter;"/>
   </g>
   <g id="patch_49">
    <path clip-path="url(#pad06f28c3b)" d="M 496.092807 314.41 
L 505.119875 314.41 
L 505.119875 275.15927 
L 496.092807 275.15927 
z
" style="opacity:0.5;stroke:#ffffff;stroke-linejoin:miter;"/>
   </g>
   <g id="patch_50">
    <path clip-path="url(#pad06f28c3b)" d="M 505.119875 314.41 
L 514.146943 314.41 
L 514.146943 291.644577 
L 505.119875 291.644577 
z
" style="opacity:0.5;stroke:#ffffff;stroke-linejoin:miter;"/>
   </g>
   <g id="patch_51">
    <path clip-path="url(#pad06f28c3b)" d="M 514.146943 314.41 
L 523.174011 314.41 
L 523.174011 308.129883 
L 514.146943 308.129883 
z
" style="opacity:0.5;stroke:#ffffff;stroke-linejoin:miter;"/>
   </g>
   <g id="patch_52">
    <path clip-path="url(#pad06f28c3b)" d="M 523.174011 314.41 
L 532.20108 314.41 
L 532.20108 311.269942 
L 523.174011 311.269942 
z
" style="opacity:0.5;stroke:#ffffff;stroke-linejoin:miter;"/>
   </g>
   <g id="patch_53">
    <path d="M 58.28 314.41 
L 58.28 18.49875 
" style="fill:none;stroke:#262626;stroke-linecap:square;stroke-linejoin:miter;stroke-width:0.8;"/>
   </g>
   <g id="patch_54">
    <path d="M 58.28 314.41 
L 554.76875 314.41 
" style="fill:none;stroke:#262626;stroke-linecap:square;stroke-linejoin:miter;stroke-width:0.8;"/>
   </g>
  </g>
 </g>
 <defs>
  <clipPath id="pad06f28c3b">
   <rect height="295.91125" width="496.48875" x="58.28" y="18.49875"/>
  </clipPath>
 </defs>
</svg>
