<?xml version="1.0" encoding="utf-8" standalone="no"?>
<!DOCTYPE svg PUBLIC "-//W3C//DTD SVG 1.1//EN"
  "http://www.w3.org/Graphics/SVG/1.1/DTD/svg11.dtd">
<!-- Created with matplotlib (https://matplotlib.org/) -->
<svg height="432pt" version="1.1" viewBox="0 0 648 432" width="648pt" xmlns="http://www.w3.org/2000/svg" xmlns:xlink="http://www.w3.org/1999/xlink">
 <defs>
  <style type="text/css">
*{stroke-linecap:butt;stroke-linejoin:round;}
  </style>
 </defs>
 <g id="figure_1">
  <g id="patch_1">
   <path d="M 0 432 
L 648 432 
L 648 0 
L 0 0 
z
" style="fill:#ffffff;"/>
  </g>
  <g id="axes_1">
   <g id="patch_2">
    <path d="M 77.683606 382.452 
L 580.074735 382.452 
L 580.074735 38.165761 
L 77.683606 38.165761 
z
" style="fill:#ffffff;"/>
   </g>
   <g id="matplotlib.axis_1">
    <g id="xtick_1">
     <g id="line2d_1">
      <path clip-path="url(#pec9099d0ee)" d="M 109.074332 382.452 
L 109.074332 38.165761 
" style="fill:none;stroke:#dcdcdc;stroke-linecap:round;stroke-width:0.8;"/>
     </g>
     <g id="text_1">
      <!-- −0.3 -->
      <defs>
       <path d="M 52.828125 31.203125 
L 5.5625 31.203125 
L 5.5625 39.40625 
L 52.828125 39.40625 
z
" id="ArialMT-8722"/>
       <path d="M 4.15625 35.296875 
Q 4.15625 48 6.765625 55.734375 
Q 9.375 63.484375 14.515625 67.671875 
Q 19.671875 71.875 27.484375 71.875 
Q 33.25 71.875 37.59375 69.546875 
Q 41.9375 67.234375 44.765625 62.859375 
Q 47.609375 58.5 49.21875 52.21875 
Q 50.828125 45.953125 50.828125 35.296875 
Q 50.828125 22.703125 48.234375 14.96875 
Q 45.65625 7.234375 40.5 3 
Q 35.359375 -1.21875 27.484375 -1.21875 
Q 17.140625 -1.21875 11.234375 6.203125 
Q 4.15625 15.140625 4.15625 35.296875 
z
M 13.1875 35.296875 
Q 13.1875 17.671875 17.3125 11.828125 
Q 21.4375 6 27.484375 6 
Q 33.546875 6 37.671875 11.859375 
Q 41.796875 17.71875 41.796875 35.296875 
Q 41.796875 52.984375 37.671875 58.78125 
Q 33.546875 64.59375 27.390625 64.59375 
Q 21.34375 64.59375 17.71875 59.46875 
Q 13.1875 52.9375 13.1875 35.296875 
z
" id="ArialMT-48"/>
       <path d="M 9.078125 0 
L 9.078125 10.015625 
L 19.09375 10.015625 
L 19.09375 0 
z
" id="ArialMT-46"/>
       <path d="M 4.203125 18.890625 
L 12.984375 20.0625 
Q 14.5 12.59375 18.140625 9.296875 
Q 21.78125 6 27 6 
Q 33.203125 6 37.46875 10.296875 
Q 41.75 14.59375 41.75 20.953125 
Q 41.75 27 37.796875 30.921875 
Q 33.84375 34.859375 27.734375 34.859375 
Q 25.25 34.859375 21.53125 33.890625 
L 22.515625 41.609375 
Q 23.390625 41.5 23.921875 41.5 
Q 29.546875 41.5 34.03125 44.421875 
Q 38.53125 47.359375 38.53125 53.46875 
Q 38.53125 58.296875 35.25 61.46875 
Q 31.984375 64.65625 26.8125 64.65625 
Q 21.6875 64.65625 18.265625 61.421875 
Q 14.84375 58.203125 13.875 51.765625 
L 5.078125 53.328125 
Q 6.6875 62.15625 12.390625 67.015625 
Q 18.109375 71.875 26.609375 71.875 
Q 32.46875 71.875 37.390625 69.359375 
Q 42.328125 66.84375 44.9375 62.5 
Q 47.5625 58.15625 47.5625 53.265625 
Q 47.5625 48.640625 45.0625 44.828125 
Q 42.578125 41.015625 37.703125 38.765625 
Q 44.046875 37.3125 47.5625 32.6875 
Q 51.078125 28.078125 51.078125 21.140625 
Q 51.078125 11.765625 44.234375 5.25 
Q 37.40625 -1.265625 26.953125 -1.265625 
Q 17.53125 -1.265625 11.296875 4.34375 
Q 5.078125 9.96875 4.203125 18.890625 
z
" id="ArialMT-51"/>
      </defs>
      <g style="fill:#262626;" transform="translate(99.20402 396.609812)scale(0.1 -0.1)">
       <use xlink:href="#ArialMT-8722"/>
       <use x="58.398438" xlink:href="#ArialMT-48"/>
       <use x="114.013672" xlink:href="#ArialMT-46"/>
       <use x="141.796875" xlink:href="#ArialMT-51"/>
      </g>
     </g>
    </g>
    <g id="xtick_2">
     <g id="line2d_2">
      <path clip-path="url(#pec9099d0ee)" d="M 211.488736 382.452 
L 211.488736 38.165761 
" style="fill:none;stroke:#dcdcdc;stroke-linecap:round;stroke-width:0.8;"/>
     </g>
     <g id="text_2">
      <!-- −0.2 -->
      <defs>
       <path d="M 50.34375 8.453125 
L 50.34375 0 
L 3.03125 0 
Q 2.9375 3.171875 4.046875 6.109375 
Q 5.859375 10.9375 9.828125 15.625 
Q 13.8125 20.3125 21.34375 26.46875 
Q 33.015625 36.03125 37.109375 41.625 
Q 41.21875 47.21875 41.21875 52.203125 
Q 41.21875 57.421875 37.46875 61 
Q 33.734375 64.59375 27.734375 64.59375 
Q 21.390625 64.59375 17.578125 60.78125 
Q 13.765625 56.984375 13.71875 50.25 
L 4.6875 51.171875 
Q 5.609375 61.28125 11.65625 66.578125 
Q 17.71875 71.875 27.9375 71.875 
Q 38.234375 71.875 44.234375 66.15625 
Q 50.25 60.453125 50.25 52 
Q 50.25 47.703125 48.484375 43.546875 
Q 46.734375 39.40625 42.65625 34.8125 
Q 38.578125 30.21875 29.109375 22.21875 
Q 21.1875 15.578125 18.9375 13.203125 
Q 16.703125 10.84375 15.234375 8.453125 
z
" id="ArialMT-50"/>
      </defs>
      <g style="fill:#262626;" transform="translate(201.618423 396.609812)scale(0.1 -0.1)">
       <use xlink:href="#ArialMT-8722"/>
       <use x="58.398438" xlink:href="#ArialMT-48"/>
       <use x="114.013672" xlink:href="#ArialMT-46"/>
       <use x="141.796875" xlink:href="#ArialMT-50"/>
      </g>
     </g>
    </g>
    <g id="xtick_3">
     <g id="line2d_3">
      <path clip-path="url(#pec9099d0ee)" d="M 313.903139 382.452 
L 313.903139 38.165761 
" style="fill:none;stroke:#dcdcdc;stroke-linecap:round;stroke-width:0.8;"/>
     </g>
     <g id="text_3">
      <!-- −0.1 -->
      <defs>
       <path d="M 37.25 0 
L 28.46875 0 
L 28.46875 56 
Q 25.296875 52.984375 20.140625 49.953125 
Q 14.984375 46.921875 10.890625 45.40625 
L 10.890625 53.90625 
Q 18.265625 57.375 23.78125 62.296875 
Q 29.296875 67.234375 31.59375 71.875 
L 37.25 71.875 
z
" id="ArialMT-49"/>
      </defs>
      <g style="fill:#262626;" transform="translate(304.032826 396.609812)scale(0.1 -0.1)">
       <use xlink:href="#ArialMT-8722"/>
       <use x="58.398438" xlink:href="#ArialMT-48"/>
       <use x="114.013672" xlink:href="#ArialMT-46"/>
       <use x="141.796875" xlink:href="#ArialMT-49"/>
      </g>
     </g>
    </g>
    <g id="xtick_4">
     <g id="line2d_4">
      <path clip-path="url(#pec9099d0ee)" d="M 416.317542 382.452 
L 416.317542 38.165761 
" style="fill:none;stroke:#dcdcdc;stroke-linecap:round;stroke-width:0.8;"/>
     </g>
     <g id="text_4">
      <!-- 0.0 -->
      <g style="fill:#262626;" transform="translate(409.367542 396.609812)scale(0.1 -0.1)">
       <use xlink:href="#ArialMT-48"/>
       <use x="55.615234" xlink:href="#ArialMT-46"/>
       <use x="83.398438" xlink:href="#ArialMT-48"/>
      </g>
     </g>
    </g>
    <g id="xtick_5">
     <g id="line2d_5">
      <path clip-path="url(#pec9099d0ee)" d="M 518.731945 382.452 
L 518.731945 38.165761 
" style="fill:none;stroke:#dcdcdc;stroke-linecap:round;stroke-width:0.8;"/>
     </g>
     <g id="text_5">
      <!-- 0.1 -->
      <g style="fill:#262626;" transform="translate(511.781945 396.609812)scale(0.1 -0.1)">
       <use xlink:href="#ArialMT-48"/>
       <use x="55.615234" xlink:href="#ArialMT-46"/>
       <use x="83.398438" xlink:href="#ArialMT-49"/>
      </g>
     </g>
    </g>
    <g id="text_6">
     <!-- PC 1 -->
     <defs>
      <path d="M 7.71875 0 
L 7.71875 71.578125 
L 34.71875 71.578125 
Q 41.84375 71.578125 45.609375 70.90625 
Q 50.875 70.015625 54.4375 67.546875 
Q 58.015625 65.09375 60.1875 60.640625 
Q 62.359375 56.203125 62.359375 50.875 
Q 62.359375 41.75 56.546875 35.421875 
Q 50.734375 29.109375 35.546875 29.109375 
L 17.1875 29.109375 
L 17.1875 0 
z
M 17.1875 37.546875 
L 35.6875 37.546875 
Q 44.875 37.546875 48.734375 40.96875 
Q 52.59375 44.390625 52.59375 50.59375 
Q 52.59375 55.078125 50.3125 58.265625 
Q 48.046875 61.46875 44.34375 62.5 
Q 41.9375 63.140625 35.5 63.140625 
L 17.1875 63.140625 
z
" id="ArialMT-80"/>
      <path d="M 58.796875 25.09375 
L 68.265625 22.703125 
Q 65.28125 11.03125 57.546875 4.90625 
Q 49.8125 -1.21875 38.625 -1.21875 
Q 27.046875 -1.21875 19.796875 3.484375 
Q 12.546875 8.203125 8.765625 17.140625 
Q 4.984375 26.078125 4.984375 36.328125 
Q 4.984375 47.515625 9.25 55.828125 
Q 13.53125 64.15625 21.40625 68.46875 
Q 29.296875 72.796875 38.765625 72.796875 
Q 49.515625 72.796875 56.828125 67.328125 
Q 64.15625 61.859375 67.046875 51.953125 
L 57.71875 49.75 
Q 55.21875 57.5625 50.484375 61.125 
Q 45.75 64.703125 38.578125 64.703125 
Q 30.328125 64.703125 24.78125 60.734375 
Q 19.234375 56.78125 16.984375 50.109375 
Q 14.75 43.453125 14.75 36.375 
Q 14.75 27.25 17.40625 20.4375 
Q 20.0625 13.625 25.671875 10.25 
Q 31.296875 6.890625 37.84375 6.890625 
Q 45.796875 6.890625 51.3125 11.46875 
Q 56.84375 16.0625 58.796875 25.09375 
z
" id="ArialMT-67"/>
      <path id="ArialMT-32"/>
     </defs>
     <g style="fill:#262626;" transform="translate(563.401298 419.010187)scale(0.15 -0.15)">
      <use xlink:href="#ArialMT-80"/>
      <use x="66.699219" xlink:href="#ArialMT-67"/>
      <use x="138.916016" xlink:href="#ArialMT-32"/>
      <use x="166.699219" xlink:href="#ArialMT-49"/>
     </g>
    </g>
   </g>
   <g id="matplotlib.axis_2">
    <g id="ytick_1">
     <g id="line2d_6">
      <path clip-path="url(#pec9099d0ee)" d="M 77.683606 372.966781 
L 580.074735 372.966781 
" style="fill:none;stroke:#dcdcdc;stroke-linecap:round;stroke-width:0.8;"/>
     </g>
     <g id="text_7">
      <!-- −0.05 -->
      <defs>
       <path d="M 4.15625 18.75 
L 13.375 19.53125 
Q 14.40625 12.796875 18.140625 9.390625 
Q 21.875 6 27.15625 6 
Q 33.5 6 37.890625 10.78125 
Q 42.28125 15.578125 42.28125 23.484375 
Q 42.28125 31 38.0625 35.34375 
Q 33.84375 39.703125 27 39.703125 
Q 22.75 39.703125 19.328125 37.765625 
Q 15.921875 35.84375 13.96875 32.765625 
L 5.71875 33.84375 
L 12.640625 70.609375 
L 48.25 70.609375 
L 48.25 62.203125 
L 19.671875 62.203125 
L 15.828125 42.96875 
Q 22.265625 47.46875 29.34375 47.46875 
Q 38.71875 47.46875 45.15625 40.96875 
Q 51.609375 34.46875 51.609375 24.265625 
Q 51.609375 14.546875 45.953125 7.46875 
Q 39.0625 -1.21875 27.15625 -1.21875 
Q 17.390625 -1.21875 11.203125 4.25 
Q 5.03125 9.71875 4.15625 18.75 
z
" id="ArialMT-53"/>
      </defs>
      <g style="fill:#262626;" transform="translate(45.382044 376.545687)scale(0.1 -0.1)">
       <use xlink:href="#ArialMT-8722"/>
       <use x="58.398438" xlink:href="#ArialMT-48"/>
       <use x="114.013672" xlink:href="#ArialMT-46"/>
       <use x="141.796875" xlink:href="#ArialMT-48"/>
       <use x="197.412109" xlink:href="#ArialMT-53"/>
      </g>
     </g>
    </g>
    <g id="ytick_2">
     <g id="line2d_7">
      <path clip-path="url(#pec9099d0ee)" d="M 77.683606 333.458458 
L 580.074735 333.458458 
" style="fill:none;stroke:#dcdcdc;stroke-linecap:round;stroke-width:0.8;"/>
     </g>
     <g id="text_8">
      <!-- 0.00 -->
      <g style="fill:#262626;" transform="translate(51.222669 337.037364)scale(0.1 -0.1)">
       <use xlink:href="#ArialMT-48"/>
       <use x="55.615234" xlink:href="#ArialMT-46"/>
       <use x="83.398438" xlink:href="#ArialMT-48"/>
       <use x="139.013672" xlink:href="#ArialMT-48"/>
      </g>
     </g>
    </g>
    <g id="ytick_3">
     <g id="line2d_8">
      <path clip-path="url(#pec9099d0ee)" d="M 77.683606 293.950135 
L 580.074735 293.950135 
" style="fill:none;stroke:#dcdcdc;stroke-linecap:round;stroke-width:0.8;"/>
     </g>
     <g id="text_9">
      <!-- 0.05 -->
      <g style="fill:#262626;" transform="translate(51.222669 297.529041)scale(0.1 -0.1)">
       <use xlink:href="#ArialMT-48"/>
       <use x="55.615234" xlink:href="#ArialMT-46"/>
       <use x="83.398438" xlink:href="#ArialMT-48"/>
       <use x="139.013672" xlink:href="#ArialMT-53"/>
      </g>
     </g>
    </g>
    <g id="ytick_4">
     <g id="line2d_9">
      <path clip-path="url(#pec9099d0ee)" d="M 77.683606 254.441812 
L 580.074735 254.441812 
" style="fill:none;stroke:#dcdcdc;stroke-linecap:round;stroke-width:0.8;"/>
     </g>
     <g id="text_10">
      <!-- 0.10 -->
      <g style="fill:#262626;" transform="translate(51.222669 258.020718)scale(0.1 -0.1)">
       <use xlink:href="#ArialMT-48"/>
       <use x="55.615234" xlink:href="#ArialMT-46"/>
       <use x="83.398438" xlink:href="#ArialMT-49"/>
       <use x="139.013672" xlink:href="#ArialMT-48"/>
      </g>
     </g>
    </g>
    <g id="ytick_5">
     <g id="line2d_10">
      <path clip-path="url(#pec9099d0ee)" d="M 77.683606 214.933489 
L 580.074735 214.933489 
" style="fill:none;stroke:#dcdcdc;stroke-linecap:round;stroke-width:0.8;"/>
     </g>
     <g id="text_11">
      <!-- 0.15 -->
      <g style="fill:#262626;" transform="translate(51.222669 218.512395)scale(0.1 -0.1)">
       <use xlink:href="#ArialMT-48"/>
       <use x="55.615234" xlink:href="#ArialMT-46"/>
       <use x="83.398438" xlink:href="#ArialMT-49"/>
       <use x="139.013672" xlink:href="#ArialMT-53"/>
      </g>
     </g>
    </g>
    <g id="ytick_6">
     <g id="line2d_11">
      <path clip-path="url(#pec9099d0ee)" d="M 77.683606 175.425166 
L 580.074735 175.425166 
" style="fill:none;stroke:#dcdcdc;stroke-linecap:round;stroke-width:0.8;"/>
     </g>
     <g id="text_12">
      <!-- 0.20 -->
      <g style="fill:#262626;" transform="translate(51.222669 179.004072)scale(0.1 -0.1)">
       <use xlink:href="#ArialMT-48"/>
       <use x="55.615234" xlink:href="#ArialMT-46"/>
       <use x="83.398438" xlink:href="#ArialMT-50"/>
       <use x="139.013672" xlink:href="#ArialMT-48"/>
      </g>
     </g>
    </g>
    <g id="ytick_7">
     <g id="line2d_12">
      <path clip-path="url(#pec9099d0ee)" d="M 77.683606 135.916843 
L 580.074735 135.916843 
" style="fill:none;stroke:#dcdcdc;stroke-linecap:round;stroke-width:0.8;"/>
     </g>
     <g id="text_13">
      <!-- 0.25 -->
      <g style="fill:#262626;" transform="translate(51.222669 139.495749)scale(0.1 -0.1)">
       <use xlink:href="#ArialMT-48"/>
       <use x="55.615234" xlink:href="#ArialMT-46"/>
       <use x="83.398438" xlink:href="#ArialMT-50"/>
       <use x="139.013672" xlink:href="#ArialMT-53"/>
      </g>
     </g>
    </g>
    <g id="ytick_8">
     <g id="line2d_13">
      <path clip-path="url(#pec9099d0ee)" d="M 77.683606 96.40852 
L 580.074735 96.40852 
" style="fill:none;stroke:#dcdcdc;stroke-linecap:round;stroke-width:0.8;"/>
     </g>
     <g id="text_14">
      <!-- 0.30 -->
      <g style="fill:#262626;" transform="translate(51.222669 99.987426)scale(0.1 -0.1)">
       <use xlink:href="#ArialMT-48"/>
       <use x="55.615234" xlink:href="#ArialMT-46"/>
       <use x="83.398438" xlink:href="#ArialMT-51"/>
       <use x="139.013672" xlink:href="#ArialMT-48"/>
      </g>
     </g>
    </g>
    <g id="ytick_9">
     <g id="line2d_14">
      <path clip-path="url(#pec9099d0ee)" d="M 77.683606 56.900197 
L 580.074735 56.900197 
" style="fill:none;stroke:#dcdcdc;stroke-linecap:round;stroke-width:0.8;"/>
     </g>
     <g id="text_15">
      <!-- 0.35 -->
      <g style="fill:#262626;" transform="translate(51.222669 60.479103)scale(0.1 -0.1)">
       <use xlink:href="#ArialMT-48"/>
       <use x="55.615234" xlink:href="#ArialMT-46"/>
       <use x="83.398438" xlink:href="#ArialMT-51"/>
       <use x="139.013672" xlink:href="#ArialMT-53"/>
      </g>
     </g>
    </g>
    <g id="text_16">
     <!-- PC 2 -->
     <g style="fill:#262626;" transform="translate(37.023022 54.839199)rotate(-90)scale(0.15 -0.15)">
      <use xlink:href="#ArialMT-80"/>
      <use x="66.699219" xlink:href="#ArialMT-67"/>
      <use x="138.916016" xlink:href="#ArialMT-32"/>
      <use x="166.699219" xlink:href="#ArialMT-50"/>
     </g>
    </g>
   </g>
   <g id="PathCollection_1">
    <defs>
     <path d="M 0 3 
C 0.795609 3 1.55874 2.683901 2.12132 2.12132 
C 2.683901 1.55874 3 0.795609 3 0 
C 3 -0.795609 2.683901 -1.55874 2.12132 -2.12132 
C 1.55874 -2.683901 0.795609 -3 0 -3 
C -0.795609 -3 -1.55874 -2.683901 -2.12132 -2.12132 
C -2.683901 -1.55874 -3 -0.795609 -3 0 
C -3 0.795609 -2.683901 1.55874 -2.12132 2.12132 
C -1.55874 2.683901 -0.795609 3 0 3 
z
" id="ma84a709584" style="stroke:#696969;"/>
    </defs>
    <g clip-path="url(#pec9099d0ee)">
     <use style="fill:#696969;stroke:#696969;" x="158.228031" xlink:href="#ma84a709584" y="285.386191"/>
     <use style="fill:#696969;stroke:#696969;" x="421.297144" xlink:href="#ma84a709584" y="351.790791"/>
     <use style="fill:#696969;stroke:#696969;" x="460.246564" xlink:href="#ma84a709584" y="307.692807"/>
     <use style="fill:#696969;stroke:#696969;" x="503.937437" xlink:href="#ma84a709584" y="297.173477"/>
     <use style="fill:#696969;stroke:#696969;" x="176.573202" xlink:href="#ma84a709584" y="302.133215"/>
     <use style="fill:#696969;stroke:#696969;" x="174.027989" xlink:href="#ma84a709584" y="282.685863"/>
     <use style="fill:#696969;stroke:#696969;" x="408.580445" xlink:href="#ma84a709584" y="332.05288"/>
     <use style="fill:#696969;stroke:#696969;" x="174.176521" xlink:href="#ma84a709584" y="310.423227"/>
     <use style="fill:#696969;stroke:#696969;" x="528.316729" xlink:href="#ma84a709584" y="59.47466"/>
     <use style="fill:#696969;stroke:#696969;" x="431.517742" xlink:href="#ma84a709584" y="334.246983"/>
     <use style="fill:#696969;stroke:#696969;" x="420.408447" xlink:href="#ma84a709584" y="310.057388"/>
     <use style="fill:#696969;stroke:#696969;" x="555.37072" xlink:href="#ma84a709584" y="55.787649"/>
     <use style="fill:#696969;stroke:#696969;" x="407.137965" xlink:href="#ma84a709584" y="366.089993"/>
     <use style="fill:#696969;stroke:#696969;" x="416.802867" xlink:href="#ma84a709584" y="334.519875"/>
     <use style="fill:#696969;stroke:#696969;" x="360.244952" xlink:href="#ma84a709584" y="249.717414"/>
     <use style="fill:#696969;stroke:#696969;" x="494.608595" xlink:href="#ma84a709584" y="279.04775"/>
     <use style="fill:#696969;stroke:#696969;" x="553.534013" xlink:href="#ma84a709584" y="56.212358"/>
     <use style="fill:#696969;stroke:#696969;" x="393.730152" xlink:href="#ma84a709584" y="364.404058"/>
     <use style="fill:#696969;stroke:#696969;" x="416.677381" xlink:href="#ma84a709584" y="332.653838"/>
     <use style="fill:#696969;stroke:#696969;" x="109.476887" xlink:href="#ma84a709584" y="237.016108"/>
     <use style="fill:#696969;stroke:#696969;" x="391.572817" xlink:href="#ma84a709584" y="325.348186"/>
     <use style="fill:#696969;stroke:#696969;" x="465.632393" xlink:href="#ma84a709584" y="354.363214"/>
     <use style="fill:#696969;stroke:#696969;" x="463.865044" xlink:href="#ma84a709584" y="349.135566"/>
     <use style="fill:#696969;stroke:#696969;" x="139.286082" xlink:href="#ma84a709584" y="245.954658"/>
     <use style="fill:#696969;stroke:#696969;" x="169.225368" xlink:href="#ma84a709584" y="255.005946"/>
     <use style="fill:#696969;stroke:#696969;" x="406.725385" xlink:href="#ma84a709584" y="326.704677"/>
     <use style="fill:#696969;stroke:#696969;" x="114.937337" xlink:href="#ma84a709584" y="236.220629"/>
     <use style="fill:#696969;stroke:#696969;" x="528.062495" xlink:href="#ma84a709584" y="59.449178"/>
     <use style="fill:#696969;stroke:#696969;" x="431.568657" xlink:href="#ma84a709584" y="334.218545"/>
     <use style="fill:#696969;stroke:#696969;" x="124.809588" xlink:href="#ma84a709584" y="238.521366"/>
     <use style="fill:#696969;stroke:#696969;" x="459.315337" xlink:href="#ma84a709584" y="353.049266"/>
     <use style="fill:#696969;stroke:#696969;" x="496.800425" xlink:href="#ma84a709584" y="350.507683"/>
     <use style="fill:#696969;stroke:#696969;" x="131.924116" xlink:href="#ma84a709584" y="247.031892"/>
     <use style="fill:#696969;stroke:#696969;" x="151.058583" xlink:href="#ma84a709584" y="245.793127"/>
     <use style="fill:#696969;stroke:#696969;" x="409.314111" xlink:href="#ma84a709584" y="325.096881"/>
     <use style="fill:#696969;stroke:#696969;" x="101.131361" xlink:href="#ma84a709584" y="233.379337"/>
     <use style="fill:#696969;stroke:#696969;" x="528.073336" xlink:href="#ma84a709584" y="59.437464"/>
     <use style="fill:#696969;stroke:#696969;" x="431.582167" xlink:href="#ma84a709584" y="334.243216"/>
     <use style="fill:#696969;stroke:#696969;" x="556.62698" xlink:href="#ma84a709584" y="54.527768"/>
     <use style="fill:#696969;stroke:#696969;" x="556.62698" xlink:href="#ma84a709584" y="54.527768"/>
    </g>
   </g>
   <g id="patch_3">
    <path clip-path="url(#pec9099d0ee)" d="M 153.748084 284.551747 
L 158.588542 284.23404 
L 158.348201 285.002141 
L 416.437712 333.074408 
L 416.197371 333.842508 
L 158.10786 285.770241 
L 157.86752 286.538341 
z
" style="fill:#696969;opacity:0.75;stroke:#696969;stroke-linejoin:miter;"/>
   </g>
   <g id="patch_4">
    <path clip-path="url(#pec9099d0ee)" d="M 422.242454 355.270936 
L 419.793592 352.033905 
L 420.79596 351.871829 
L 415.816358 333.539496 
L 416.818726 333.37742 
L 421.798328 351.709753 
L 422.800697 351.547676 
z
" style="fill:#696969;opacity:0.75;stroke:#696969;stroke-linejoin:miter;"/>
   </g>
   <g id="patch_5">
    <path clip-path="url(#pec9099d0ee)" d="M 463.915429 305.540911 
L 461.176264 308.636364 
L 460.556464 308.007326 
L 416.627441 333.772977 
L 416.007642 333.143939 
L 459.936665 307.378288 
L 459.316865 306.74925 
z
" style="fill:#696969;opacity:0.75;stroke:#696969;stroke-linejoin:miter;"/>
   </g>
   <g id="patch_6">
    <path clip-path="url(#pec9099d0ee)" d="M 507.998128 295.491872 
L 504.663953 298.217803 
L 504.179609 297.521586 
L 416.559714 333.806567 
L 416.07537 333.110349 
L 503.695265 296.825368 
L 503.210921 296.129151 
z
" style="fill:#696969;opacity:0.75;stroke:#696969;stroke-linejoin:miter;"/>
   </g>
   <g id="patch_7">
    <path clip-path="url(#pec9099d0ee)" d="M 172.029253 301.539498 
L 176.82971 300.964605 
L 176.658705 301.743679 
L 416.403044 333.068921 
L 416.232039 333.847995 
L 176.487699 302.522752 
L 176.316694 303.301826 
z
" style="fill:#696969;opacity:0.75;stroke:#696969;stroke-linejoin:miter;"/>
   </g>
   <g id="patch_8">
    <path clip-path="url(#pec9099d0ee)" d="M 169.580466 281.753869 
L 174.430644 281.542051 
L 174.162207 282.304592 
L 416.45176 333.077188 
L 416.183323 333.839728 
L 173.89377 283.067133 
L 173.625333 283.829674 
z
" style="fill:#696969;opacity:0.75;stroke:#696969;stroke-linejoin:miter;"/>
   </g>
   <g id="patch_9">
    <path clip-path="url(#pec9099d0ee)" d="M 404.094475 331.237925 
L 408.932536 330.899181 
L 408.697809 331.668313 
L 416.434905 333.073892 
L 416.200178 333.843024 
L 408.463082 332.437446 
L 408.228355 333.206579 
z
" style="fill:#696969;opacity:0.75;stroke:#696969;stroke-linejoin:miter;"/>
   </g>
   <g id="patch_10">
    <path clip-path="url(#pec9099d0ee)" d="M 169.602511 309.988095 
L 174.364514 309.246886 
L 174.239185 310.031113 
L 416.380206 333.066344 
L 416.254877 333.850572 
L 174.113857 310.815341 
L 173.988528 311.599569 
z
" style="fill:#696969;opacity:0.75;stroke:#696969;stroke-linejoin:miter;"/>
   </g>
   <g id="patch_11">
    <path clip-path="url(#pec9099d0ee)" d="M 529.702939 56.083571 
L 529.781806 59.831165 
L 528.805088 59.593495 
L 416.805901 333.577293 
L 415.829183 333.339623 
L 527.82837 59.355825 
L 526.851652 59.118155 
z
" style="fill:#696969;opacity:0.75;stroke:#696969;stroke-linejoin:miter;"/>
   </g>
   <g id="patch_12">
    <path clip-path="url(#pec9099d0ee)" d="M 436.116008 334.485522 
L 431.414684 335.429562 
L 431.483389 334.641176 
L 416.283189 333.852651 
L 416.351894 333.064265 
L 431.552095 333.85279 
L 431.6208 333.064403 
z
" style="fill:#696969;opacity:0.75;stroke:#696969;stroke-linejoin:miter;"/>
   </g>
   <g id="patch_13">
    <path clip-path="url(#pec9099d0ee)" d="M 421.024474 306.533548 
L 421.930877 310.215818 
L 420.915923 310.110198 
L 416.825019 333.511268 
L 415.810065 333.405648 
L 419.90097 310.004579 
L 418.886016 309.898959 
z
" style="fill:#696969;opacity:0.75;stroke:#696969;stroke-linejoin:miter;"/>
   </g>
   <g id="patch_14">
    <path clip-path="url(#pec9099d0ee)" d="M 557.031714 52.470865 
L 556.803695 56.214823 
L 555.848378 55.930041 
L 416.7952 333.600849 
L 415.839884 333.316067 
L 554.893062 55.645258 
L 553.937746 55.360476 
z
" style="fill:#696969;opacity:0.75;stroke:#696969;stroke-linejoin:miter;"/>
   </g>
   <g id="patch_15">
    <path clip-path="url(#pec9099d0ee)" d="M 406.160456 369.56484 
L 405.636702 365.838598 
L 406.637544 366.006195 
L 415.817121 333.37466 
L 416.817963 333.542256 
L 407.638386 366.173792 
L 408.639228 366.341389 
z
" style="fill:#696969;opacity:0.75;stroke:#696969;stroke-linejoin:miter;"/>
   </g>
   <g id="patch_16">
    <path clip-path="url(#pec9099d0ee)" d="M 418.336098 337.873081 
L 415.354158 334.91419 
L 416.319964 334.651313 
L 415.834638 333.589897 
L 416.800445 333.32702 
L 417.285771 334.388437 
L 418.251577 334.12556 
z
" style="fill:#696969;opacity:0.75;stroke:#696969;stroke-linejoin:miter;"/>
   </g>
   <g id="patch_17">
    <path clip-path="url(#pec9099d0ee)" d="M 358.129646 246.558332 
L 361.609793 249.173401 
L 360.699899 249.536076 
L 416.772489 333.27712 
L 415.862595 333.639796 
L 359.790005 249.898751 
L 358.880111 250.261427 
z
" style="fill:#696969;opacity:0.75;stroke:#696969;stroke-linejoin:miter;"/>
   </g>
   <g id="patch_18">
    <path clip-path="url(#pec9099d0ee)" d="M 498.032862 276.667953 
L 495.636756 279.928401 
L 494.951315 279.3413 
L 416.660262 333.752008 
L 415.974821 333.164908 
L 494.265875 278.7542 
L 493.580434 278.167099 
z
" style="fill:#696969;opacity:0.75;stroke:#696969;stroke-linejoin:miter;"/>
   </g>
   <g id="patch_19">
    <path clip-path="url(#pec9099d0ee)" d="M 555.178063 52.890553 
L 554.969156 56.635174 
L 554.012394 56.353297 
L 416.795923 333.599397 
L 415.83916 333.317519 
L 553.055631 56.07142 
L 552.098869 55.789542 
z
" style="fill:#696969;opacity:0.75;stroke:#696969;stroke-linejoin:miter;"/>
   </g>
   <g id="patch_20">
    <path clip-path="url(#pec9099d0ee)" d="M 391.468726 367.5023 
L 392.391596 363.822465 
L 393.283967 364.210193 
L 415.871356 333.264594 
L 416.763727 333.652322 
L 394.176338 364.597922 
L 395.068708 364.98565 
z
" style="fill:#696969;opacity:0.75;stroke:#696969;stroke-linejoin:miter;"/>
   </g>
   <g id="patch_21">
    <path clip-path="url(#pec9099d0ee)" d="M 418.180604 329.292554 
L 418.129581 333.040435 
L 417.161448 332.782703 
L 416.801608 333.587324 
L 415.833475 333.329592 
L 416.193315 332.524972 
L 415.225181 332.26724 
z
" style="fill:#696969;opacity:0.75;stroke:#696969;stroke-linejoin:miter;"/>
   </g>
   <g id="patch_22">
    <path clip-path="url(#pec9099d0ee)" d="M 105.208809 235.674619 
L 110.05646 235.918446 
L 109.670078 236.650221 
L 416.510733 333.092571 
L 416.124351 333.824345 
L 109.283695 237.381995 
L 108.897313 238.11377 
z
" style="fill:#696969;opacity:0.75;stroke:#696969;stroke-linejoin:miter;"/>
   </g>
   <g id="patch_23">
    <path clip-path="url(#pec9099d0ee)" d="M 387.331046 323.957914 
L 392.173467 324.25729 
L 391.773034 324.984554 
L 416.517758 333.094826 
L 416.117325 333.82209 
L 391.3726 325.711819 
L 390.972167 326.439083 
z
" style="fill:#696969;opacity:0.75;stroke:#696969;stroke-linejoin:miter;"/>
   </g>
   <g id="patch_24">
    <path clip-path="url(#pec9099d0ee)" d="M 469.671541 356.075424 
L 464.892654 355.402 
L 465.385813 354.709476 
L 416.070962 333.80472 
L 416.564121 333.112196 
L 465.878972 354.016952 
L 466.372131 353.324428 
z
" style="fill:#696969;opacity:0.75;stroke:#696969;stroke-linejoin:miter;"/>
   </g>
   <g id="patch_25">
    <path clip-path="url(#pec9099d0ee)" d="M 468.102936 350.532861 
L 463.26136 350.225465 
L 463.663816 349.498866 
L 416.116314 333.821758 
L 416.51877 333.095158 
L 464.066272 348.772267 
L 464.468727 348.045667 
z
" style="fill:#696969;opacity:0.75;stroke:#696969;stroke-linejoin:miter;"/>
   </g>
   <g id="patch_26">
    <path clip-path="url(#pec9099d0ee)" d="M 135.021013 244.607483 
L 139.868112 244.857769 
L 139.480092 245.589028 
L 416.511552 333.092829 
L 416.123532 333.824087 
L 139.092072 246.320287 
L 138.704053 247.051546 
z
" style="fill:#696969;opacity:0.75;stroke:#696969;stroke-linejoin:miter;"/>
   </g>
   <g id="patch_27">
    <path clip-path="url(#pec9099d0ee)" d="M 164.963484 253.652785 
L 169.809984 253.909877 
L 169.42024 254.64059 
L 416.512414 333.093102 
L 416.12267 333.823814 
L 169.030496 255.371302 
L 168.640752 256.102015 
z
" style="fill:#696969;opacity:0.75;stroke:#696969;stroke-linejoin:miter;"/>
   </g>
   <g id="patch_28">
    <path clip-path="url(#pec9099d0ee)" d="M 403.321187 324.307802 
L 407.760924 325.829187 
L 407.070564 326.412847 
L 416.662722 333.166628 
L 415.972362 333.750288 
L 406.380205 326.996507 
L 405.689845 327.580167 
z
" style="fill:#696969;opacity:0.75;stroke:#696969;stroke-linejoin:miter;"/>
   </g>
   <g id="patch_29">
    <path clip-path="url(#pec9099d0ee)" d="M 110.685488 234.848805 
L 115.530016 235.127141 
L 115.134897 235.856133 
L 416.515101 333.093962 
L 416.119982 333.822954 
L 114.739778 236.585125 
L 114.344658 237.314118 
z
" style="fill:#696969;opacity:0.75;stroke:#696969;stroke-linejoin:miter;"/>
   </g>
   <g id="patch_30">
    <path clip-path="url(#pec9099d0ee)" d="M 529.445726 56.057364 
L 529.527885 59.804917 
L 528.550958 59.567758 
L 416.806005 333.577038 
L 415.829078 333.339879 
L 527.574032 59.330599 
L 526.597105 59.09344 
z
" style="fill:#696969;opacity:0.75;stroke:#696969;stroke-linejoin:miter;"/>
   </g>
   <g id="patch_31">
    <path clip-path="url(#pec9099d0ee)" d="M 436.16772 334.447754 
L 431.469631 335.40133 
L 431.535648 334.612807 
L 416.284533 333.85272 
L 416.350551 333.064196 
L 431.601666 333.824283 
L 431.667684 333.03576 
z
" style="fill:#696969;opacity:0.75;stroke:#696969;stroke-linejoin:miter;"/>
   </g>
   <g id="patch_32">
    <path clip-path="url(#pec9099d0ee)" d="M 120.563706 237.138585 
L 125.407001 237.429412 
L 125.008726 238.157382 
L 416.516679 333.094473 
L 416.118404 333.822443 
L 124.610451 238.885351 
L 124.212175 239.61332 
z
" style="fill:#696969;opacity:0.75;stroke:#696969;stroke-linejoin:miter;"/>
   </g>
   <g id="patch_33">
    <path clip-path="url(#pec9099d0ee)" d="M 463.283688 354.85734 
L 458.534182 354.069845 
L 459.054952 353.389459 
L 416.057157 333.798651 
L 416.577927 333.118265 
L 459.575722 352.709074 
L 460.096493 352.028688 
z
" style="fill:#696969;opacity:0.75;stroke:#696969;stroke-linejoin:miter;"/>
   </g>
   <g id="patch_34">
    <path clip-path="url(#pec9099d0ee)" d="M 501.244604 351.449123 
L 496.393688 351.650634 
L 496.664846 350.888667 
L 416.181963 333.839442 
L 416.453121 333.077474 
L 496.936004 350.126699 
L 497.207163 349.364731 
z
" style="fill:#696969;opacity:0.75;stroke:#696969;stroke-linejoin:miter;"/>
   </g>
   <g id="patch_35">
    <path clip-path="url(#pec9099d0ee)" d="M 127.636113 245.728776 
L 132.487111 245.929105 
L 132.111781 246.664296 
L 416.505207 333.090863 
L 416.129877 333.826054 
L 131.736452 247.399487 
L 131.361122 248.134678 
z
" style="fill:#696969;opacity:0.75;stroke:#696969;stroke-linejoin:miter;"/>
   </g>
   <g id="patch_36">
    <path clip-path="url(#pec9099d0ee)" d="M 146.82223 244.393056 
L 151.663466 244.703624 
L 151.260211 245.429959 
L 416.519169 333.09529 
L 416.115914 333.821626 
L 150.856956 246.156295 
L 150.4537 246.88263 
z
" style="fill:#696969;opacity:0.75;stroke:#696969;stroke-linejoin:miter;"/>
   </g>
   <g id="patch_37">
    <path clip-path="url(#pec9099d0ee)" d="M 406.812747 322.110437 
L 410.604366 324.453581 
L 409.744196 324.882448 
L 416.747627 333.244025 
L 415.887457 333.672891 
L 408.884026 325.311314 
L 408.023856 325.74018 
z
" style="fill:#696969;opacity:0.75;stroke:#696969;stroke-linejoin:miter;"/>
   </g>
   <g id="patch_38">
    <path clip-path="url(#pec9099d0ee)" d="M 96.869518 232.0261 
L 101.71601 232.283278 
L 101.326244 233.013984 
L 416.512425 333.093105 
L 416.122659 333.823811 
L 100.936478 233.74469 
L 100.546712 234.475396 
z
" style="fill:#696969;opacity:0.75;stroke:#696969;stroke-linejoin:miter;"/>
   </g>
   <g id="patch_39">
    <path clip-path="url(#pec9099d0ee)" d="M 529.456635 56.045667 
L 529.538719 59.79322 
L 528.561797 59.556049 
L 416.806003 333.577043 
L 415.829081 333.339873 
L 527.584875 59.318879 
L 526.607953 59.081708 
z
" style="fill:#696969;opacity:0.75;stroke:#696969;stroke-linejoin:miter;"/>
   </g>
   <g id="patch_40">
    <path clip-path="url(#pec9099d0ee)" d="M 436.180618 334.479623 
L 431.48003 335.425843 
L 431.548122 334.637425 
L 416.283496 333.852667 
L 416.351587 333.064249 
L 431.616213 333.849007 
L 431.684304 333.060589 
z
" style="fill:#696969;opacity:0.75;stroke:#696969;stroke-linejoin:miter;"/>
   </g>
   <g id="patch_41">
    <path clip-path="url(#pec9099d0ee)" d="M 558.294438 51.212915 
L 558.05912 54.956604 
L 557.10436 54.670713 
L 416.794922 333.601403 
L 415.840162 333.315513 
L 556.1496 54.384823 
L 555.19484 54.098932 
z
" style="fill:#696969;opacity:0.75;stroke:#696969;stroke-linejoin:miter;"/>
   </g>
   <g id="patch_42">
    <path clip-path="url(#pec9099d0ee)" d="M 558.294438 51.212915 
L 558.05912 54.956604 
L 557.10436 54.670713 
L 416.794922 333.601403 
L 415.840162 333.315513 
L 556.1496 54.384823 
L 555.19484 54.098932 
z
" style="fill:#696969;opacity:0.75;stroke:#696969;stroke-linejoin:miter;"/>
   </g>
   <g id="text_17">
    <!-- cells_areashape_area -->
    <defs>
     <path d="M 40.4375 19 
L 49.078125 17.875 
Q 47.65625 8.9375 41.8125 3.875 
Q 35.984375 -1.171875 27.484375 -1.171875 
Q 16.84375 -1.171875 10.375 5.78125 
Q 3.90625 12.75 3.90625 25.734375 
Q 3.90625 34.125 6.6875 40.421875 
Q 9.46875 46.734375 15.15625 49.875 
Q 20.84375 53.03125 27.546875 53.03125 
Q 35.984375 53.03125 41.359375 48.75 
Q 46.734375 44.484375 48.25 36.625 
L 39.703125 35.296875 
Q 38.484375 40.53125 35.375 43.15625 
Q 32.28125 45.796875 27.875 45.796875 
Q 21.234375 45.796875 17.078125 41.03125 
Q 12.9375 36.28125 12.9375 25.984375 
Q 12.9375 15.53125 16.9375 10.796875 
Q 20.953125 6.0625 27.390625 6.0625 
Q 32.5625 6.0625 36.03125 9.234375 
Q 39.5 12.40625 40.4375 19 
z
" id="ArialMT-99"/>
     <path d="M 42.09375 16.703125 
L 51.171875 15.578125 
Q 49.03125 7.625 43.21875 3.21875 
Q 37.40625 -1.171875 28.375 -1.171875 
Q 17 -1.171875 10.328125 5.828125 
Q 3.65625 12.84375 3.65625 25.484375 
Q 3.65625 38.578125 10.390625 45.796875 
Q 17.140625 53.03125 27.875 53.03125 
Q 38.28125 53.03125 44.875 45.953125 
Q 51.46875 38.875 51.46875 26.03125 
Q 51.46875 25.25 51.421875 23.6875 
L 12.75 23.6875 
Q 13.234375 15.140625 17.578125 10.59375 
Q 21.921875 6.0625 28.421875 6.0625 
Q 33.25 6.0625 36.671875 8.59375 
Q 40.09375 11.140625 42.09375 16.703125 
z
M 13.234375 30.90625 
L 42.1875 30.90625 
Q 41.609375 37.453125 38.875 40.71875 
Q 34.671875 45.796875 27.984375 45.796875 
Q 21.921875 45.796875 17.796875 41.75 
Q 13.671875 37.703125 13.234375 30.90625 
z
" id="ArialMT-101"/>
     <path d="M 6.390625 0 
L 6.390625 71.578125 
L 15.1875 71.578125 
L 15.1875 0 
z
" id="ArialMT-108"/>
     <path d="M 3.078125 15.484375 
L 11.765625 16.84375 
Q 12.5 11.625 15.84375 8.84375 
Q 19.1875 6.0625 25.203125 6.0625 
Q 31.25 6.0625 34.171875 8.515625 
Q 37.109375 10.984375 37.109375 14.3125 
Q 37.109375 17.28125 34.515625 19 
Q 32.71875 20.171875 25.53125 21.96875 
Q 15.875 24.421875 12.140625 26.203125 
Q 8.40625 27.984375 6.46875 31.125 
Q 4.546875 34.28125 4.546875 38.09375 
Q 4.546875 41.546875 6.125 44.5 
Q 7.71875 47.46875 10.453125 49.421875 
Q 12.5 50.921875 16.03125 51.96875 
Q 19.578125 53.03125 23.640625 53.03125 
Q 29.734375 53.03125 34.34375 51.265625 
Q 38.96875 49.515625 41.15625 46.5 
Q 43.359375 43.5 44.1875 38.484375 
L 35.59375 37.3125 
Q 35.015625 41.3125 32.203125 43.546875 
Q 29.390625 45.796875 24.265625 45.796875 
Q 18.21875 45.796875 15.625 43.796875 
Q 13.03125 41.796875 13.03125 39.109375 
Q 13.03125 37.40625 14.109375 36.03125 
Q 15.1875 34.625 17.484375 33.6875 
Q 18.796875 33.203125 25.25 31.453125 
Q 34.578125 28.953125 38.25 27.359375 
Q 41.9375 25.78125 44.03125 22.75 
Q 46.140625 19.734375 46.140625 15.234375 
Q 46.140625 10.84375 43.578125 6.953125 
Q 41.015625 3.078125 36.171875 0.953125 
Q 31.34375 -1.171875 25.25 -1.171875 
Q 15.140625 -1.171875 9.84375 3.03125 
Q 4.546875 7.234375 3.078125 15.484375 
z
" id="ArialMT-115"/>
     <path d="M -1.515625 -19.875 
L -1.515625 -13.53125 
L 56.734375 -13.53125 
L 56.734375 -19.875 
z
" id="ArialMT-95"/>
     <path d="M 40.4375 6.390625 
Q 35.546875 2.25 31.03125 0.53125 
Q 26.515625 -1.171875 21.34375 -1.171875 
Q 12.796875 -1.171875 8.203125 3 
Q 3.609375 7.171875 3.609375 13.671875 
Q 3.609375 17.484375 5.34375 20.625 
Q 7.078125 23.78125 9.890625 25.6875 
Q 12.703125 27.59375 16.21875 28.5625 
Q 18.796875 29.25 24.03125 29.890625 
Q 34.671875 31.15625 39.703125 32.90625 
Q 39.75 34.71875 39.75 35.203125 
Q 39.75 40.578125 37.25 42.78125 
Q 33.890625 45.75 27.25 45.75 
Q 21.046875 45.75 18.09375 43.578125 
Q 15.140625 41.40625 13.71875 35.890625 
L 5.125 37.0625 
Q 6.296875 42.578125 8.984375 45.96875 
Q 11.671875 49.359375 16.75 51.1875 
Q 21.828125 53.03125 28.515625 53.03125 
Q 35.15625 53.03125 39.296875 51.46875 
Q 43.453125 49.90625 45.40625 47.53125 
Q 47.359375 45.171875 48.140625 41.546875 
Q 48.578125 39.3125 48.578125 33.453125 
L 48.578125 21.734375 
Q 48.578125 9.46875 49.140625 6.21875 
Q 49.703125 2.984375 51.375 0 
L 42.1875 0 
Q 40.828125 2.734375 40.4375 6.390625 
z
M 39.703125 26.03125 
Q 34.90625 24.078125 25.34375 22.703125 
Q 19.921875 21.921875 17.671875 20.9375 
Q 15.4375 19.96875 14.203125 18.09375 
Q 12.984375 16.21875 12.984375 13.921875 
Q 12.984375 10.40625 15.640625 8.0625 
Q 18.3125 5.71875 23.4375 5.71875 
Q 28.515625 5.71875 32.46875 7.9375 
Q 36.421875 10.15625 38.28125 14.015625 
Q 39.703125 17 39.703125 22.796875 
z
" id="ArialMT-97"/>
     <path d="M 6.5 0 
L 6.5 51.859375 
L 14.40625 51.859375 
L 14.40625 44 
Q 17.4375 49.515625 20 51.265625 
Q 22.5625 53.03125 25.640625 53.03125 
Q 30.078125 53.03125 34.671875 50.203125 
L 31.640625 42.046875 
Q 28.421875 43.953125 25.203125 43.953125 
Q 22.3125 43.953125 20.015625 42.21875 
Q 17.71875 40.484375 16.75 37.40625 
Q 15.28125 32.71875 15.28125 27.15625 
L 15.28125 0 
z
" id="ArialMT-114"/>
     <path d="M 6.59375 0 
L 6.59375 71.578125 
L 15.375 71.578125 
L 15.375 45.90625 
Q 21.53125 53.03125 30.90625 53.03125 
Q 36.671875 53.03125 40.921875 50.75 
Q 45.171875 48.484375 47 44.484375 
Q 48.828125 40.484375 48.828125 32.859375 
L 48.828125 0 
L 40.046875 0 
L 40.046875 32.859375 
Q 40.046875 39.453125 37.1875 42.453125 
Q 34.328125 45.453125 29.109375 45.453125 
Q 25.203125 45.453125 21.75 43.421875 
Q 18.3125 41.40625 16.84375 37.9375 
Q 15.375 34.46875 15.375 28.375 
L 15.375 0 
z
" id="ArialMT-104"/>
     <path d="M 6.59375 -19.875 
L 6.59375 51.859375 
L 14.59375 51.859375 
L 14.59375 45.125 
Q 17.4375 49.078125 21 51.046875 
Q 24.5625 53.03125 29.640625 53.03125 
Q 36.28125 53.03125 41.359375 49.609375 
Q 46.4375 46.1875 49.015625 39.953125 
Q 51.609375 33.734375 51.609375 26.3125 
Q 51.609375 18.359375 48.75 11.984375 
Q 45.90625 5.609375 40.453125 2.21875 
Q 35.015625 -1.171875 29 -1.171875 
Q 24.609375 -1.171875 21.109375 0.6875 
Q 17.625 2.546875 15.375 5.375 
L 15.375 -19.875 
z
M 14.546875 25.640625 
Q 14.546875 15.625 18.59375 10.84375 
Q 22.65625 6.0625 28.421875 6.0625 
Q 34.28125 6.0625 38.453125 11.015625 
Q 42.625 15.96875 42.625 26.375 
Q 42.625 36.28125 38.546875 41.203125 
Q 34.46875 46.140625 28.8125 46.140625 
Q 23.1875 46.140625 18.859375 40.890625 
Q 14.546875 35.640625 14.546875 25.640625 
z
" id="ArialMT-112"/>
    </defs>
    <g transform="translate(89.99601 279.726445)scale(0.06 -0.06)">
     <use xlink:href="#ArialMT-99"/>
     <use x="50" xlink:href="#ArialMT-101"/>
     <use x="105.615234" xlink:href="#ArialMT-108"/>
     <use x="127.832031" xlink:href="#ArialMT-108"/>
     <use x="150.048828" xlink:href="#ArialMT-115"/>
     <use x="200.048828" xlink:href="#ArialMT-95"/>
     <use x="255.664062" xlink:href="#ArialMT-97"/>
     <use x="311.279297" xlink:href="#ArialMT-114"/>
     <use x="344.580078" xlink:href="#ArialMT-101"/>
     <use x="400.195312" xlink:href="#ArialMT-97"/>
     <use x="455.810547" xlink:href="#ArialMT-115"/>
     <use x="505.810547" xlink:href="#ArialMT-104"/>
     <use x="561.425781" xlink:href="#ArialMT-97"/>
     <use x="617.041016" xlink:href="#ArialMT-112"/>
     <use x="672.65625" xlink:href="#ArialMT-101"/>
     <use x="728.271484" xlink:href="#ArialMT-95"/>
     <use x="783.886719" xlink:href="#ArialMT-97"/>
     <use x="839.501953" xlink:href="#ArialMT-114"/>
     <use x="872.802734" xlink:href="#ArialMT-101"/>
     <use x="928.417969" xlink:href="#ArialMT-97"/>
    </g>
   </g>
   <g id="text_18">
    <!-- cells_location_center_x -->
    <defs>
     <path d="M 3.328125 25.921875 
Q 3.328125 40.328125 11.328125 47.265625 
Q 18.015625 53.03125 27.640625 53.03125 
Q 38.328125 53.03125 45.109375 46.015625 
Q 51.90625 39.015625 51.90625 26.65625 
Q 51.90625 16.65625 48.90625 10.90625 
Q 45.90625 5.171875 40.15625 2 
Q 34.421875 -1.171875 27.640625 -1.171875 
Q 16.75 -1.171875 10.03125 5.8125 
Q 3.328125 12.796875 3.328125 25.921875 
z
M 12.359375 25.921875 
Q 12.359375 15.96875 16.703125 11.015625 
Q 21.046875 6.0625 27.640625 6.0625 
Q 34.1875 6.0625 38.53125 11.03125 
Q 42.875 16.015625 42.875 26.21875 
Q 42.875 35.84375 38.5 40.796875 
Q 34.125 45.75 27.640625 45.75 
Q 21.046875 45.75 16.703125 40.8125 
Q 12.359375 35.890625 12.359375 25.921875 
z
" id="ArialMT-111"/>
     <path d="M 25.78125 7.859375 
L 27.046875 0.09375 
Q 23.34375 -0.6875 20.40625 -0.6875 
Q 15.625 -0.6875 12.984375 0.828125 
Q 10.359375 2.34375 9.28125 4.8125 
Q 8.203125 7.28125 8.203125 15.1875 
L 8.203125 45.015625 
L 1.765625 45.015625 
L 1.765625 51.859375 
L 8.203125 51.859375 
L 8.203125 64.703125 
L 16.9375 69.96875 
L 16.9375 51.859375 
L 25.78125 51.859375 
L 25.78125 45.015625 
L 16.9375 45.015625 
L 16.9375 14.703125 
Q 16.9375 10.9375 17.40625 9.859375 
Q 17.875 8.796875 18.921875 8.15625 
Q 19.96875 7.515625 21.921875 7.515625 
Q 23.390625 7.515625 25.78125 7.859375 
z
" id="ArialMT-116"/>
     <path d="M 6.640625 61.46875 
L 6.640625 71.578125 
L 15.4375 71.578125 
L 15.4375 61.46875 
z
M 6.640625 0 
L 6.640625 51.859375 
L 15.4375 51.859375 
L 15.4375 0 
z
" id="ArialMT-105"/>
     <path d="M 6.59375 0 
L 6.59375 51.859375 
L 14.5 51.859375 
L 14.5 44.484375 
Q 20.21875 53.03125 31 53.03125 
Q 35.6875 53.03125 39.625 51.34375 
Q 43.5625 49.65625 45.515625 46.921875 
Q 47.46875 44.1875 48.25 40.4375 
Q 48.734375 37.984375 48.734375 31.890625 
L 48.734375 0 
L 39.9375 0 
L 39.9375 31.546875 
Q 39.9375 36.921875 38.90625 39.578125 
Q 37.890625 42.234375 35.28125 43.8125 
Q 32.671875 45.40625 29.15625 45.40625 
Q 23.53125 45.40625 19.453125 41.84375 
Q 15.375 38.28125 15.375 28.328125 
L 15.375 0 
z
" id="ArialMT-110"/>
     <path d="M 0.734375 0 
L 19.671875 26.953125 
L 2.15625 51.859375 
L 13.140625 51.859375 
L 21.09375 39.703125 
Q 23.34375 36.234375 24.703125 33.890625 
Q 26.859375 37.109375 28.65625 39.59375 
L 37.40625 51.859375 
L 47.90625 51.859375 
L 29.984375 27.4375 
L 49.265625 0 
L 38.484375 0 
L 27.828125 16.109375 
L 25 20.453125 
L 11.375 0 
z
" id="ArialMT-120"/>
    </defs>
    <g transform="translate(513.933482 19.928184)scale(0.06 -0.06)">
     <use xlink:href="#ArialMT-99"/>
     <use x="50" xlink:href="#ArialMT-101"/>
     <use x="105.615234" xlink:href="#ArialMT-108"/>
     <use x="127.832031" xlink:href="#ArialMT-108"/>
     <use x="150.048828" xlink:href="#ArialMT-115"/>
     <use x="200.048828" xlink:href="#ArialMT-95"/>
     <use x="255.664062" xlink:href="#ArialMT-108"/>
     <use x="277.880859" xlink:href="#ArialMT-111"/>
     <use x="333.496094" xlink:href="#ArialMT-99"/>
     <use x="383.496094" xlink:href="#ArialMT-97"/>
     <use x="439.111328" xlink:href="#ArialMT-116"/>
     <use x="466.894531" xlink:href="#ArialMT-105"/>
     <use x="489.111328" xlink:href="#ArialMT-111"/>
     <use x="544.726562" xlink:href="#ArialMT-110"/>
     <use x="600.341797" xlink:href="#ArialMT-95"/>
     <use x="655.957031" xlink:href="#ArialMT-99"/>
     <use x="705.957031" xlink:href="#ArialMT-101"/>
     <use x="761.572266" xlink:href="#ArialMT-110"/>
     <use x="817.1875" xlink:href="#ArialMT-116"/>
     <use x="844.970703" xlink:href="#ArialMT-101"/>
     <use x="900.585938" xlink:href="#ArialMT-114"/>
     <use x="933.886719" xlink:href="#ArialMT-95"/>
     <use x="989.501953" xlink:href="#ArialMT-120"/>
    </g>
   </g>
   <g id="text_19">
    <!-- cells_neighbors_firstclosestobjectnumber_2 -->
    <defs>
     <path d="M 4.984375 -4.296875 
L 13.53125 -5.5625 
Q 14.0625 -9.515625 16.5 -11.328125 
Q 19.78125 -13.765625 25.4375 -13.765625 
Q 31.546875 -13.765625 34.859375 -11.328125 
Q 38.1875 -8.890625 39.359375 -4.5 
Q 40.046875 -1.8125 39.984375 6.78125 
Q 34.234375 0 25.640625 0 
Q 14.9375 0 9.078125 7.71875 
Q 3.21875 15.4375 3.21875 26.21875 
Q 3.21875 33.640625 5.90625 39.90625 
Q 8.59375 46.1875 13.6875 49.609375 
Q 18.796875 53.03125 25.6875 53.03125 
Q 34.859375 53.03125 40.828125 45.609375 
L 40.828125 51.859375 
L 48.921875 51.859375 
L 48.921875 7.03125 
Q 48.921875 -5.078125 46.453125 -10.125 
Q 44 -15.1875 38.640625 -18.109375 
Q 33.296875 -21.046875 25.484375 -21.046875 
Q 16.21875 -21.046875 10.5 -16.875 
Q 4.78125 -12.703125 4.984375 -4.296875 
z
M 12.25 26.859375 
Q 12.25 16.65625 16.296875 11.96875 
Q 20.359375 7.28125 26.46875 7.28125 
Q 32.515625 7.28125 36.609375 11.9375 
Q 40.71875 16.609375 40.71875 26.5625 
Q 40.71875 36.078125 36.5 40.90625 
Q 32.28125 45.75 26.3125 45.75 
Q 20.453125 45.75 16.34375 40.984375 
Q 12.25 36.234375 12.25 26.859375 
z
" id="ArialMT-103"/>
     <path d="M 14.703125 0 
L 6.546875 0 
L 6.546875 71.578125 
L 15.328125 71.578125 
L 15.328125 46.046875 
Q 20.90625 53.03125 29.546875 53.03125 
Q 34.328125 53.03125 38.59375 51.09375 
Q 42.875 49.171875 45.625 45.671875 
Q 48.390625 42.1875 49.953125 37.25 
Q 51.515625 32.328125 51.515625 26.703125 
Q 51.515625 13.375 44.921875 6.09375 
Q 38.328125 -1.171875 29.109375 -1.171875 
Q 19.921875 -1.171875 14.703125 6.5 
z
M 14.59375 26.3125 
Q 14.59375 17 17.140625 12.84375 
Q 21.296875 6.0625 28.375 6.0625 
Q 34.125 6.0625 38.328125 11.0625 
Q 42.53125 16.0625 42.53125 25.984375 
Q 42.53125 36.140625 38.5 40.96875 
Q 34.46875 45.796875 28.765625 45.796875 
Q 23 45.796875 18.796875 40.796875 
Q 14.59375 35.796875 14.59375 26.3125 
z
" id="ArialMT-98"/>
     <path d="M 8.6875 0 
L 8.6875 45.015625 
L 0.921875 45.015625 
L 0.921875 51.859375 
L 8.6875 51.859375 
L 8.6875 57.375 
Q 8.6875 62.59375 9.625 65.140625 
Q 10.890625 68.5625 14.078125 70.671875 
Q 17.28125 72.796875 23.046875 72.796875 
Q 26.765625 72.796875 31.25 71.921875 
L 29.9375 64.265625 
Q 27.203125 64.75 24.75 64.75 
Q 20.75 64.75 19.09375 63.03125 
Q 17.4375 61.328125 17.4375 56.640625 
L 17.4375 51.859375 
L 27.546875 51.859375 
L 27.546875 45.015625 
L 17.4375 45.015625 
L 17.4375 0 
z
" id="ArialMT-102"/>
     <path d="M 6.546875 61.375 
L 6.546875 71.578125 
L 15.328125 71.578125 
L 15.328125 61.375 
z
M -4.59375 -20.125 
L -2.9375 -12.640625 
Q -0.296875 -13.328125 1.21875 -13.328125 
Q 3.90625 -13.328125 5.21875 -11.546875 
Q 6.546875 -9.765625 6.546875 -2.640625 
L 6.546875 51.859375 
L 15.328125 51.859375 
L 15.328125 -2.828125 
Q 15.328125 -12.40625 12.84375 -16.15625 
Q 9.671875 -21.046875 2.296875 -21.046875 
Q -1.265625 -21.046875 -4.59375 -20.125 
z
" id="ArialMT-106"/>
     <path d="M 40.578125 0 
L 40.578125 7.625 
Q 34.515625 -1.171875 24.125 -1.171875 
Q 19.53125 -1.171875 15.546875 0.578125 
Q 11.578125 2.34375 9.640625 5 
Q 7.71875 7.671875 6.9375 11.53125 
Q 6.390625 14.109375 6.390625 19.734375 
L 6.390625 51.859375 
L 15.1875 51.859375 
L 15.1875 23.09375 
Q 15.1875 16.21875 15.71875 13.8125 
Q 16.546875 10.359375 19.234375 8.375 
Q 21.921875 6.390625 25.875 6.390625 
Q 29.828125 6.390625 33.296875 8.421875 
Q 36.765625 10.453125 38.203125 13.9375 
Q 39.65625 17.4375 39.65625 24.078125 
L 39.65625 51.859375 
L 48.4375 51.859375 
L 48.4375 0 
z
" id="ArialMT-117"/>
     <path d="M 6.59375 0 
L 6.59375 51.859375 
L 14.453125 51.859375 
L 14.453125 44.578125 
Q 16.890625 48.390625 20.9375 50.703125 
Q 25 53.03125 30.171875 53.03125 
Q 35.9375 53.03125 39.625 50.640625 
Q 43.3125 48.25 44.828125 43.953125 
Q 50.984375 53.03125 60.84375 53.03125 
Q 68.5625 53.03125 72.703125 48.75 
Q 76.859375 44.484375 76.859375 35.59375 
L 76.859375 0 
L 68.109375 0 
L 68.109375 32.671875 
Q 68.109375 37.9375 67.25 40.25 
Q 66.40625 42.578125 64.15625 43.984375 
Q 61.921875 45.40625 58.890625 45.40625 
Q 53.421875 45.40625 49.796875 41.765625 
Q 46.1875 38.140625 46.1875 30.125 
L 46.1875 0 
L 37.40625 0 
L 37.40625 33.6875 
Q 37.40625 39.546875 35.25 42.46875 
Q 33.109375 45.40625 28.21875 45.40625 
Q 24.515625 45.40625 21.359375 43.453125 
Q 18.21875 41.5 16.796875 37.734375 
Q 15.375 33.984375 15.375 26.90625 
L 15.375 0 
z
" id="ArialMT-109"/>
    </defs>
    <g transform="translate(518.034322 15.689528)scale(0.06 -0.06)">
     <use xlink:href="#ArialMT-99"/>
     <use x="50" xlink:href="#ArialMT-101"/>
     <use x="105.615234" xlink:href="#ArialMT-108"/>
     <use x="127.832031" xlink:href="#ArialMT-108"/>
     <use x="150.048828" xlink:href="#ArialMT-115"/>
     <use x="200.048828" xlink:href="#ArialMT-95"/>
     <use x="255.664062" xlink:href="#ArialMT-110"/>
     <use x="311.279297" xlink:href="#ArialMT-101"/>
     <use x="366.894531" xlink:href="#ArialMT-105"/>
     <use x="389.111328" xlink:href="#ArialMT-103"/>
     <use x="444.726562" xlink:href="#ArialMT-104"/>
     <use x="500.341797" xlink:href="#ArialMT-98"/>
     <use x="555.957031" xlink:href="#ArialMT-111"/>
     <use x="611.572266" xlink:href="#ArialMT-114"/>
     <use x="644.873047" xlink:href="#ArialMT-115"/>
     <use x="694.873047" xlink:href="#ArialMT-95"/>
     <use x="750.488281" xlink:href="#ArialMT-102"/>
     <use x="778.271484" xlink:href="#ArialMT-105"/>
     <use x="800.488281" xlink:href="#ArialMT-114"/>
     <use x="833.789062" xlink:href="#ArialMT-115"/>
     <use x="883.789062" xlink:href="#ArialMT-116"/>
     <use x="911.572266" xlink:href="#ArialMT-99"/>
     <use x="961.572266" xlink:href="#ArialMT-108"/>
     <use x="983.789062" xlink:href="#ArialMT-111"/>
     <use x="1039.404297" xlink:href="#ArialMT-115"/>
     <use x="1089.404297" xlink:href="#ArialMT-101"/>
     <use x="1145.019531" xlink:href="#ArialMT-115"/>
     <use x="1195.019531" xlink:href="#ArialMT-116"/>
     <use x="1222.802734" xlink:href="#ArialMT-111"/>
     <use x="1278.417969" xlink:href="#ArialMT-98"/>
     <use x="1334.033203" xlink:href="#ArialMT-106"/>
     <use x="1356.25" xlink:href="#ArialMT-101"/>
     <use x="1411.865234" xlink:href="#ArialMT-99"/>
     <use x="1461.865234" xlink:href="#ArialMT-116"/>
     <use x="1489.648438" xlink:href="#ArialMT-110"/>
     <use x="1545.263672" xlink:href="#ArialMT-117"/>
     <use x="1600.878906" xlink:href="#ArialMT-109"/>
     <use x="1684.179688" xlink:href="#ArialMT-98"/>
     <use x="1739.794922" xlink:href="#ArialMT-101"/>
     <use x="1795.410156" xlink:href="#ArialMT-114"/>
     <use x="1828.710938" xlink:href="#ArialMT-95"/>
     <use x="1884.326172" xlink:href="#ArialMT-50"/>
    </g>
   </g>
   <g id="text_20">
    <!-- cells_neighbors_secondclosestobjectnumber_2 -->
    <defs>
     <path d="M 40.234375 0 
L 40.234375 6.546875 
Q 35.296875 -1.171875 25.734375 -1.171875 
Q 19.53125 -1.171875 14.328125 2.25 
Q 9.125 5.671875 6.265625 11.796875 
Q 3.421875 17.921875 3.421875 25.875 
Q 3.421875 33.640625 6 39.96875 
Q 8.59375 46.296875 13.765625 49.65625 
Q 18.953125 53.03125 25.34375 53.03125 
Q 30.03125 53.03125 33.6875 51.046875 
Q 37.359375 49.078125 39.65625 45.90625 
L 39.65625 71.578125 
L 48.390625 71.578125 
L 48.390625 0 
z
M 12.453125 25.875 
Q 12.453125 15.921875 16.640625 10.984375 
Q 20.84375 6.0625 26.5625 6.0625 
Q 32.328125 6.0625 36.34375 10.765625 
Q 40.375 15.484375 40.375 25.140625 
Q 40.375 35.796875 36.265625 40.765625 
Q 32.171875 45.75 26.171875 45.75 
Q 20.3125 45.75 16.375 40.96875 
Q 12.453125 36.1875 12.453125 25.875 
z
" id="ArialMT-100"/>
    </defs>
    <g transform="translate(511.081327 16.150287)scale(0.06 -0.06)">
     <use xlink:href="#ArialMT-99"/>
     <use x="50" xlink:href="#ArialMT-101"/>
     <use x="105.615234" xlink:href="#ArialMT-108"/>
     <use x="127.832031" xlink:href="#ArialMT-108"/>
     <use x="150.048828" xlink:href="#ArialMT-115"/>
     <use x="200.048828" xlink:href="#ArialMT-95"/>
     <use x="255.664062" xlink:href="#ArialMT-110"/>
     <use x="311.279297" xlink:href="#ArialMT-101"/>
     <use x="366.894531" xlink:href="#ArialMT-105"/>
     <use x="389.111328" xlink:href="#ArialMT-103"/>
     <use x="444.726562" xlink:href="#ArialMT-104"/>
     <use x="500.341797" xlink:href="#ArialMT-98"/>
     <use x="555.957031" xlink:href="#ArialMT-111"/>
     <use x="611.572266" xlink:href="#ArialMT-114"/>
     <use x="644.873047" xlink:href="#ArialMT-115"/>
     <use x="694.873047" xlink:href="#ArialMT-95"/>
     <use x="750.488281" xlink:href="#ArialMT-115"/>
     <use x="800.488281" xlink:href="#ArialMT-101"/>
     <use x="856.103516" xlink:href="#ArialMT-99"/>
     <use x="906.103516" xlink:href="#ArialMT-111"/>
     <use x="961.71875" xlink:href="#ArialMT-110"/>
     <use x="1017.333984" xlink:href="#ArialMT-100"/>
     <use x="1072.949219" xlink:href="#ArialMT-99"/>
     <use x="1122.949219" xlink:href="#ArialMT-108"/>
     <use x="1145.166016" xlink:href="#ArialMT-111"/>
     <use x="1200.78125" xlink:href="#ArialMT-115"/>
     <use x="1250.78125" xlink:href="#ArialMT-101"/>
     <use x="1306.396484" xlink:href="#ArialMT-115"/>
     <use x="1356.396484" xlink:href="#ArialMT-116"/>
     <use x="1384.179688" xlink:href="#ArialMT-111"/>
     <use x="1439.794922" xlink:href="#ArialMT-98"/>
     <use x="1495.410156" xlink:href="#ArialMT-106"/>
     <use x="1517.626953" xlink:href="#ArialMT-101"/>
     <use x="1573.242188" xlink:href="#ArialMT-99"/>
     <use x="1623.242188" xlink:href="#ArialMT-116"/>
     <use x="1651.025391" xlink:href="#ArialMT-110"/>
     <use x="1706.640625" xlink:href="#ArialMT-117"/>
     <use x="1762.255859" xlink:href="#ArialMT-109"/>
     <use x="1845.556641" xlink:href="#ArialMT-98"/>
     <use x="1901.171875" xlink:href="#ArialMT-101"/>
     <use x="1956.787109" xlink:href="#ArialMT-114"/>
     <use x="1990.087891" xlink:href="#ArialMT-95"/>
     <use x="2045.703125" xlink:href="#ArialMT-50"/>
    </g>
   </g>
   <g id="text_21">
    <!-- nuclei_areashape_area -->
    <g transform="translate(32.095632 224.100849)scale(0.06 -0.06)">
     <use xlink:href="#ArialMT-110"/>
     <use x="55.615234" xlink:href="#ArialMT-117"/>
     <use x="111.230469" xlink:href="#ArialMT-99"/>
     <use x="161.230469" xlink:href="#ArialMT-108"/>
     <use x="183.447266" xlink:href="#ArialMT-101"/>
     <use x="239.0625" xlink:href="#ArialMT-105"/>
     <use x="261.279297" xlink:href="#ArialMT-95"/>
     <use x="316.894531" xlink:href="#ArialMT-97"/>
     <use x="372.509766" xlink:href="#ArialMT-114"/>
     <use x="405.810547" xlink:href="#ArialMT-101"/>
     <use x="461.425781" xlink:href="#ArialMT-97"/>
     <use x="517.041016" xlink:href="#ArialMT-115"/>
     <use x="567.041016" xlink:href="#ArialMT-104"/>
     <use x="622.65625" xlink:href="#ArialMT-97"/>
     <use x="678.271484" xlink:href="#ArialMT-112"/>
     <use x="733.886719" xlink:href="#ArialMT-101"/>
     <use x="789.501953" xlink:href="#ArialMT-95"/>
     <use x="845.117188" xlink:href="#ArialMT-97"/>
     <use x="900.732422" xlink:href="#ArialMT-114"/>
     <use x="934.033203" xlink:href="#ArialMT-101"/>
     <use x="989.648438" xlink:href="#ArialMT-97"/>
    </g>
   </g>
   <g id="text_22">
    <!-- nuclei_areashape_majoraxislength -->
    <g transform="translate(51.371051 234.345025)scale(0.06 -0.06)">
     <use xlink:href="#ArialMT-110"/>
     <use x="55.615234" xlink:href="#ArialMT-117"/>
     <use x="111.230469" xlink:href="#ArialMT-99"/>
     <use x="161.230469" xlink:href="#ArialMT-108"/>
     <use x="183.447266" xlink:href="#ArialMT-101"/>
     <use x="239.0625" xlink:href="#ArialMT-105"/>
     <use x="261.279297" xlink:href="#ArialMT-95"/>
     <use x="316.894531" xlink:href="#ArialMT-97"/>
     <use x="372.509766" xlink:href="#ArialMT-114"/>
     <use x="405.810547" xlink:href="#ArialMT-101"/>
     <use x="461.425781" xlink:href="#ArialMT-97"/>
     <use x="517.041016" xlink:href="#ArialMT-115"/>
     <use x="567.041016" xlink:href="#ArialMT-104"/>
     <use x="622.65625" xlink:href="#ArialMT-97"/>
     <use x="678.271484" xlink:href="#ArialMT-112"/>
     <use x="733.886719" xlink:href="#ArialMT-101"/>
     <use x="789.501953" xlink:href="#ArialMT-95"/>
     <use x="845.117188" xlink:href="#ArialMT-109"/>
     <use x="928.417969" xlink:href="#ArialMT-97"/>
     <use x="984.033203" xlink:href="#ArialMT-106"/>
     <use x="1006.25" xlink:href="#ArialMT-111"/>
     <use x="1061.865234" xlink:href="#ArialMT-114"/>
     <use x="1095.166016" xlink:href="#ArialMT-97"/>
     <use x="1150.78125" xlink:href="#ArialMT-120"/>
     <use x="1200.78125" xlink:href="#ArialMT-105"/>
     <use x="1222.998047" xlink:href="#ArialMT-115"/>
     <use x="1272.998047" xlink:href="#ArialMT-108"/>
     <use x="1295.214844" xlink:href="#ArialMT-101"/>
     <use x="1350.830078" xlink:href="#ArialMT-110"/>
     <use x="1406.445312" xlink:href="#ArialMT-103"/>
     <use x="1462.060547" xlink:href="#ArialMT-116"/>
     <use x="1489.84375" xlink:href="#ArialMT-104"/>
    </g>
   </g>
   <g id="text_23">
    <!-- nuclei_areashape_perimeter -->
    <g transform="translate(31.709057 223.186049)scale(0.06 -0.06)">
     <use xlink:href="#ArialMT-110"/>
     <use x="55.615234" xlink:href="#ArialMT-117"/>
     <use x="111.230469" xlink:href="#ArialMT-99"/>
     <use x="161.230469" xlink:href="#ArialMT-108"/>
     <use x="183.447266" xlink:href="#ArialMT-101"/>
     <use x="239.0625" xlink:href="#ArialMT-105"/>
     <use x="261.279297" xlink:href="#ArialMT-95"/>
     <use x="316.894531" xlink:href="#ArialMT-97"/>
     <use x="372.509766" xlink:href="#ArialMT-114"/>
     <use x="405.810547" xlink:href="#ArialMT-101"/>
     <use x="461.425781" xlink:href="#ArialMT-97"/>
     <use x="517.041016" xlink:href="#ArialMT-115"/>
     <use x="567.041016" xlink:href="#ArialMT-104"/>
     <use x="622.65625" xlink:href="#ArialMT-97"/>
     <use x="678.271484" xlink:href="#ArialMT-112"/>
     <use x="733.886719" xlink:href="#ArialMT-101"/>
     <use x="789.501953" xlink:href="#ArialMT-95"/>
     <use x="845.117188" xlink:href="#ArialMT-112"/>
     <use x="900.732422" xlink:href="#ArialMT-101"/>
     <use x="956.347656" xlink:href="#ArialMT-114"/>
     <use x="989.648438" xlink:href="#ArialMT-105"/>
     <use x="1011.865234" xlink:href="#ArialMT-109"/>
     <use x="1095.166016" xlink:href="#ArialMT-101"/>
     <use x="1150.78125" xlink:href="#ArialMT-116"/>
     <use x="1178.564453" xlink:href="#ArialMT-101"/>
     <use x="1234.179688" xlink:href="#ArialMT-114"/>
    </g>
   </g>
   <g id="text_24">
    <!-- nuclei_location_center_x -->
    <g transform="translate(511.80455 19.89888)scale(0.06 -0.06)">
     <use xlink:href="#ArialMT-110"/>
     <use x="55.615234" xlink:href="#ArialMT-117"/>
     <use x="111.230469" xlink:href="#ArialMT-99"/>
     <use x="161.230469" xlink:href="#ArialMT-108"/>
     <use x="183.447266" xlink:href="#ArialMT-101"/>
     <use x="239.0625" xlink:href="#ArialMT-105"/>
     <use x="261.279297" xlink:href="#ArialMT-95"/>
     <use x="316.894531" xlink:href="#ArialMT-108"/>
     <use x="339.111328" xlink:href="#ArialMT-111"/>
     <use x="394.726562" xlink:href="#ArialMT-99"/>
     <use x="444.726562" xlink:href="#ArialMT-97"/>
     <use x="500.341797" xlink:href="#ArialMT-116"/>
     <use x="528.125" xlink:href="#ArialMT-105"/>
     <use x="550.341797" xlink:href="#ArialMT-111"/>
     <use x="605.957031" xlink:href="#ArialMT-110"/>
     <use x="661.572266" xlink:href="#ArialMT-95"/>
     <use x="717.1875" xlink:href="#ArialMT-99"/>
     <use x="767.1875" xlink:href="#ArialMT-101"/>
     <use x="822.802734" xlink:href="#ArialMT-110"/>
     <use x="878.417969" xlink:href="#ArialMT-116"/>
     <use x="906.201172" xlink:href="#ArialMT-101"/>
     <use x="961.816406" xlink:href="#ArialMT-114"/>
     <use x="995.117188" xlink:href="#ArialMT-95"/>
     <use x="1050.732422" xlink:href="#ArialMT-120"/>
    </g>
   </g>
   <g id="text_25">
    <!-- perinuclei_areashape_area -->
    <g transform="translate(44.726208 225.831896)scale(0.06 -0.06)">
     <use xlink:href="#ArialMT-112"/>
     <use x="55.615234" xlink:href="#ArialMT-101"/>
     <use x="111.230469" xlink:href="#ArialMT-114"/>
     <use x="144.53125" xlink:href="#ArialMT-105"/>
     <use x="166.748047" xlink:href="#ArialMT-110"/>
     <use x="222.363281" xlink:href="#ArialMT-117"/>
     <use x="277.978516" xlink:href="#ArialMT-99"/>
     <use x="327.978516" xlink:href="#ArialMT-108"/>
     <use x="350.195312" xlink:href="#ArialMT-101"/>
     <use x="405.810547" xlink:href="#ArialMT-105"/>
     <use x="428.027344" xlink:href="#ArialMT-95"/>
     <use x="483.642578" xlink:href="#ArialMT-97"/>
     <use x="539.257812" xlink:href="#ArialMT-114"/>
     <use x="572.558594" xlink:href="#ArialMT-101"/>
     <use x="628.173828" xlink:href="#ArialMT-97"/>
     <use x="683.789062" xlink:href="#ArialMT-115"/>
     <use x="733.789062" xlink:href="#ArialMT-104"/>
     <use x="789.404297" xlink:href="#ArialMT-97"/>
     <use x="845.019531" xlink:href="#ArialMT-112"/>
     <use x="900.634766" xlink:href="#ArialMT-101"/>
     <use x="956.25" xlink:href="#ArialMT-95"/>
     <use x="1011.865234" xlink:href="#ArialMT-97"/>
     <use x="1067.480469" xlink:href="#ArialMT-114"/>
     <use x="1100.78125" xlink:href="#ArialMT-101"/>
     <use x="1156.396484" xlink:href="#ArialMT-97"/>
    </g>
   </g>
   <g id="text_26">
    <!-- perinuclei_areashape_majoraxislength -->
    <g transform="translate(37.902759 235.583844)scale(0.06 -0.06)">
     <use xlink:href="#ArialMT-112"/>
     <use x="55.615234" xlink:href="#ArialMT-101"/>
     <use x="111.230469" xlink:href="#ArialMT-114"/>
     <use x="144.53125" xlink:href="#ArialMT-105"/>
     <use x="166.748047" xlink:href="#ArialMT-110"/>
     <use x="222.363281" xlink:href="#ArialMT-117"/>
     <use x="277.978516" xlink:href="#ArialMT-99"/>
     <use x="327.978516" xlink:href="#ArialMT-108"/>
     <use x="350.195312" xlink:href="#ArialMT-101"/>
     <use x="405.810547" xlink:href="#ArialMT-105"/>
     <use x="428.027344" xlink:href="#ArialMT-95"/>
     <use x="483.642578" xlink:href="#ArialMT-97"/>
     <use x="539.257812" xlink:href="#ArialMT-114"/>
     <use x="572.558594" xlink:href="#ArialMT-101"/>
     <use x="628.173828" xlink:href="#ArialMT-97"/>
     <use x="683.789062" xlink:href="#ArialMT-115"/>
     <use x="733.789062" xlink:href="#ArialMT-104"/>
     <use x="789.404297" xlink:href="#ArialMT-97"/>
     <use x="845.019531" xlink:href="#ArialMT-112"/>
     <use x="900.634766" xlink:href="#ArialMT-101"/>
     <use x="956.25" xlink:href="#ArialMT-95"/>
     <use x="1011.865234" xlink:href="#ArialMT-109"/>
     <use x="1095.166016" xlink:href="#ArialMT-97"/>
     <use x="1150.78125" xlink:href="#ArialMT-106"/>
     <use x="1172.998047" xlink:href="#ArialMT-111"/>
     <use x="1228.613281" xlink:href="#ArialMT-114"/>
     <use x="1261.914062" xlink:href="#ArialMT-97"/>
     <use x="1317.529297" xlink:href="#ArialMT-120"/>
     <use x="1367.529297" xlink:href="#ArialMT-105"/>
     <use x="1389.746094" xlink:href="#ArialMT-115"/>
     <use x="1439.746094" xlink:href="#ArialMT-108"/>
     <use x="1461.962891" xlink:href="#ArialMT-101"/>
     <use x="1517.578125" xlink:href="#ArialMT-110"/>
     <use x="1573.193359" xlink:href="#ArialMT-103"/>
     <use x="1628.808594" xlink:href="#ArialMT-116"/>
     <use x="1656.591797" xlink:href="#ArialMT-104"/>
    </g>
   </g>
   <g id="text_27">
    <!-- perinuclei_areashape_minoraxislength -->
    <g transform="translate(59.907396 234.159265)scale(0.06 -0.06)">
     <use xlink:href="#ArialMT-112"/>
     <use x="55.615234" xlink:href="#ArialMT-101"/>
     <use x="111.230469" xlink:href="#ArialMT-114"/>
     <use x="144.53125" xlink:href="#ArialMT-105"/>
     <use x="166.748047" xlink:href="#ArialMT-110"/>
     <use x="222.363281" xlink:href="#ArialMT-117"/>
     <use x="277.978516" xlink:href="#ArialMT-99"/>
     <use x="327.978516" xlink:href="#ArialMT-108"/>
     <use x="350.195312" xlink:href="#ArialMT-101"/>
     <use x="405.810547" xlink:href="#ArialMT-105"/>
     <use x="428.027344" xlink:href="#ArialMT-95"/>
     <use x="483.642578" xlink:href="#ArialMT-97"/>
     <use x="539.257812" xlink:href="#ArialMT-114"/>
     <use x="572.558594" xlink:href="#ArialMT-101"/>
     <use x="628.173828" xlink:href="#ArialMT-97"/>
     <use x="683.789062" xlink:href="#ArialMT-115"/>
     <use x="733.789062" xlink:href="#ArialMT-104"/>
     <use x="789.404297" xlink:href="#ArialMT-97"/>
     <use x="845.019531" xlink:href="#ArialMT-112"/>
     <use x="900.634766" xlink:href="#ArialMT-101"/>
     <use x="956.25" xlink:href="#ArialMT-95"/>
     <use x="1011.865234" xlink:href="#ArialMT-109"/>
     <use x="1095.166016" xlink:href="#ArialMT-105"/>
     <use x="1117.382812" xlink:href="#ArialMT-110"/>
     <use x="1172.998047" xlink:href="#ArialMT-111"/>
     <use x="1228.613281" xlink:href="#ArialMT-114"/>
     <use x="1261.914062" xlink:href="#ArialMT-97"/>
     <use x="1317.529297" xlink:href="#ArialMT-120"/>
     <use x="1367.529297" xlink:href="#ArialMT-105"/>
     <use x="1389.746094" xlink:href="#ArialMT-115"/>
     <use x="1439.746094" xlink:href="#ArialMT-108"/>
     <use x="1461.962891" xlink:href="#ArialMT-101"/>
     <use x="1517.578125" xlink:href="#ArialMT-110"/>
     <use x="1573.193359" xlink:href="#ArialMT-103"/>
     <use x="1628.808594" xlink:href="#ArialMT-116"/>
     <use x="1656.591797" xlink:href="#ArialMT-104"/>
    </g>
   </g>
   <g id="text_28">
    <!-- perinuclei_areashape_perimeter -->
    <g transform="translate(10.830153 219.918563)scale(0.06 -0.06)">
     <use xlink:href="#ArialMT-112"/>
     <use x="55.615234" xlink:href="#ArialMT-101"/>
     <use x="111.230469" xlink:href="#ArialMT-114"/>
     <use x="144.53125" xlink:href="#ArialMT-105"/>
     <use x="166.748047" xlink:href="#ArialMT-110"/>
     <use x="222.363281" xlink:href="#ArialMT-117"/>
     <use x="277.978516" xlink:href="#ArialMT-99"/>
     <use x="327.978516" xlink:href="#ArialMT-108"/>
     <use x="350.195312" xlink:href="#ArialMT-101"/>
     <use x="405.810547" xlink:href="#ArialMT-105"/>
     <use x="428.027344" xlink:href="#ArialMT-95"/>
     <use x="483.642578" xlink:href="#ArialMT-97"/>
     <use x="539.257812" xlink:href="#ArialMT-114"/>
     <use x="572.558594" xlink:href="#ArialMT-101"/>
     <use x="628.173828" xlink:href="#ArialMT-97"/>
     <use x="683.789062" xlink:href="#ArialMT-115"/>
     <use x="733.789062" xlink:href="#ArialMT-104"/>
     <use x="789.404297" xlink:href="#ArialMT-97"/>
     <use x="845.019531" xlink:href="#ArialMT-112"/>
     <use x="900.634766" xlink:href="#ArialMT-101"/>
     <use x="956.25" xlink:href="#ArialMT-95"/>
     <use x="1011.865234" xlink:href="#ArialMT-112"/>
     <use x="1067.480469" xlink:href="#ArialMT-101"/>
     <use x="1123.095703" xlink:href="#ArialMT-114"/>
     <use x="1156.396484" xlink:href="#ArialMT-105"/>
     <use x="1178.613281" xlink:href="#ArialMT-109"/>
     <use x="1261.914062" xlink:href="#ArialMT-101"/>
     <use x="1317.529297" xlink:href="#ArialMT-116"/>
     <use x="1345.3125" xlink:href="#ArialMT-101"/>
     <use x="1400.927734" xlink:href="#ArialMT-114"/>
    </g>
   </g>
   <g id="text_29">
    <!-- perinuclei_location_center_x -->
    <g transform="translate(506.814987 19.885409)scale(0.06 -0.06)">
     <use xlink:href="#ArialMT-112"/>
     <use x="55.615234" xlink:href="#ArialMT-101"/>
     <use x="111.230469" xlink:href="#ArialMT-114"/>
     <use x="144.53125" xlink:href="#ArialMT-105"/>
     <use x="166.748047" xlink:href="#ArialMT-110"/>
     <use x="222.363281" xlink:href="#ArialMT-117"/>
     <use x="277.978516" xlink:href="#ArialMT-99"/>
     <use x="327.978516" xlink:href="#ArialMT-108"/>
     <use x="350.195312" xlink:href="#ArialMT-101"/>
     <use x="405.810547" xlink:href="#ArialMT-105"/>
     <use x="428.027344" xlink:href="#ArialMT-95"/>
     <use x="483.642578" xlink:href="#ArialMT-108"/>
     <use x="505.859375" xlink:href="#ArialMT-111"/>
     <use x="561.474609" xlink:href="#ArialMT-99"/>
     <use x="611.474609" xlink:href="#ArialMT-97"/>
     <use x="667.089844" xlink:href="#ArialMT-116"/>
     <use x="694.873047" xlink:href="#ArialMT-105"/>
     <use x="717.089844" xlink:href="#ArialMT-111"/>
     <use x="772.705078" xlink:href="#ArialMT-110"/>
     <use x="828.320312" xlink:href="#ArialMT-95"/>
     <use x="883.935547" xlink:href="#ArialMT-99"/>
     <use x="933.935547" xlink:href="#ArialMT-101"/>
     <use x="989.550781" xlink:href="#ArialMT-110"/>
     <use x="1045.166016" xlink:href="#ArialMT-116"/>
     <use x="1072.949219" xlink:href="#ArialMT-101"/>
     <use x="1128.564453" xlink:href="#ArialMT-114"/>
     <use x="1161.865234" xlink:href="#ArialMT-95"/>
     <use x="1217.480469" xlink:href="#ArialMT-120"/>
    </g>
   </g>
   <g id="text_30">
    <!-- perinuclei_parent_expandednuclei -->
    <g transform="translate(531.975427 14.239258)scale(0.06 -0.06)">
     <use xlink:href="#ArialMT-112"/>
     <use x="55.615234" xlink:href="#ArialMT-101"/>
     <use x="111.230469" xlink:href="#ArialMT-114"/>
     <use x="144.53125" xlink:href="#ArialMT-105"/>
     <use x="166.748047" xlink:href="#ArialMT-110"/>
     <use x="222.363281" xlink:href="#ArialMT-117"/>
     <use x="277.978516" xlink:href="#ArialMT-99"/>
     <use x="327.978516" xlink:href="#ArialMT-108"/>
     <use x="350.195312" xlink:href="#ArialMT-101"/>
     <use x="405.810547" xlink:href="#ArialMT-105"/>
     <use x="428.027344" xlink:href="#ArialMT-95"/>
     <use x="483.642578" xlink:href="#ArialMT-112"/>
     <use x="539.257812" xlink:href="#ArialMT-97"/>
     <use x="594.873047" xlink:href="#ArialMT-114"/>
     <use x="628.173828" xlink:href="#ArialMT-101"/>
     <use x="683.789062" xlink:href="#ArialMT-110"/>
     <use x="739.404297" xlink:href="#ArialMT-116"/>
     <use x="767.1875" xlink:href="#ArialMT-95"/>
     <use x="822.802734" xlink:href="#ArialMT-101"/>
     <use x="878.417969" xlink:href="#ArialMT-120"/>
     <use x="928.417969" xlink:href="#ArialMT-112"/>
     <use x="984.033203" xlink:href="#ArialMT-97"/>
     <use x="1039.648438" xlink:href="#ArialMT-110"/>
     <use x="1095.263672" xlink:href="#ArialMT-100"/>
     <use x="1150.878906" xlink:href="#ArialMT-101"/>
     <use x="1206.494141" xlink:href="#ArialMT-100"/>
     <use x="1262.109375" xlink:href="#ArialMT-110"/>
     <use x="1317.724609" xlink:href="#ArialMT-117"/>
     <use x="1373.339844" xlink:href="#ArialMT-99"/>
     <use x="1423.339844" xlink:href="#ArialMT-108"/>
     <use x="1445.556641" xlink:href="#ArialMT-101"/>
     <use x="1501.171875" xlink:href="#ArialMT-105"/>
    </g>
   </g>
   <g id="text_31">
    <!-- perinuclei_parent_nuclei -->
    <g transform="translate(545.153396 14.239258)scale(0.06 -0.06)">
     <use xlink:href="#ArialMT-112"/>
     <use x="55.615234" xlink:href="#ArialMT-101"/>
     <use x="111.230469" xlink:href="#ArialMT-114"/>
     <use x="144.53125" xlink:href="#ArialMT-105"/>
     <use x="166.748047" xlink:href="#ArialMT-110"/>
     <use x="222.363281" xlink:href="#ArialMT-117"/>
     <use x="277.978516" xlink:href="#ArialMT-99"/>
     <use x="327.978516" xlink:href="#ArialMT-108"/>
     <use x="350.195312" xlink:href="#ArialMT-101"/>
     <use x="405.810547" xlink:href="#ArialMT-105"/>
     <use x="428.027344" xlink:href="#ArialMT-95"/>
     <use x="483.642578" xlink:href="#ArialMT-112"/>
     <use x="539.257812" xlink:href="#ArialMT-97"/>
     <use x="594.873047" xlink:href="#ArialMT-114"/>
     <use x="628.173828" xlink:href="#ArialMT-101"/>
     <use x="683.789062" xlink:href="#ArialMT-110"/>
     <use x="739.404297" xlink:href="#ArialMT-116"/>
     <use x="767.1875" xlink:href="#ArialMT-95"/>
     <use x="822.802734" xlink:href="#ArialMT-110"/>
     <use x="878.417969" xlink:href="#ArialMT-117"/>
     <use x="934.033203" xlink:href="#ArialMT-99"/>
     <use x="984.033203" xlink:href="#ArialMT-108"/>
     <use x="1006.25" xlink:href="#ArialMT-101"/>
     <use x="1061.865234" xlink:href="#ArialMT-105"/>
    </g>
   </g>
  </g>
 </g>
 <defs>
  <clipPath id="pec9099d0ee">
   <rect height="344.286239" width="502.391129" x="77.683606" y="38.165761"/>
  </clipPath>
 </defs>
</svg>
