<?xml version="1.0" encoding="utf-8" standalone="no"?>
<!DOCTYPE svg PUBLIC "-//W3C//DTD SVG 1.1//EN"
  "http://www.w3.org/Graphics/SVG/1.1/DTD/svg11.dtd">
<!-- Created with matplotlib (https://matplotlib.org/) -->
<svg height="432pt" version="1.1" viewBox="0 0 648 432" width="648pt" xmlns="http://www.w3.org/2000/svg" xmlns:xlink="http://www.w3.org/1999/xlink">
 <defs>
  <style type="text/css">
*{stroke-linecap:butt;stroke-linejoin:round;}
  </style>
 </defs>
 <g id="figure_1">
  <g id="patch_1">
   <path d="M 0 432 
L 648 432 
L 648 0 
L 0 0 
z
" style="fill:#ffffff;"/>
  </g>
  <g id="axes_1">
   <g id="patch_2">
    <path d="M 62.465 382.252 
L 592.18125 382.252 
L 592.18125 55.81875 
L 62.465 55.81875 
z
" style="fill:#ffffff;"/>
   </g>
   <g id="matplotlib.axis_1">
    <g id="xtick_1">
     <g id="line2d_1">
      <path clip-path="url(#p81b2447afc)" d="M 65.01747 382.252 
L 65.01747 55.81875 
" style="fill:none;stroke:#dcdcdc;stroke-linecap:round;stroke-width:0.8;"/>
     </g>
     <g id="text_1">
      <!-- −0.004 -->
      <defs>
       <path d="M 52.828125 31.203125 
L 5.5625 31.203125 
L 5.5625 39.40625 
L 52.828125 39.40625 
z
" id="ArialMT-8722"/>
       <path d="M 4.15625 35.296875 
Q 4.15625 48 6.765625 55.734375 
Q 9.375 63.484375 14.515625 67.671875 
Q 19.671875 71.875 27.484375 71.875 
Q 33.25 71.875 37.59375 69.546875 
Q 41.9375 67.234375 44.765625 62.859375 
Q 47.609375 58.5 49.21875 52.21875 
Q 50.828125 45.953125 50.828125 35.296875 
Q 50.828125 22.703125 48.234375 14.96875 
Q 45.65625 7.234375 40.5 3 
Q 35.359375 -1.21875 27.484375 -1.21875 
Q 17.140625 -1.21875 11.234375 6.203125 
Q 4.15625 15.140625 4.15625 35.296875 
z
M 13.1875 35.296875 
Q 13.1875 17.671875 17.3125 11.828125 
Q 21.4375 6 27.484375 6 
Q 33.546875 6 37.671875 11.859375 
Q 41.796875 17.71875 41.796875 35.296875 
Q 41.796875 52.984375 37.671875 58.78125 
Q 33.546875 64.59375 27.390625 64.59375 
Q 21.34375 64.59375 17.71875 59.46875 
Q 13.1875 52.9375 13.1875 35.296875 
z
" id="ArialMT-48"/>
       <path d="M 9.078125 0 
L 9.078125 10.015625 
L 19.09375 10.015625 
L 19.09375 0 
z
" id="ArialMT-46"/>
       <path d="M 32.328125 0 
L 32.328125 17.140625 
L 1.265625 17.140625 
L 1.265625 25.203125 
L 33.9375 71.578125 
L 41.109375 71.578125 
L 41.109375 25.203125 
L 50.78125 25.203125 
L 50.78125 17.140625 
L 41.109375 17.140625 
L 41.109375 0 
z
M 32.328125 25.203125 
L 32.328125 57.46875 
L 9.90625 25.203125 
z
" id="ArialMT-52"/>
      </defs>
      <g style="fill:#262626;" transform="translate(49.58622 396.409812)scale(0.1 -0.1)">
       <use xlink:href="#ArialMT-8722"/>
       <use x="58.398438" xlink:href="#ArialMT-48"/>
       <use x="114.013672" xlink:href="#ArialMT-46"/>
       <use x="141.796875" xlink:href="#ArialMT-48"/>
       <use x="197.412109" xlink:href="#ArialMT-48"/>
       <use x="253.027344" xlink:href="#ArialMT-52"/>
      </g>
     </g>
    </g>
    <g id="xtick_2">
     <g id="line2d_2">
      <path clip-path="url(#p81b2447afc)" d="M 160.865745 382.252 
L 160.865745 55.81875 
" style="fill:none;stroke:#dcdcdc;stroke-linecap:round;stroke-width:0.8;"/>
     </g>
     <g id="text_2">
      <!-- −0.003 -->
      <defs>
       <path d="M 4.203125 18.890625 
L 12.984375 20.0625 
Q 14.5 12.59375 18.140625 9.296875 
Q 21.78125 6 27 6 
Q 33.203125 6 37.46875 10.296875 
Q 41.75 14.59375 41.75 20.953125 
Q 41.75 27 37.796875 30.921875 
Q 33.84375 34.859375 27.734375 34.859375 
Q 25.25 34.859375 21.53125 33.890625 
L 22.515625 41.609375 
Q 23.390625 41.5 23.921875 41.5 
Q 29.546875 41.5 34.03125 44.421875 
Q 38.53125 47.359375 38.53125 53.46875 
Q 38.53125 58.296875 35.25 61.46875 
Q 31.984375 64.65625 26.8125 64.65625 
Q 21.6875 64.65625 18.265625 61.421875 
Q 14.84375 58.203125 13.875 51.765625 
L 5.078125 53.328125 
Q 6.6875 62.15625 12.390625 67.015625 
Q 18.109375 71.875 26.609375 71.875 
Q 32.46875 71.875 37.390625 69.359375 
Q 42.328125 66.84375 44.9375 62.5 
Q 47.5625 58.15625 47.5625 53.265625 
Q 47.5625 48.640625 45.0625 44.828125 
Q 42.578125 41.015625 37.703125 38.765625 
Q 44.046875 37.3125 47.5625 32.6875 
Q 51.078125 28.078125 51.078125 21.140625 
Q 51.078125 11.765625 44.234375 5.25 
Q 37.40625 -1.265625 26.953125 -1.265625 
Q 17.53125 -1.265625 11.296875 4.34375 
Q 5.078125 9.96875 4.203125 18.890625 
z
" id="ArialMT-51"/>
      </defs>
      <g style="fill:#262626;" transform="translate(145.434495 396.409812)scale(0.1 -0.1)">
       <use xlink:href="#ArialMT-8722"/>
       <use x="58.398438" xlink:href="#ArialMT-48"/>
       <use x="114.013672" xlink:href="#ArialMT-46"/>
       <use x="141.796875" xlink:href="#ArialMT-48"/>
       <use x="197.412109" xlink:href="#ArialMT-48"/>
       <use x="253.027344" xlink:href="#ArialMT-51"/>
      </g>
     </g>
    </g>
    <g id="xtick_3">
     <g id="line2d_3">
      <path clip-path="url(#p81b2447afc)" d="M 256.714019 382.252 
L 256.714019 55.81875 
" style="fill:none;stroke:#dcdcdc;stroke-linecap:round;stroke-width:0.8;"/>
     </g>
     <g id="text_3">
      <!-- −0.002 -->
      <defs>
       <path d="M 50.34375 8.453125 
L 50.34375 0 
L 3.03125 0 
Q 2.9375 3.171875 4.046875 6.109375 
Q 5.859375 10.9375 9.828125 15.625 
Q 13.8125 20.3125 21.34375 26.46875 
Q 33.015625 36.03125 37.109375 41.625 
Q 41.21875 47.21875 41.21875 52.203125 
Q 41.21875 57.421875 37.46875 61 
Q 33.734375 64.59375 27.734375 64.59375 
Q 21.390625 64.59375 17.578125 60.78125 
Q 13.765625 56.984375 13.71875 50.25 
L 4.6875 51.171875 
Q 5.609375 61.28125 11.65625 66.578125 
Q 17.71875 71.875 27.9375 71.875 
Q 38.234375 71.875 44.234375 66.15625 
Q 50.25 60.453125 50.25 52 
Q 50.25 47.703125 48.484375 43.546875 
Q 46.734375 39.40625 42.65625 34.8125 
Q 38.578125 30.21875 29.109375 22.21875 
Q 21.1875 15.578125 18.9375 13.203125 
Q 16.703125 10.84375 15.234375 8.453125 
z
" id="ArialMT-50"/>
      </defs>
      <g style="fill:#262626;" transform="translate(241.282769 396.409812)scale(0.1 -0.1)">
       <use xlink:href="#ArialMT-8722"/>
       <use x="58.398438" xlink:href="#ArialMT-48"/>
       <use x="114.013672" xlink:href="#ArialMT-46"/>
       <use x="141.796875" xlink:href="#ArialMT-48"/>
       <use x="197.412109" xlink:href="#ArialMT-48"/>
       <use x="253.027344" xlink:href="#ArialMT-50"/>
      </g>
     </g>
    </g>
    <g id="xtick_4">
     <g id="line2d_4">
      <path clip-path="url(#p81b2447afc)" d="M 352.562294 382.252 
L 352.562294 55.81875 
" style="fill:none;stroke:#dcdcdc;stroke-linecap:round;stroke-width:0.8;"/>
     </g>
     <g id="text_4">
      <!-- −0.001 -->
      <defs>
       <path d="M 37.25 0 
L 28.46875 0 
L 28.46875 56 
Q 25.296875 52.984375 20.140625 49.953125 
Q 14.984375 46.921875 10.890625 45.40625 
L 10.890625 53.90625 
Q 18.265625 57.375 23.78125 62.296875 
Q 29.296875 67.234375 31.59375 71.875 
L 37.25 71.875 
z
" id="ArialMT-49"/>
      </defs>
      <g style="fill:#262626;" transform="translate(337.131044 396.409812)scale(0.1 -0.1)">
       <use xlink:href="#ArialMT-8722"/>
       <use x="58.398438" xlink:href="#ArialMT-48"/>
       <use x="114.013672" xlink:href="#ArialMT-46"/>
       <use x="141.796875" xlink:href="#ArialMT-48"/>
       <use x="197.412109" xlink:href="#ArialMT-48"/>
       <use x="253.027344" xlink:href="#ArialMT-49"/>
      </g>
     </g>
    </g>
    <g id="xtick_5">
     <g id="line2d_5">
      <path clip-path="url(#p81b2447afc)" d="M 448.410569 382.252 
L 448.410569 55.81875 
" style="fill:none;stroke:#dcdcdc;stroke-linecap:round;stroke-width:0.8;"/>
     </g>
     <g id="text_5">
      <!-- 0.000 -->
      <g style="fill:#262626;" transform="translate(435.899631 396.409812)scale(0.1 -0.1)">
       <use xlink:href="#ArialMT-48"/>
       <use x="55.615234" xlink:href="#ArialMT-46"/>
       <use x="83.398438" xlink:href="#ArialMT-48"/>
       <use x="139.013672" xlink:href="#ArialMT-48"/>
       <use x="194.628906" xlink:href="#ArialMT-48"/>
      </g>
     </g>
    </g>
    <g id="xtick_6">
     <g id="line2d_6">
      <path clip-path="url(#p81b2447afc)" d="M 544.258844 382.252 
L 544.258844 55.81875 
" style="fill:none;stroke:#dcdcdc;stroke-linecap:round;stroke-width:0.8;"/>
     </g>
     <g id="text_6">
      <!-- 0.001 -->
      <g style="fill:#262626;" transform="translate(531.747906 396.409812)scale(0.1 -0.1)">
       <use xlink:href="#ArialMT-48"/>
       <use x="55.615234" xlink:href="#ArialMT-46"/>
       <use x="83.398438" xlink:href="#ArialMT-48"/>
       <use x="139.013672" xlink:href="#ArialMT-48"/>
       <use x="194.628906" xlink:href="#ArialMT-49"/>
      </g>
     </g>
    </g>
    <g id="text_7">
     <!-- Component 1 -->
     <defs>
      <path d="M 58.796875 25.09375 
L 68.265625 22.703125 
Q 65.28125 11.03125 57.546875 4.90625 
Q 49.8125 -1.21875 38.625 -1.21875 
Q 27.046875 -1.21875 19.796875 3.484375 
Q 12.546875 8.203125 8.765625 17.140625 
Q 4.984375 26.078125 4.984375 36.328125 
Q 4.984375 47.515625 9.25 55.828125 
Q 13.53125 64.15625 21.40625 68.46875 
Q 29.296875 72.796875 38.765625 72.796875 
Q 49.515625 72.796875 56.828125 67.328125 
Q 64.15625 61.859375 67.046875 51.953125 
L 57.71875 49.75 
Q 55.21875 57.5625 50.484375 61.125 
Q 45.75 64.703125 38.578125 64.703125 
Q 30.328125 64.703125 24.78125 60.734375 
Q 19.234375 56.78125 16.984375 50.109375 
Q 14.75 43.453125 14.75 36.375 
Q 14.75 27.25 17.40625 20.4375 
Q 20.0625 13.625 25.671875 10.25 
Q 31.296875 6.890625 37.84375 6.890625 
Q 45.796875 6.890625 51.3125 11.46875 
Q 56.84375 16.0625 58.796875 25.09375 
z
" id="ArialMT-67"/>
      <path d="M 3.328125 25.921875 
Q 3.328125 40.328125 11.328125 47.265625 
Q 18.015625 53.03125 27.640625 53.03125 
Q 38.328125 53.03125 45.109375 46.015625 
Q 51.90625 39.015625 51.90625 26.65625 
Q 51.90625 16.65625 48.90625 10.90625 
Q 45.90625 5.171875 40.15625 2 
Q 34.421875 -1.171875 27.640625 -1.171875 
Q 16.75 -1.171875 10.03125 5.8125 
Q 3.328125 12.796875 3.328125 25.921875 
z
M 12.359375 25.921875 
Q 12.359375 15.96875 16.703125 11.015625 
Q 21.046875 6.0625 27.640625 6.0625 
Q 34.1875 6.0625 38.53125 11.03125 
Q 42.875 16.015625 42.875 26.21875 
Q 42.875 35.84375 38.5 40.796875 
Q 34.125 45.75 27.640625 45.75 
Q 21.046875 45.75 16.703125 40.8125 
Q 12.359375 35.890625 12.359375 25.921875 
z
" id="ArialMT-111"/>
      <path d="M 6.59375 0 
L 6.59375 51.859375 
L 14.453125 51.859375 
L 14.453125 44.578125 
Q 16.890625 48.390625 20.9375 50.703125 
Q 25 53.03125 30.171875 53.03125 
Q 35.9375 53.03125 39.625 50.640625 
Q 43.3125 48.25 44.828125 43.953125 
Q 50.984375 53.03125 60.84375 53.03125 
Q 68.5625 53.03125 72.703125 48.75 
Q 76.859375 44.484375 76.859375 35.59375 
L 76.859375 0 
L 68.109375 0 
L 68.109375 32.671875 
Q 68.109375 37.9375 67.25 40.25 
Q 66.40625 42.578125 64.15625 43.984375 
Q 61.921875 45.40625 58.890625 45.40625 
Q 53.421875 45.40625 49.796875 41.765625 
Q 46.1875 38.140625 46.1875 30.125 
L 46.1875 0 
L 37.40625 0 
L 37.40625 33.6875 
Q 37.40625 39.546875 35.25 42.46875 
Q 33.109375 45.40625 28.21875 45.40625 
Q 24.515625 45.40625 21.359375 43.453125 
Q 18.21875 41.5 16.796875 37.734375 
Q 15.375 33.984375 15.375 26.90625 
L 15.375 0 
z
" id="ArialMT-109"/>
      <path d="M 6.59375 -19.875 
L 6.59375 51.859375 
L 14.59375 51.859375 
L 14.59375 45.125 
Q 17.4375 49.078125 21 51.046875 
Q 24.5625 53.03125 29.640625 53.03125 
Q 36.28125 53.03125 41.359375 49.609375 
Q 46.4375 46.1875 49.015625 39.953125 
Q 51.609375 33.734375 51.609375 26.3125 
Q 51.609375 18.359375 48.75 11.984375 
Q 45.90625 5.609375 40.453125 2.21875 
Q 35.015625 -1.171875 29 -1.171875 
Q 24.609375 -1.171875 21.109375 0.6875 
Q 17.625 2.546875 15.375 5.375 
L 15.375 -19.875 
z
M 14.546875 25.640625 
Q 14.546875 15.625 18.59375 10.84375 
Q 22.65625 6.0625 28.421875 6.0625 
Q 34.28125 6.0625 38.453125 11.015625 
Q 42.625 15.96875 42.625 26.375 
Q 42.625 36.28125 38.546875 41.203125 
Q 34.46875 46.140625 28.8125 46.140625 
Q 23.1875 46.140625 18.859375 40.890625 
Q 14.546875 35.640625 14.546875 25.640625 
z
" id="ArialMT-112"/>
      <path d="M 6.59375 0 
L 6.59375 51.859375 
L 14.5 51.859375 
L 14.5 44.484375 
Q 20.21875 53.03125 31 53.03125 
Q 35.6875 53.03125 39.625 51.34375 
Q 43.5625 49.65625 45.515625 46.921875 
Q 47.46875 44.1875 48.25 40.4375 
Q 48.734375 37.984375 48.734375 31.890625 
L 48.734375 0 
L 39.9375 0 
L 39.9375 31.546875 
Q 39.9375 36.921875 38.90625 39.578125 
Q 37.890625 42.234375 35.28125 43.8125 
Q 32.671875 45.40625 29.15625 45.40625 
Q 23.53125 45.40625 19.453125 41.84375 
Q 15.375 38.28125 15.375 28.328125 
L 15.375 0 
z
" id="ArialMT-110"/>
      <path d="M 42.09375 16.703125 
L 51.171875 15.578125 
Q 49.03125 7.625 43.21875 3.21875 
Q 37.40625 -1.171875 28.375 -1.171875 
Q 17 -1.171875 10.328125 5.828125 
Q 3.65625 12.84375 3.65625 25.484375 
Q 3.65625 38.578125 10.390625 45.796875 
Q 17.140625 53.03125 27.875 53.03125 
Q 38.28125 53.03125 44.875 45.953125 
Q 51.46875 38.875 51.46875 26.03125 
Q 51.46875 25.25 51.421875 23.6875 
L 12.75 23.6875 
Q 13.234375 15.140625 17.578125 10.59375 
Q 21.921875 6.0625 28.421875 6.0625 
Q 33.25 6.0625 36.671875 8.59375 
Q 40.09375 11.140625 42.09375 16.703125 
z
M 13.234375 30.90625 
L 42.1875 30.90625 
Q 41.609375 37.453125 38.875 40.71875 
Q 34.671875 45.796875 27.984375 45.796875 
Q 21.921875 45.796875 17.796875 41.75 
Q 13.671875 37.703125 13.234375 30.90625 
z
" id="ArialMT-101"/>
      <path d="M 25.78125 7.859375 
L 27.046875 0.09375 
Q 23.34375 -0.6875 20.40625 -0.6875 
Q 15.625 -0.6875 12.984375 0.828125 
Q 10.359375 2.34375 9.28125 4.8125 
Q 8.203125 7.28125 8.203125 15.1875 
L 8.203125 45.015625 
L 1.765625 45.015625 
L 1.765625 51.859375 
L 8.203125 51.859375 
L 8.203125 64.703125 
L 16.9375 69.96875 
L 16.9375 51.859375 
L 25.78125 51.859375 
L 25.78125 45.015625 
L 16.9375 45.015625 
L 16.9375 14.703125 
Q 16.9375 10.9375 17.40625 9.859375 
Q 17.875 8.796875 18.921875 8.15625 
Q 19.96875 7.515625 21.921875 7.515625 
Q 23.390625 7.515625 25.78125 7.859375 
z
" id="ArialMT-116"/>
      <path id="ArialMT-32"/>
     </defs>
     <g style="fill:#262626;" transform="translate(547.155469 417.654025)scale(0.15 -0.15)">
      <use xlink:href="#ArialMT-67"/>
      <use x="72.216797" xlink:href="#ArialMT-111"/>
      <use x="127.832031" xlink:href="#ArialMT-109"/>
      <use x="211.132812" xlink:href="#ArialMT-112"/>
      <use x="266.748047" xlink:href="#ArialMT-111"/>
      <use x="322.363281" xlink:href="#ArialMT-110"/>
      <use x="377.978516" xlink:href="#ArialMT-101"/>
      <use x="433.59375" xlink:href="#ArialMT-110"/>
      <use x="489.208984" xlink:href="#ArialMT-116"/>
      <use x="516.992188" xlink:href="#ArialMT-32"/>
      <use x="544.775391" xlink:href="#ArialMT-49"/>
     </g>
    </g>
   </g>
   <g id="matplotlib.axis_2">
    <g id="ytick_1">
     <g id="line2d_7">
      <path clip-path="url(#p81b2447afc)" d="M 62.465 381.253986 
L 592.18125 381.253986 
" style="fill:none;stroke:#dcdcdc;stroke-linecap:round;stroke-width:0.8;"/>
     </g>
     <g id="text_8">
      <!-- −0.003 -->
      <g style="fill:#262626;" transform="translate(24.6025 384.832893)scale(0.1 -0.1)">
       <use xlink:href="#ArialMT-8722"/>
       <use x="58.398438" xlink:href="#ArialMT-48"/>
       <use x="114.013672" xlink:href="#ArialMT-46"/>
       <use x="141.796875" xlink:href="#ArialMT-48"/>
       <use x="197.412109" xlink:href="#ArialMT-48"/>
       <use x="253.027344" xlink:href="#ArialMT-51"/>
      </g>
     </g>
    </g>
    <g id="ytick_2">
     <g id="line2d_8">
      <path clip-path="url(#p81b2447afc)" d="M 62.465 324.327812 
L 592.18125 324.327812 
" style="fill:none;stroke:#dcdcdc;stroke-linecap:round;stroke-width:0.8;"/>
     </g>
     <g id="text_9">
      <!-- −0.002 -->
      <g style="fill:#262626;" transform="translate(24.6025 327.906719)scale(0.1 -0.1)">
       <use xlink:href="#ArialMT-8722"/>
       <use x="58.398438" xlink:href="#ArialMT-48"/>
       <use x="114.013672" xlink:href="#ArialMT-46"/>
       <use x="141.796875" xlink:href="#ArialMT-48"/>
       <use x="197.412109" xlink:href="#ArialMT-48"/>
       <use x="253.027344" xlink:href="#ArialMT-50"/>
      </g>
     </g>
    </g>
    <g id="ytick_3">
     <g id="line2d_9">
      <path clip-path="url(#p81b2447afc)" d="M 62.465 267.401638 
L 592.18125 267.401638 
" style="fill:none;stroke:#dcdcdc;stroke-linecap:round;stroke-width:0.8;"/>
     </g>
     <g id="text_10">
      <!-- −0.001 -->
      <g style="fill:#262626;" transform="translate(24.6025 270.980545)scale(0.1 -0.1)">
       <use xlink:href="#ArialMT-8722"/>
       <use x="58.398438" xlink:href="#ArialMT-48"/>
       <use x="114.013672" xlink:href="#ArialMT-46"/>
       <use x="141.796875" xlink:href="#ArialMT-48"/>
       <use x="197.412109" xlink:href="#ArialMT-48"/>
       <use x="253.027344" xlink:href="#ArialMT-49"/>
      </g>
     </g>
    </g>
    <g id="ytick_4">
     <g id="line2d_10">
      <path clip-path="url(#p81b2447afc)" d="M 62.465 210.475464 
L 592.18125 210.475464 
" style="fill:none;stroke:#dcdcdc;stroke-linecap:round;stroke-width:0.8;"/>
     </g>
     <g id="text_11">
      <!-- 0.000 -->
      <g style="fill:#262626;" transform="translate(30.443125 214.054371)scale(0.1 -0.1)">
       <use xlink:href="#ArialMT-48"/>
       <use x="55.615234" xlink:href="#ArialMT-46"/>
       <use x="83.398438" xlink:href="#ArialMT-48"/>
       <use x="139.013672" xlink:href="#ArialMT-48"/>
       <use x="194.628906" xlink:href="#ArialMT-48"/>
      </g>
     </g>
    </g>
    <g id="ytick_5">
     <g id="line2d_11">
      <path clip-path="url(#p81b2447afc)" d="M 62.465 153.54929 
L 592.18125 153.54929 
" style="fill:none;stroke:#dcdcdc;stroke-linecap:round;stroke-width:0.8;"/>
     </g>
     <g id="text_12">
      <!-- 0.001 -->
      <g style="fill:#262626;" transform="translate(30.443125 157.128197)scale(0.1 -0.1)">
       <use xlink:href="#ArialMT-48"/>
       <use x="55.615234" xlink:href="#ArialMT-46"/>
       <use x="83.398438" xlink:href="#ArialMT-48"/>
       <use x="139.013672" xlink:href="#ArialMT-48"/>
       <use x="194.628906" xlink:href="#ArialMT-49"/>
      </g>
     </g>
    </g>
    <g id="ytick_6">
     <g id="line2d_12">
      <path clip-path="url(#p81b2447afc)" d="M 62.465 96.623116 
L 592.18125 96.623116 
" style="fill:none;stroke:#dcdcdc;stroke-linecap:round;stroke-width:0.8;"/>
     </g>
     <g id="text_13">
      <!-- 0.002 -->
      <g style="fill:#262626;" transform="translate(30.443125 100.202023)scale(0.1 -0.1)">
       <use xlink:href="#ArialMT-48"/>
       <use x="55.615234" xlink:href="#ArialMT-46"/>
       <use x="83.398438" xlink:href="#ArialMT-48"/>
       <use x="139.013672" xlink:href="#ArialMT-48"/>
       <use x="194.628906" xlink:href="#ArialMT-50"/>
      </g>
     </g>
    </g>
    <g id="text_14">
     <!-- Component 2 -->
     <g style="fill:#262626;" transform="translate(19.755031 100.844531)rotate(-90)scale(0.15 -0.15)">
      <use xlink:href="#ArialMT-67"/>
      <use x="72.216797" xlink:href="#ArialMT-111"/>
      <use x="127.832031" xlink:href="#ArialMT-109"/>
      <use x="211.132812" xlink:href="#ArialMT-112"/>
      <use x="266.748047" xlink:href="#ArialMT-111"/>
      <use x="322.363281" xlink:href="#ArialMT-110"/>
      <use x="377.978516" xlink:href="#ArialMT-101"/>
      <use x="433.59375" xlink:href="#ArialMT-110"/>
      <use x="489.208984" xlink:href="#ArialMT-116"/>
      <use x="516.992188" xlink:href="#ArialMT-32"/>
      <use x="544.775391" xlink:href="#ArialMT-50"/>
     </g>
    </g>
   </g>
   <g id="PathCollection_1">
    <defs>
     <path d="M 0 3 
C 0.795609 3 1.55874 2.683901 2.12132 2.12132 
C 2.683901 1.55874 3 0.795609 3 0 
C 3 -0.795609 2.683901 -1.55874 2.12132 -2.12132 
C 1.55874 -2.683901 0.795609 -3 0 -3 
C -0.795609 -3 -1.55874 -2.683901 -2.12132 -2.12132 
C -2.683901 -1.55874 -3 -0.795609 -3 0 
C -3 0.795609 -2.683901 1.55874 -2.12132 2.12132 
C -1.55874 2.683901 -0.795609 3 0 3 
z
" id="m4949e86abe" style="stroke:#696969;"/>
    </defs>
    <g clip-path="url(#p81b2447afc)">
     <use style="fill:#696969;stroke:#696969;" x="449.323056" xlink:href="#m4949e86abe" y="290.491685"/>
     <use style="fill:#696969;stroke:#696969;" x="450.209477" xlink:href="#m4949e86abe" y="219.865342"/>
     <use style="fill:#696969;stroke:#696969;" x="450.353693" xlink:href="#m4949e86abe" y="148.751832"/>
     <use style="fill:#696969;stroke:#696969;" x="446.090703" xlink:href="#m4949e86abe" y="121.99697"/>
     <use style="fill:#696969;stroke:#696969;" x="449.537286" xlink:href="#m4949e86abe" y="294.448415"/>
     <use style="fill:#696969;stroke:#696969;" x="448.347155" xlink:href="#m4949e86abe" y="286.828893"/>
     <use style="fill:#696969;stroke:#696969;" x="454.519918" xlink:href="#m4949e86abe" y="210.309201"/>
     <use style="fill:#696969;stroke:#696969;" x="449.977844" xlink:href="#m4949e86abe" y="316.07378"/>
     <use style="fill:#696969;stroke:#696969;" x="446.457416" xlink:href="#m4949e86abe" y="245.326511"/>
     <use style="fill:#696969;stroke:#696969;" x="144.199908" xlink:href="#m4949e86abe" y="211.700517"/>
     <use style="fill:#696969;stroke:#696969;" x="452.292227" xlink:href="#m4949e86abe" y="195.873994"/>
     <use style="fill:#696969;stroke:#696969;" x="446.892739" xlink:href="#m4949e86abe" y="222.354465"/>
     <use style="fill:#696969;stroke:#696969;" x="450.577898" xlink:href="#m4949e86abe" y="204.89684"/>
     <use style="fill:#696969;stroke:#696969;" x="493.510802" xlink:href="#m4949e86abe" y="208.691999"/>
     <use style="fill:#696969;stroke:#696969;" x="452.284541" xlink:href="#m4949e86abe" y="204.041067"/>
     <use style="fill:#696969;stroke:#696969;" x="450.60482" xlink:href="#m4949e86abe" y="133.52326"/>
     <use style="fill:#696969;stroke:#696969;" x="446.467088" xlink:href="#m4949e86abe" y="222.357249"/>
     <use style="fill:#696969;stroke:#696969;" x="447.777409" xlink:href="#m4949e86abe" y="204.737346"/>
     <use style="fill:#696969;stroke:#696969;" x="510.846205" xlink:href="#m4949e86abe" y="209.55469"/>
     <use style="fill:#696969;stroke:#696969;" x="447.550473" xlink:href="#m4949e86abe" y="236.192076"/>
     <use style="fill:#696969;stroke:#696969;" x="445.905893" xlink:href="#m4949e86abe" y="187.317181"/>
     <use style="fill:#696969;stroke:#696969;" x="452.843433" xlink:href="#m4949e86abe" y="225.152091"/>
     <use style="fill:#696969;stroke:#696969;" x="444.893066" xlink:href="#m4949e86abe" y="238.024903"/>
     <use style="fill:#696969;stroke:#696969;" x="446.791723" xlink:href="#m4949e86abe" y="219.364285"/>
     <use style="fill:#696969;stroke:#696969;" x="448.195861" xlink:href="#m4949e86abe" y="243.956864"/>
     <use style="fill:#696969;stroke:#696969;" x="452.208231" xlink:href="#m4949e86abe" y="210.91163"/>
     <use style="fill:#696969;stroke:#696969;" x="448.65819" xlink:href="#m4949e86abe" y="223.099119"/>
     <use style="fill:#696969;stroke:#696969;" x="446.416921" xlink:href="#m4949e86abe" y="245.366277"/>
     <use style="fill:#696969;stroke:#696969;" x="143.800045" xlink:href="#m4949e86abe" y="211.630551"/>
     <use style="fill:#696969;stroke:#696969;" x="445.967349" xlink:href="#m4949e86abe" y="261.164072"/>
     <use style="fill:#696969;stroke:#696969;" x="444.640302" xlink:href="#m4949e86abe" y="163.184843"/>
     <use style="fill:#696969;stroke:#696969;" x="444.988983" xlink:href="#m4949e86abe" y="259.40279"/>
     <use style="fill:#696969;stroke:#696969;" x="445.769206" xlink:href="#m4949e86abe" y="222.449488"/>
     <use style="fill:#696969;stroke:#696969;" x="447.147894" xlink:href="#m4949e86abe" y="264.12018"/>
     <use style="fill:#696969;stroke:#696969;" x="452.018882" xlink:href="#m4949e86abe" y="210.516382"/>
     <use style="fill:#696969;stroke:#696969;" x="447.528868" xlink:href="#m4949e86abe" y="235.921764"/>
     <use style="fill:#696969;stroke:#696969;" x="446.412693" xlink:href="#m4949e86abe" y="245.3463"/>
     <use style="fill:#696969;stroke:#696969;" x="143.930444" xlink:href="#m4949e86abe" y="211.626811"/>
     <use style="fill:#696969;stroke:#696969;" x="446.522078" xlink:href="#m4949e86abe" y="222.899111"/>
     <use style="fill:#696969;stroke:#696969;" x="446.522078" xlink:href="#m4949e86abe" y="222.899111"/>
    </g>
   </g>
   <g id="patch_3">
    <path clip-path="url(#p81b2447afc)" d="M 452.244269 546.653593 
L 305.553941 291.070007 
L 401.400018 290.684459 
L 400.487531 210.668238 
L 496.333607 210.28269 
L 497.246094 290.298911 
L 593.092171 289.913363 
z
" style="fill:#696969;opacity:0.75;stroke:#696969;stroke-linejoin:miter;"/>
   </g>
   <g id="patch_4">
    <path clip-path="url(#p81b2447afc)" d="M 498.971329 474.390813 
L 307.358801 229.518882 
L 402.592585 223.083188 
L 400.793677 213.693311 
L 496.027461 207.257617 
L 497.826368 216.647495 
L 593.060152 210.211801 
z
" style="fill:#696969;opacity:0.75;stroke:#696969;stroke-linejoin:miter;"/>
   </g>
   <g id="patch_5">
    <path clip-path="url(#p81b2447afc)" d="M 458.416709 -107.371186 
L 594.100981 150.348094 
L 498.269455 149.283919 
L 496.326332 211.007552 
L 400.494806 209.943377 
L 402.43793 148.219745 
L 306.606404 147.155571 
z
" style="fill:#696969;opacity:0.75;stroke:#696969;stroke-linejoin:miter;"/>
   </g>
   <g id="patch_6">
    <path clip-path="url(#p81b2447afc)" d="M 439.374912 -134.139759 
L 589.845686 120.667423 
L 494.00903 121.553787 
L 496.328897 210.032282 
L 400.492241 210.918647 
L 398.172375 122.440152 
L 302.335719 123.326516 
z
" style="fill:#696969;opacity:0.75;stroke:#696969;stroke-linejoin:miter;"/>
   </g>
   <g id="patch_7">
    <path clip-path="url(#p81b2447afc)" d="M 452.974339 550.608065 
L 305.769439 295.12886 
L 401.61467 294.67523 
L 400.487953 210.702279 
L 496.333185 210.24865 
L 497.459902 294.221601 
L 593.305133 293.767971 
z
" style="fill:#696969;opacity:0.75;stroke:#696969;stroke-linejoin:miter;"/>
   </g>
   <g id="patch_8">
    <path clip-path="url(#p81b2447afc)" d="M 448.134397 542.996645 
L 304.57476 286.786773 
L 400.423023 286.814853 
L 400.486437 210.461424 
L 496.334701 210.489504 
L 496.271286 286.842933 
L 592.119549 286.871013 
z
" style="fill:#696969;opacity:0.75;stroke:#696969;stroke-linejoin:miter;"/>
   </g>
   <g id="patch_9">
    <path clip-path="url(#p81b2447afc)" d="M 885.385055 198.583355 
L 461.100969 295.608958 
L 456.713602 238.742453 
L 450.604252 238.908717 
L 446.216885 182.042212 
L 452.326235 181.875948 
L 447.938868 125.009443 
z
" style="fill:#696969;opacity:0.75;stroke:#696969;stroke-linejoin:miter;"/>
   </g>
   <g id="patch_10">
    <path clip-path="url(#p81b2447afc)" d="M 453.779701 572.231612 
L 306.211017 316.826446 
L 402.055568 316.324669 
L 400.488293 210.726353 
L 496.332845 210.224576 
L 497.900119 315.822892 
L 593.744671 315.321115 
z
" style="fill:#696969;opacity:0.75;stroke:#696969;stroke-linejoin:miter;"/>
   </g>
   <g id="patch_11">
    <path clip-path="url(#p81b2447afc)" d="M 432.108981 501.352509 
L 302.76458 242.485905 
L 398.559804 244.379642 
L 400.512957 209.528596 
L 496.308181 211.422333 
L 494.355028 246.27338 
L 590.150252 248.167117 
z
" style="fill:#696969;opacity:0.75;stroke:#696969;stroke-linejoin:miter;"/>
   </g>
   <g id="patch_12">
    <path clip-path="url(#p81b2447afc)" d="M -287.107414 213.437387 
L 143.225102 126.313219 
L 143.874973 183.238085 
L 448.085634 182.013032 
L 448.735504 238.937897 
L 144.524844 240.16295 
L 145.174715 297.087816 
z
" style="fill:#696969;opacity:0.75;stroke:#696969;stroke-linejoin:miter;"/>
   </g>
   <g id="patch_13">
    <path clip-path="url(#p81b2447afc)" d="M 519.558667 -57.159328 
L 594.305445 209.190947 
L 499.629967 200.312978 
L 495.748308 214.914449 
L 401.07283 206.03648 
L 404.954488 191.435009 
L 310.27901 182.55704 
z
" style="fill:#696969;opacity:0.75;stroke:#696969;stroke-linejoin:miter;"/>
   </g>
   <g id="patch_14">
    <path clip-path="url(#p81b2447afc)" d="M 414.254942 477.787792 
L 303.532535 215.893055 
L 399.106004 220.200661 
L 400.623834 208.321661 
L 496.197304 212.629268 
L 494.679473 224.508268 
L 590.252943 228.815874 
z
" style="fill:#696969;opacity:0.75;stroke:#696969;stroke-linejoin:miter;"/>
   </g>
   <g id="patch_15">
    <path clip-path="url(#p81b2447afc)" d="M 547.552558 -44.712317 
L 590.669326 224.095225 
L 497.275041 211.296301 
L 495.107712 216.874926 
L 401.713426 204.076003 
L 403.880756 198.497378 
L 310.48647 185.698454 
z
" style="fill:#696969;opacity:0.75;stroke:#696969;stroke-linejoin:miter;"/>
   </g>
   <g id="patch_16">
    <path clip-path="url(#p81b2447afc)" d="M 923.87515 191.673467 
L 503.062337 293.892614 
L 496.694647 237.092204 
L 451.594414 238.875669 
L 445.226724 182.07526 
L 490.326957 180.291794 
L 483.959268 123.491385 
z
" style="fill:#696969;opacity:0.75;stroke:#696969;stroke-linejoin:miter;"/>
   </g>
   <g id="patch_17">
    <path clip-path="url(#p81b2447afc)" d="M 597.510588 -37.169259 
L 587.662183 232.791935 
L 497.410422 213.62469 
L 493.53645 220.059087 
L 403.284688 200.891842 
L 407.15866 194.457445 
L 316.906899 175.290199 
z
" style="fill:#696969;opacity:0.75;stroke:#696969;stroke-linejoin:miter;"/>
   </g>
   <g id="patch_18">
    <path clip-path="url(#p81b2447afc)" d="M 457.908258 -122.607796 
L 594.356619 134.969145 
L 498.522086 134.005222 
L 496.327835 210.957426 
L 400.493303 209.993503 
L 402.687553 133.041298 
L 306.85302 132.077375 
z
" style="fill:#696969;opacity:0.75;stroke:#696969;stroke-linejoin:miter;"/>
   </g>
   <g id="patch_19">
    <path clip-path="url(#p81b2447afc)" d="M 404.762539 477.324742 
L 303.368331 214.100866 
L 398.767502 219.605122 
L 400.710983 207.723336 
L 496.110155 213.227592 
L 494.166674 225.109377 
L 589.565845 230.613633 
z
" style="fill:#696969;opacity:0.75;stroke:#696969;stroke-linejoin:miter;"/>
   </g>
   <g id="patch_20">
    <path clip-path="url(#p81b2447afc)" d="M 419.571648 -50.882107 
L 591.242075 199.153361 
L 495.598964 202.876018 
L 496.232124 208.614136 
L 400.589014 212.336793 
L 399.955854 206.598675 
L 304.312743 210.321332 
z
" style="fill:#696969;opacity:0.75;stroke:#696969;stroke-linejoin:miter;"/>
   </g>
   <g id="patch_21">
    <path clip-path="url(#p81b2447afc)" d="M 942.030533 203.195764 
L 514.415108 294.917639 
L 512.035839 238.009006 
L 449.600203 238.929781 
L 447.220934 182.021148 
L 509.65657 181.100374 
L 507.277301 124.191741 
z
" style="fill:#696969;opacity:0.75;stroke:#696969;stroke-linejoin:miter;"/>
   </g>
   <g id="patch_22">
    <path clip-path="url(#p81b2447afc)" d="M 438.984597 492.309336 
L 303.806417 234.496262 
L 399.635788 235.626804 
L 400.495883 209.910193 
L 496.325254 211.040736 
L 495.465159 236.757347 
L 591.29453 237.88789 
z
" style="fill:#696969;opacity:0.75;stroke:#696969;stroke-linejoin:miter;"/>
   </g>
   <g id="patch_23">
    <path clip-path="url(#p81b2447afc)" d="M 418.257142 -68.323738 
L 589.382606 181.843469 
L 493.731464 185.49261 
L 496.23614 208.650894 
L 400.584998 212.300035 
L 398.080322 189.141752 
L 302.42918 192.790893 
z
" style="fill:#696969;opacity:0.75;stroke:#696969;stroke-linejoin:miter;"/>
   </g>
   <g id="patch_24">
    <path clip-path="url(#p81b2447afc)" d="M 528.999624 477.295147 
L 311.329872 240.228977 
L 405.672246 230.17772 
L 401.239382 215.501093 
L 495.581756 205.449836 
L 500.014621 220.126462 
L 594.356995 210.075205 
z
" style="fill:#696969;opacity:0.75;stroke:#696969;stroke-linejoin:miter;"/>
   </g>
   <g id="patch_25">
    <path clip-path="url(#p81b2447afc)" d="M 412.279288 493.459312 
L 301.532255 231.568248 
L 397.106129 235.872684 
L 400.623632 208.323246 
L 496.197506 212.627683 
L 492.680003 240.177121 
L 588.253877 244.481557 
z
" style="fill:#696969;opacity:0.75;stroke:#696969;stroke-linejoin:miter;"/>
   </g>
   <g id="patch_26">
    <path clip-path="url(#p81b2447afc)" d="M 400.408595 474.046536 
L 303.853056 210.181668 
L 399.145501 216.303413 
L 400.764346 207.414592 
L 496.056791 213.536337 
L 494.437945 222.425158 
L 589.73039 228.546903 
z
" style="fill:#696969;opacity:0.75;stroke:#696969;stroke-linejoin:miter;"/>
   </g>
   <g id="patch_27">
    <path clip-path="url(#p81b2447afc)" d="M 446.553132 500.122789 
L 304.424492 243.631648 
L 400.272071 243.848459 
L 400.486779 210.367059 
L 496.334359 210.58387 
L 496.119651 244.065269 
L 591.96723 244.28208 
z
" style="fill:#696969;opacity:0.75;stroke:#696969;stroke-linejoin:miter;"/>
   </g>
   <g id="patch_28">
    <path clip-path="url(#p81b2447afc)" d="M 875.680258 259.547813 
L 424.911506 294.747749 
L 443.109322 238.857003 
L 439.311661 238.420838 
L 457.509477 182.530091 
L 461.307139 182.966256 
L 479.504955 127.07551 
z
" style="fill:#696969;opacity:0.75;stroke:#696969;stroke-linejoin:miter;"/>
   </g>
   <g id="patch_29">
    <path clip-path="url(#p81b2447afc)" d="M 453.682749 479.24952 
L 304.895534 224.093847 
L 400.737305 223.430695 
L 400.489684 210.80704 
L 496.331454 210.143888 
L 496.579076 222.767543 
L 592.420847 222.104391 
z
" style="fill:#696969;opacity:0.75;stroke:#696969;stroke-linejoin:miter;"/>
   </g>
   <g id="patch_30">
    <path clip-path="url(#p81b2447afc)" d="M 431.78801 501.386676 
L 302.727227 242.470145 
L 398.520356 244.4009 
L 400.514004 209.510087 
L 496.307134 211.440842 
L 494.313485 246.331655 
L 590.106615 248.26241 
z
" style="fill:#696969;opacity:0.75;stroke:#696969;stroke-linejoin:miter;"/>
   </g>
   <g id="patch_31">
    <path clip-path="url(#p81b2447afc)" d="M -287.5084 213.266078 
L 142.882117 126.243031 
L 143.494069 183.168044 
L 448.104593 182.012958 
L 448.716545 238.937971 
L 144.106021 240.093058 
L 144.717974 297.018072 
z
" style="fill:#696969;opacity:0.75;stroke:#696969;stroke-linejoin:miter;"/>
   </g>
   <g id="patch_32">
    <path clip-path="url(#p81b2447afc)" d="M 433.624969 517.226952 
L 302.253813 258.720611 
L 398.062837 260.349585 
L 400.506057 209.660978 
L 496.315081 211.289951 
L 493.871861 261.978559 
L 589.680885 263.607532 
z
" style="fill:#696969;opacity:0.75;stroke:#696969;stroke-linejoin:miter;"/>
   </g>
   <g id="patch_33">
    <path clip-path="url(#p81b2447afc)" d="M 424.240064 -92.696249 
L 588.251811 159.146142 
L 492.510805 161.838609 
L 496.281072 209.129231 
L 400.540066 211.821698 
L 396.769799 164.531076 
L 301.028794 167.223544 
z
" style="fill:#696969;opacity:0.75;stroke:#696969;stroke-linejoin:miter;"/>
   </g>
   <g id="patch_34">
    <path clip-path="url(#p81b2447afc)" d="M 427.09009 515.349905 
L 301.34042 255.859289 
L 397.106129 258.221623 
L 400.527714 209.294297 
L 496.293423 211.656632 
L 492.871838 260.583957 
L 588.637547 262.946292 
z
" style="fill:#696969;opacity:0.75;stroke:#696969;stroke-linejoin:miter;"/>
   </g>
   <g id="patch_35">
    <path clip-path="url(#p81b2447afc)" d="M 389.739687 476.446678 
L 303.215025 211.357144 
L 398.251145 218.75204 
L 400.892509 206.778016 
L 495.928629 214.172912 
L 493.287266 226.146936 
L 588.323387 233.541833 
z
" style="fill:#696969;opacity:0.75;stroke:#696969;stroke-linejoin:miter;"/>
   </g>
   <g id="patch_36">
    <path clip-path="url(#p81b2447afc)" d="M 441.118876 520.262936 
L 303.389529 262.926596 
L 399.228439 263.722319 
L 400.491114 210.077603 
L 496.330024 210.873326 
L 495.067349 264.518042 
L 590.90626 265.313764 
z
" style="fill:#696969;opacity:0.75;stroke:#696969;stroke-linejoin:miter;"/>
   </g>
   <g id="patch_37">
    <path clip-path="url(#p81b2447afc)" d="M 883.257523 215.406513 
L 449.27433 295.890083 
L 451.104031 238.974282 
L 447.495718 238.933365 
L 449.32542 182.017564 
L 452.933733 182.058481 
L 454.763435 125.142681 
z
" style="fill:#696969;opacity:0.75;stroke:#696969;stroke-linejoin:miter;"/>
   </g>
   <g id="patch_38">
    <path clip-path="url(#p81b2447afc)" d="M 438.654671 492.035321 
L 303.78689 234.16491 
L 399.614876 235.336146 
L 400.496576 209.889847 
L 496.324562 211.061082 
L 495.442861 236.507381 
L 591.270847 237.678617 
z
" style="fill:#696969;opacity:0.75;stroke:#696969;stroke-linejoin:miter;"/>
   </g>
   <g id="patch_39">
    <path clip-path="url(#p81b2447afc)" d="M 431.744405 501.365904 
L 302.723445 242.442372 
L 398.516277 244.378324 
L 400.514153 209.507488 
L 496.306985 211.44344 
L 494.309109 246.314276 
L 590.101941 248.250228 
z
" style="fill:#696969;opacity:0.75;stroke:#696969;stroke-linejoin:miter;"/>
   </g>
   <g id="patch_40">
    <path clip-path="url(#p81b2447afc)" d="M -287.378051 213.25774 
L 143.015096 126.23928 
L 143.625328 183.164301 
L 448.105453 182.012954 
L 448.715685 238.937975 
L 144.23556 240.089321 
L 144.845792 297.014341 
z
" style="fill:#696969;opacity:0.75;stroke:#696969;stroke-linejoin:miter;"/>
   </g>
   <g id="patch_41">
    <path clip-path="url(#p81b2447afc)" d="M 407.740314 478.029279 
L 303.332021 215.221361 
L 398.792059 220.339861 
L 400.68055 207.916214 
L 496.140588 213.034715 
L 494.252097 225.458361 
L 589.712136 230.576862 
z
" style="fill:#696969;opacity:0.75;stroke:#696969;stroke-linejoin:miter;"/>
   </g>
   <g id="patch_42">
    <path clip-path="url(#p81b2447afc)" d="M 407.740314 478.029279 
L 303.332021 215.221361 
L 398.792059 220.339861 
L 400.68055 207.916214 
L 496.140588 213.034715 
L 494.252097 225.458361 
L 589.712136 230.576862 
z
" style="fill:#696969;opacity:0.75;stroke:#696969;stroke-linejoin:miter;"/>
   </g>
  </g>
 </g>
 <defs>
  <clipPath id="p81b2447afc">
   <rect height="326.43325" width="529.71625" x="62.465" y="55.81875"/>
  </clipPath>
 </defs>
</svg>
