<?xml version="1.0" encoding="utf-8" standalone="no"?>
<!DOCTYPE svg PUBLIC "-//W3C//DTD SVG 1.1//EN"
  "http://www.w3.org/Graphics/SVG/1.1/DTD/svg11.dtd">
<!-- Created with matplotlib (https://matplotlib.org/) -->
<svg height="360pt" version="1.1" viewBox="0 0 576 360" width="576pt" xmlns="http://www.w3.org/2000/svg" xmlns:xlink="http://www.w3.org/1999/xlink">
 <defs>
  <style type="text/css">
*{stroke-linecap:butt;stroke-linejoin:round;}
  </style>
 </defs>
 <g id="figure_1">
  <g id="patch_1">
   <path d="M 0 360 
L 576 360 
L 576 0 
L 0 0 
z
" style="fill:#ffffff;"/>
  </g>
  <g id="axes_1">
   <g id="patch_2">
    <path d="M 58.08 314.61 
L 517.71875 314.61 
L 517.71875 44.42125 
L 58.08 44.42125 
z
" style="fill:#ffffff;"/>
   </g>
   <g id="matplotlib.axis_1">
    <g id="xtick_1">
     <g id="text_1">
      <!-- −2 -->
      <defs>
       <path d="M 52.828125 31.203125 
L 5.5625 31.203125 
L 5.5625 39.40625 
L 52.828125 39.40625 
z
" id="ArialMT-8722"/>
       <path d="M 50.34375 8.453125 
L 50.34375 0 
L 3.03125 0 
Q 2.9375 3.171875 4.046875 6.109375 
Q 5.859375 10.9375 9.828125 15.625 
Q 13.8125 20.3125 21.34375 26.46875 
Q 33.015625 36.03125 37.109375 41.625 
Q 41.21875 47.21875 41.21875 52.203125 
Q 41.21875 57.421875 37.46875 61 
Q 33.734375 64.59375 27.734375 64.59375 
Q 21.390625 64.59375 17.578125 60.78125 
Q 13.765625 56.984375 13.71875 50.25 
L 4.6875 51.171875 
Q 5.609375 61.28125 11.65625 66.578125 
Q 17.71875 71.875 27.9375 71.875 
Q 38.234375 71.875 44.234375 66.15625 
Q 50.25 60.453125 50.25 52 
Q 50.25 47.703125 48.484375 43.546875 
Q 46.734375 39.40625 42.65625 34.8125 
Q 38.578125 30.21875 29.109375 22.21875 
Q 21.1875 15.578125 18.9375 13.203125 
Q 16.703125 10.84375 15.234375 8.453125 
z
" id="ArialMT-50"/>
      </defs>
      <g style="fill:#262626;" transform="translate(68.847442 328.767812)scale(0.1 -0.1)">
       <use xlink:href="#ArialMT-8722"/>
       <use x="58.398438" xlink:href="#ArialMT-50"/>
      </g>
     </g>
    </g>
    <g id="xtick_2">
     <g id="text_2">
      <!-- −1 -->
      <defs>
       <path d="M 37.25 0 
L 28.46875 0 
L 28.46875 56 
Q 25.296875 52.984375 20.140625 49.953125 
Q 14.984375 46.921875 10.890625 45.40625 
L 10.890625 53.90625 
Q 18.265625 57.375 23.78125 62.296875 
Q 29.296875 67.234375 31.59375 71.875 
L 37.25 71.875 
z
" id="ArialMT-49"/>
      </defs>
      <g style="fill:#262626;" transform="translate(156.127047 328.767812)scale(0.1 -0.1)">
       <use xlink:href="#ArialMT-8722"/>
       <use x="58.398438" xlink:href="#ArialMT-49"/>
      </g>
     </g>
    </g>
    <g id="xtick_3">
     <g id="text_3">
      <!-- 0 -->
      <defs>
       <path d="M 4.15625 35.296875 
Q 4.15625 48 6.765625 55.734375 
Q 9.375 63.484375 14.515625 67.671875 
Q 19.671875 71.875 27.484375 71.875 
Q 33.25 71.875 37.59375 69.546875 
Q 41.9375 67.234375 44.765625 62.859375 
Q 47.609375 58.5 49.21875 52.21875 
Q 50.828125 45.953125 50.828125 35.296875 
Q 50.828125 22.703125 48.234375 14.96875 
Q 45.65625 7.234375 40.5 3 
Q 35.359375 -1.21875 27.484375 -1.21875 
Q 17.140625 -1.21875 11.234375 6.203125 
Q 4.15625 15.140625 4.15625 35.296875 
z
M 13.1875 35.296875 
Q 13.1875 17.671875 17.3125 11.828125 
Q 21.4375 6 27.484375 6 
Q 33.546875 6 37.671875 11.859375 
Q 41.796875 17.71875 41.796875 35.296875 
Q 41.796875 52.984375 37.671875 58.78125 
Q 33.546875 64.59375 27.390625 64.59375 
Q 21.34375 64.59375 17.71875 59.46875 
Q 13.1875 52.9375 13.1875 35.296875 
z
" id="ArialMT-48"/>
      </defs>
      <g style="fill:#262626;" transform="translate(246.326964 328.767812)scale(0.1 -0.1)">
       <use xlink:href="#ArialMT-48"/>
      </g>
     </g>
    </g>
    <g id="xtick_4">
     <g id="text_4">
      <!-- 1 -->
      <g style="fill:#262626;" transform="translate(333.606569 328.767812)scale(0.1 -0.1)">
       <use xlink:href="#ArialMT-49"/>
      </g>
     </g>
    </g>
    <g id="xtick_5">
     <g id="text_5">
      <!-- 2 -->
      <g style="fill:#262626;" transform="translate(420.886174 328.767812)scale(0.1 -0.1)">
       <use xlink:href="#ArialMT-50"/>
      </g>
     </g>
    </g>
    <g id="xtick_6">
     <g id="text_6">
      <!-- 3 -->
      <defs>
       <path d="M 4.203125 18.890625 
L 12.984375 20.0625 
Q 14.5 12.59375 18.140625 9.296875 
Q 21.78125 6 27 6 
Q 33.203125 6 37.46875 10.296875 
Q 41.75 14.59375 41.75 20.953125 
Q 41.75 27 37.796875 30.921875 
Q 33.84375 34.859375 27.734375 34.859375 
Q 25.25 34.859375 21.53125 33.890625 
L 22.515625 41.609375 
Q 23.390625 41.5 23.921875 41.5 
Q 29.546875 41.5 34.03125 44.421875 
Q 38.53125 47.359375 38.53125 53.46875 
Q 38.53125 58.296875 35.25 61.46875 
Q 31.984375 64.65625 26.8125 64.65625 
Q 21.6875 64.65625 18.265625 61.421875 
Q 14.84375 58.203125 13.875 51.765625 
L 5.078125 53.328125 
Q 6.6875 62.15625 12.390625 67.015625 
Q 18.109375 71.875 26.609375 71.875 
Q 32.46875 71.875 37.390625 69.359375 
Q 42.328125 66.84375 44.9375 62.5 
Q 47.5625 58.15625 47.5625 53.265625 
Q 47.5625 48.640625 45.0625 44.828125 
Q 42.578125 41.015625 37.703125 38.765625 
Q 44.046875 37.3125 47.5625 32.6875 
Q 51.078125 28.078125 51.078125 21.140625 
Q 51.078125 11.765625 44.234375 5.25 
Q 37.40625 -1.265625 26.953125 -1.265625 
Q 17.53125 -1.265625 11.296875 4.34375 
Q 5.078125 9.96875 4.203125 18.890625 
z
" id="ArialMT-51"/>
      </defs>
      <g style="fill:#262626;" transform="translate(508.165779 328.767812)scale(0.1 -0.1)">
       <use xlink:href="#ArialMT-51"/>
      </g>
     </g>
    </g>
    <g id="text_7">
     <!-- Discriminant 1 -->
     <defs>
      <path d="M 7.71875 0 
L 7.71875 71.578125 
L 32.375 71.578125 
Q 40.71875 71.578125 45.125 70.5625 
Q 51.265625 69.140625 55.609375 65.4375 
Q 61.28125 60.640625 64.078125 53.1875 
Q 66.890625 45.75 66.890625 36.1875 
Q 66.890625 28.03125 64.984375 21.734375 
Q 63.09375 15.4375 60.109375 11.296875 
Q 57.125 7.171875 53.578125 4.796875 
Q 50.046875 2.4375 45.046875 1.21875 
Q 40.046875 0 33.546875 0 
z
M 17.1875 8.453125 
L 32.46875 8.453125 
Q 39.546875 8.453125 43.578125 9.765625 
Q 47.609375 11.078125 50 13.484375 
Q 53.375 16.84375 55.25 22.53125 
Q 57.125 28.21875 57.125 36.328125 
Q 57.125 47.5625 53.4375 53.59375 
Q 49.75 59.625 44.484375 61.671875 
Q 40.671875 63.140625 32.234375 63.140625 
L 17.1875 63.140625 
z
" id="ArialMT-68"/>
      <path d="M 6.640625 61.46875 
L 6.640625 71.578125 
L 15.4375 71.578125 
L 15.4375 61.46875 
z
M 6.640625 0 
L 6.640625 51.859375 
L 15.4375 51.859375 
L 15.4375 0 
z
" id="ArialMT-105"/>
      <path d="M 3.078125 15.484375 
L 11.765625 16.84375 
Q 12.5 11.625 15.84375 8.84375 
Q 19.1875 6.0625 25.203125 6.0625 
Q 31.25 6.0625 34.171875 8.515625 
Q 37.109375 10.984375 37.109375 14.3125 
Q 37.109375 17.28125 34.515625 19 
Q 32.71875 20.171875 25.53125 21.96875 
Q 15.875 24.421875 12.140625 26.203125 
Q 8.40625 27.984375 6.46875 31.125 
Q 4.546875 34.28125 4.546875 38.09375 
Q 4.546875 41.546875 6.125 44.5 
Q 7.71875 47.46875 10.453125 49.421875 
Q 12.5 50.921875 16.03125 51.96875 
Q 19.578125 53.03125 23.640625 53.03125 
Q 29.734375 53.03125 34.34375 51.265625 
Q 38.96875 49.515625 41.15625 46.5 
Q 43.359375 43.5 44.1875 38.484375 
L 35.59375 37.3125 
Q 35.015625 41.3125 32.203125 43.546875 
Q 29.390625 45.796875 24.265625 45.796875 
Q 18.21875 45.796875 15.625 43.796875 
Q 13.03125 41.796875 13.03125 39.109375 
Q 13.03125 37.40625 14.109375 36.03125 
Q 15.1875 34.625 17.484375 33.6875 
Q 18.796875 33.203125 25.25 31.453125 
Q 34.578125 28.953125 38.25 27.359375 
Q 41.9375 25.78125 44.03125 22.75 
Q 46.140625 19.734375 46.140625 15.234375 
Q 46.140625 10.84375 43.578125 6.953125 
Q 41.015625 3.078125 36.171875 0.953125 
Q 31.34375 -1.171875 25.25 -1.171875 
Q 15.140625 -1.171875 9.84375 3.03125 
Q 4.546875 7.234375 3.078125 15.484375 
z
" id="ArialMT-115"/>
      <path d="M 40.4375 19 
L 49.078125 17.875 
Q 47.65625 8.9375 41.8125 3.875 
Q 35.984375 -1.171875 27.484375 -1.171875 
Q 16.84375 -1.171875 10.375 5.78125 
Q 3.90625 12.75 3.90625 25.734375 
Q 3.90625 34.125 6.6875 40.421875 
Q 9.46875 46.734375 15.15625 49.875 
Q 20.84375 53.03125 27.546875 53.03125 
Q 35.984375 53.03125 41.359375 48.75 
Q 46.734375 44.484375 48.25 36.625 
L 39.703125 35.296875 
Q 38.484375 40.53125 35.375 43.15625 
Q 32.28125 45.796875 27.875 45.796875 
Q 21.234375 45.796875 17.078125 41.03125 
Q 12.9375 36.28125 12.9375 25.984375 
Q 12.9375 15.53125 16.9375 10.796875 
Q 20.953125 6.0625 27.390625 6.0625 
Q 32.5625 6.0625 36.03125 9.234375 
Q 39.5 12.40625 40.4375 19 
z
" id="ArialMT-99"/>
      <path d="M 6.5 0 
L 6.5 51.859375 
L 14.40625 51.859375 
L 14.40625 44 
Q 17.4375 49.515625 20 51.265625 
Q 22.5625 53.03125 25.640625 53.03125 
Q 30.078125 53.03125 34.671875 50.203125 
L 31.640625 42.046875 
Q 28.421875 43.953125 25.203125 43.953125 
Q 22.3125 43.953125 20.015625 42.21875 
Q 17.71875 40.484375 16.75 37.40625 
Q 15.28125 32.71875 15.28125 27.15625 
L 15.28125 0 
z
" id="ArialMT-114"/>
      <path d="M 6.59375 0 
L 6.59375 51.859375 
L 14.453125 51.859375 
L 14.453125 44.578125 
Q 16.890625 48.390625 20.9375 50.703125 
Q 25 53.03125 30.171875 53.03125 
Q 35.9375 53.03125 39.625 50.640625 
Q 43.3125 48.25 44.828125 43.953125 
Q 50.984375 53.03125 60.84375 53.03125 
Q 68.5625 53.03125 72.703125 48.75 
Q 76.859375 44.484375 76.859375 35.59375 
L 76.859375 0 
L 68.109375 0 
L 68.109375 32.671875 
Q 68.109375 37.9375 67.25 40.25 
Q 66.40625 42.578125 64.15625 43.984375 
Q 61.921875 45.40625 58.890625 45.40625 
Q 53.421875 45.40625 49.796875 41.765625 
Q 46.1875 38.140625 46.1875 30.125 
L 46.1875 0 
L 37.40625 0 
L 37.40625 33.6875 
Q 37.40625 39.546875 35.25 42.46875 
Q 33.109375 45.40625 28.21875 45.40625 
Q 24.515625 45.40625 21.359375 43.453125 
Q 18.21875 41.5 16.796875 37.734375 
Q 15.375 33.984375 15.375 26.90625 
L 15.375 0 
z
" id="ArialMT-109"/>
      <path d="M 6.59375 0 
L 6.59375 51.859375 
L 14.5 51.859375 
L 14.5 44.484375 
Q 20.21875 53.03125 31 53.03125 
Q 35.6875 53.03125 39.625 51.34375 
Q 43.5625 49.65625 45.515625 46.921875 
Q 47.46875 44.1875 48.25 40.4375 
Q 48.734375 37.984375 48.734375 31.890625 
L 48.734375 0 
L 39.9375 0 
L 39.9375 31.546875 
Q 39.9375 36.921875 38.90625 39.578125 
Q 37.890625 42.234375 35.28125 43.8125 
Q 32.671875 45.40625 29.15625 45.40625 
Q 23.53125 45.40625 19.453125 41.84375 
Q 15.375 38.28125 15.375 28.328125 
L 15.375 0 
z
" id="ArialMT-110"/>
      <path d="M 40.4375 6.390625 
Q 35.546875 2.25 31.03125 0.53125 
Q 26.515625 -1.171875 21.34375 -1.171875 
Q 12.796875 -1.171875 8.203125 3 
Q 3.609375 7.171875 3.609375 13.671875 
Q 3.609375 17.484375 5.34375 20.625 
Q 7.078125 23.78125 9.890625 25.6875 
Q 12.703125 27.59375 16.21875 28.5625 
Q 18.796875 29.25 24.03125 29.890625 
Q 34.671875 31.15625 39.703125 32.90625 
Q 39.75 34.71875 39.75 35.203125 
Q 39.75 40.578125 37.25 42.78125 
Q 33.890625 45.75 27.25 45.75 
Q 21.046875 45.75 18.09375 43.578125 
Q 15.140625 41.40625 13.71875 35.890625 
L 5.125 37.0625 
Q 6.296875 42.578125 8.984375 45.96875 
Q 11.671875 49.359375 16.75 51.1875 
Q 21.828125 53.03125 28.515625 53.03125 
Q 35.15625 53.03125 39.296875 51.46875 
Q 43.453125 49.90625 45.40625 47.53125 
Q 47.359375 45.171875 48.140625 41.546875 
Q 48.578125 39.3125 48.578125 33.453125 
L 48.578125 21.734375 
Q 48.578125 9.46875 49.140625 6.21875 
Q 49.703125 2.984375 51.375 0 
L 42.1875 0 
Q 40.828125 2.734375 40.4375 6.390625 
z
M 39.703125 26.03125 
Q 34.90625 24.078125 25.34375 22.703125 
Q 19.921875 21.921875 17.671875 20.9375 
Q 15.4375 19.96875 14.203125 18.09375 
Q 12.984375 16.21875 12.984375 13.921875 
Q 12.984375 10.40625 15.640625 8.0625 
Q 18.3125 5.71875 23.4375 5.71875 
Q 28.515625 5.71875 32.46875 7.9375 
Q 36.421875 10.15625 38.28125 14.015625 
Q 39.703125 17 39.703125 22.796875 
z
" id="ArialMT-97"/>
      <path d="M 25.78125 7.859375 
L 27.046875 0.09375 
Q 23.34375 -0.6875 20.40625 -0.6875 
Q 15.625 -0.6875 12.984375 0.828125 
Q 10.359375 2.34375 9.28125 4.8125 
Q 8.203125 7.28125 8.203125 15.1875 
L 8.203125 45.015625 
L 1.765625 45.015625 
L 1.765625 51.859375 
L 8.203125 51.859375 
L 8.203125 64.703125 
L 16.9375 69.96875 
L 16.9375 51.859375 
L 25.78125 51.859375 
L 25.78125 45.015625 
L 16.9375 45.015625 
L 16.9375 14.703125 
Q 16.9375 10.9375 17.40625 9.859375 
Q 17.875 8.796875 18.921875 8.15625 
Q 19.96875 7.515625 21.921875 7.515625 
Q 23.390625 7.515625 25.78125 7.859375 
z
" id="ArialMT-116"/>
      <path id="ArialMT-32"/>
     </defs>
     <g style="fill:#262626;" transform="translate(470.208594 345.610875)scale(0.15 -0.15)">
      <use xlink:href="#ArialMT-68"/>
      <use x="72.216797" xlink:href="#ArialMT-105"/>
      <use x="94.433594" xlink:href="#ArialMT-115"/>
      <use x="144.433594" xlink:href="#ArialMT-99"/>
      <use x="194.433594" xlink:href="#ArialMT-114"/>
      <use x="227.734375" xlink:href="#ArialMT-105"/>
      <use x="249.951172" xlink:href="#ArialMT-109"/>
      <use x="333.251953" xlink:href="#ArialMT-105"/>
      <use x="355.46875" xlink:href="#ArialMT-110"/>
      <use x="411.083984" xlink:href="#ArialMT-97"/>
      <use x="466.699219" xlink:href="#ArialMT-110"/>
      <use x="522.314453" xlink:href="#ArialMT-116"/>
      <use x="550.097656" xlink:href="#ArialMT-32"/>
      <use x="577.880859" xlink:href="#ArialMT-49"/>
     </g>
    </g>
   </g>
   <g id="matplotlib.axis_2">
    <g id="ytick_1">
     <g id="text_8">
      <!-- 1.2 -->
      <defs>
       <path d="M 9.078125 0 
L 9.078125 10.015625 
L 19.09375 10.015625 
L 19.09375 0 
z
" id="ArialMT-46"/>
      </defs>
      <g style="fill:#262626;" transform="translate(37.18 287.18502)scale(0.1 -0.1)">
       <use xlink:href="#ArialMT-49"/>
       <use x="55.615234" xlink:href="#ArialMT-46"/>
       <use x="83.398438" xlink:href="#ArialMT-50"/>
      </g>
     </g>
    </g>
    <g id="ytick_2">
     <g id="text_9">
      <!-- 1.4 -->
      <defs>
       <path d="M 32.328125 0 
L 32.328125 17.140625 
L 1.265625 17.140625 
L 1.265625 25.203125 
L 33.9375 71.578125 
L 41.109375 71.578125 
L 41.109375 25.203125 
L 50.78125 25.203125 
L 50.78125 17.140625 
L 41.109375 17.140625 
L 41.109375 0 
z
M 32.328125 25.203125 
L 32.328125 57.46875 
L 9.90625 25.203125 
z
" id="ArialMT-52"/>
      </defs>
      <g style="fill:#262626;" transform="translate(37.18 253.504241)scale(0.1 -0.1)">
       <use xlink:href="#ArialMT-49"/>
       <use x="55.615234" xlink:href="#ArialMT-46"/>
       <use x="83.398438" xlink:href="#ArialMT-52"/>
      </g>
     </g>
    </g>
    <g id="ytick_3">
     <g id="text_10">
      <!-- 1.6 -->
      <defs>
       <path d="M 49.75 54.046875 
L 41.015625 53.375 
Q 39.84375 58.546875 37.703125 60.890625 
Q 34.125 64.65625 28.90625 64.65625 
Q 24.703125 64.65625 21.53125 62.3125 
Q 17.390625 59.28125 14.984375 53.46875 
Q 12.59375 47.65625 12.5 36.921875 
Q 15.671875 41.75 20.265625 44.09375 
Q 24.859375 46.4375 29.890625 46.4375 
Q 38.671875 46.4375 44.84375 39.96875 
Q 51.03125 33.5 51.03125 23.25 
Q 51.03125 16.5 48.125 10.71875 
Q 45.21875 4.9375 40.140625 1.859375 
Q 35.0625 -1.21875 28.609375 -1.21875 
Q 17.625 -1.21875 10.6875 6.859375 
Q 3.765625 14.9375 3.765625 33.5 
Q 3.765625 54.25 11.421875 63.671875 
Q 18.109375 71.875 29.4375 71.875 
Q 37.890625 71.875 43.28125 67.140625 
Q 48.6875 62.40625 49.75 54.046875 
z
M 13.875 23.1875 
Q 13.875 18.65625 15.796875 14.5 
Q 17.71875 10.359375 21.1875 8.171875 
Q 24.65625 6 28.46875 6 
Q 34.03125 6 38.03125 10.484375 
Q 42.046875 14.984375 42.046875 22.703125 
Q 42.046875 30.125 38.078125 34.390625 
Q 34.125 38.671875 28.125 38.671875 
Q 22.171875 38.671875 18.015625 34.390625 
Q 13.875 30.125 13.875 23.1875 
z
" id="ArialMT-54"/>
      </defs>
      <g style="fill:#262626;" transform="translate(37.18 219.823462)scale(0.1 -0.1)">
       <use xlink:href="#ArialMT-49"/>
       <use x="55.615234" xlink:href="#ArialMT-46"/>
       <use x="83.398438" xlink:href="#ArialMT-54"/>
      </g>
     </g>
    </g>
    <g id="ytick_4">
     <g id="text_11">
      <!-- 1.8 -->
      <defs>
       <path d="M 17.671875 38.8125 
Q 12.203125 40.828125 9.5625 44.53125 
Q 6.9375 48.25 6.9375 53.421875 
Q 6.9375 61.234375 12.546875 66.546875 
Q 18.171875 71.875 27.484375 71.875 
Q 36.859375 71.875 42.578125 66.421875 
Q 48.296875 60.984375 48.296875 53.171875 
Q 48.296875 48.1875 45.671875 44.5 
Q 43.0625 40.828125 37.75 38.8125 
Q 44.34375 36.671875 47.78125 31.875 
Q 51.21875 27.09375 51.21875 20.453125 
Q 51.21875 11.28125 44.71875 5.03125 
Q 38.234375 -1.21875 27.640625 -1.21875 
Q 17.046875 -1.21875 10.546875 5.046875 
Q 4.046875 11.328125 4.046875 20.703125 
Q 4.046875 27.6875 7.59375 32.390625 
Q 11.140625 37.109375 17.671875 38.8125 
z
M 15.921875 53.71875 
Q 15.921875 48.640625 19.1875 45.40625 
Q 22.46875 42.1875 27.6875 42.1875 
Q 32.765625 42.1875 36.015625 45.375 
Q 39.265625 48.578125 39.265625 53.21875 
Q 39.265625 58.0625 35.90625 61.359375 
Q 32.5625 64.65625 27.59375 64.65625 
Q 22.5625 64.65625 19.234375 61.421875 
Q 15.921875 58.203125 15.921875 53.71875 
z
M 13.09375 20.65625 
Q 13.09375 16.890625 14.875 13.375 
Q 16.65625 9.859375 20.171875 7.921875 
Q 23.6875 6 27.734375 6 
Q 34.03125 6 38.125 10.046875 
Q 42.234375 14.109375 42.234375 20.359375 
Q 42.234375 26.703125 38.015625 30.859375 
Q 33.796875 35.015625 27.4375 35.015625 
Q 21.234375 35.015625 17.15625 30.90625 
Q 13.09375 26.8125 13.09375 20.65625 
z
" id="ArialMT-56"/>
      </defs>
      <g style="fill:#262626;" transform="translate(37.18 186.142682)scale(0.1 -0.1)">
       <use xlink:href="#ArialMT-49"/>
       <use x="55.615234" xlink:href="#ArialMT-46"/>
       <use x="83.398438" xlink:href="#ArialMT-56"/>
      </g>
     </g>
    </g>
    <g id="ytick_5">
     <g id="text_12">
      <!-- 2.0 -->
      <g style="fill:#262626;" transform="translate(37.18 152.461903)scale(0.1 -0.1)">
       <use xlink:href="#ArialMT-50"/>
       <use x="55.615234" xlink:href="#ArialMT-46"/>
       <use x="83.398438" xlink:href="#ArialMT-48"/>
      </g>
     </g>
    </g>
    <g id="ytick_6">
     <g id="text_13">
      <!-- 2.2 -->
      <g style="fill:#262626;" transform="translate(37.18 118.781124)scale(0.1 -0.1)">
       <use xlink:href="#ArialMT-50"/>
       <use x="55.615234" xlink:href="#ArialMT-46"/>
       <use x="83.398438" xlink:href="#ArialMT-50"/>
      </g>
     </g>
    </g>
    <g id="ytick_7">
     <g id="text_14">
      <!-- 2.4 -->
      <g style="fill:#262626;" transform="translate(37.18 85.100345)scale(0.1 -0.1)">
       <use xlink:href="#ArialMT-50"/>
       <use x="55.615234" xlink:href="#ArialMT-46"/>
       <use x="83.398438" xlink:href="#ArialMT-52"/>
      </g>
     </g>
    </g>
    <g id="ytick_8">
     <g id="text_15">
      <!-- 2.6 -->
      <g style="fill:#262626;" transform="translate(37.18 51.419565)scale(0.1 -0.1)">
       <use xlink:href="#ArialMT-50"/>
       <use x="55.615234" xlink:href="#ArialMT-46"/>
       <use x="83.398438" xlink:href="#ArialMT-54"/>
      </g>
     </g>
    </g>
    <g id="text_16">
     <!-- Discriminant 2 -->
     <g style="fill:#262626;" transform="translate(20.625844 105.440844)rotate(-90)scale(0.15 -0.15)">
      <use xlink:href="#ArialMT-68"/>
      <use x="72.216797" xlink:href="#ArialMT-105"/>
      <use x="94.433594" xlink:href="#ArialMT-115"/>
      <use x="144.433594" xlink:href="#ArialMT-99"/>
      <use x="194.433594" xlink:href="#ArialMT-114"/>
      <use x="227.734375" xlink:href="#ArialMT-105"/>
      <use x="249.951172" xlink:href="#ArialMT-109"/>
      <use x="333.251953" xlink:href="#ArialMT-105"/>
      <use x="355.46875" xlink:href="#ArialMT-110"/>
      <use x="411.083984" xlink:href="#ArialMT-97"/>
      <use x="466.699219" xlink:href="#ArialMT-110"/>
      <use x="522.314453" xlink:href="#ArialMT-116"/>
      <use x="550.097656" xlink:href="#ArialMT-32"/>
      <use x="577.880859" xlink:href="#ArialMT-50"/>
     </g>
    </g>
   </g>
   <g id="PathCollection_1">
    <defs>
     <path d="M 0 3 
C 0.795609 3 1.55874 2.683901 2.12132 2.12132 
C 2.683901 1.55874 3 0.795609 3 0 
C 3 -0.795609 2.683901 -1.55874 2.12132 -2.12132 
C 1.55874 -2.683901 0.795609 -3 0 -3 
C -0.795609 -3 -1.55874 -2.683901 -2.12132 -2.12132 
C -2.683901 -1.55874 -3 -0.795609 -3 0 
C -3 0.795609 -2.683901 1.55874 -2.12132 2.12132 
C -1.55874 2.683901 -0.795609 3 0 3 
z
" id="C0_0_5ee17408fb"/>
    </defs>
    <g clip-path="url(#pa19d196fb5)">
     <use style="fill:#4878d0;stroke:#ffffff;stroke-width:0.75;" x="118.256997" xlink:href="#C0_0_5ee17408fb" y="167.953923"/>
    </g>
    <g clip-path="url(#pa19d196fb5)">
     <use style="fill:#4878d0;stroke:#ffffff;stroke-width:0.75;" x="138.754626" xlink:href="#C0_0_5ee17408fb" y="217.567677"/>
    </g>
    <g clip-path="url(#pa19d196fb5)">
     <use style="fill:#4878d0;stroke:#ffffff;stroke-width:0.75;" x="130.821477" xlink:href="#C0_0_5ee17408fb" y="193.776942"/>
    </g>
    <g clip-path="url(#pa19d196fb5)">
     <use style="fill:#4878d0;stroke:#ffffff;stroke-width:0.75;" x="145.684929" xlink:href="#C0_0_5ee17408fb" y="212.272182"/>
    </g>
    <g clip-path="url(#pa19d196fb5)">
     <use style="fill:#4878d0;stroke:#ffffff;stroke-width:0.75;" x="116.708118" xlink:href="#C0_0_5ee17408fb" y="158.185185"/>
    </g>
    <g clip-path="url(#pa19d196fb5)">
     <use style="fill:#4878d0;stroke:#ffffff;stroke-width:0.75;" x="126.16187" xlink:href="#C0_0_5ee17408fb" y="114.952835"/>
    </g>
    <g clip-path="url(#pa19d196fb5)">
     <use style="fill:#4878d0;stroke:#ffffff;stroke-width:0.75;" x="136.910944" xlink:href="#C0_0_5ee17408fb" y="165.424786"/>
    </g>
    <g clip-path="url(#pa19d196fb5)">
     <use style="fill:#4878d0;stroke:#ffffff;stroke-width:0.75;" x="128.285047" xlink:href="#C0_0_5ee17408fb" y="182.195902"/>
    </g>
    <g clip-path="url(#pa19d196fb5)">
     <use style="fill:#4878d0;stroke:#ffffff;stroke-width:0.75;" x="151.234847" xlink:href="#C0_0_5ee17408fb" y="227.996431"/>
    </g>
    <g clip-path="url(#pa19d196fb5)">
     <use style="fill:#4878d0;stroke:#ffffff;stroke-width:0.75;" x="134.045527" xlink:href="#C0_0_5ee17408fb" y="224.900063"/>
    </g>
    <g clip-path="url(#pa19d196fb5)">
     <use style="fill:#4878d0;stroke:#ffffff;stroke-width:0.75;" x="110.885173" xlink:href="#C0_0_5ee17408fb" y="152.119647"/>
    </g>
    <g clip-path="url(#pa19d196fb5)">
     <use style="fill:#4878d0;stroke:#ffffff;stroke-width:0.75;" x="136.764219" xlink:href="#C0_0_5ee17408fb" y="186.669144"/>
    </g>
    <g clip-path="url(#pa19d196fb5)">
     <use style="fill:#4878d0;stroke:#ffffff;stroke-width:0.75;" x="134.402789" xlink:href="#C0_0_5ee17408fb" y="230.63557"/>
    </g>
    <g clip-path="url(#pa19d196fb5)">
     <use style="fill:#4878d0;stroke:#ffffff;stroke-width:0.75;" x="129.006067" xlink:href="#C0_0_5ee17408fb" y="218.425879"/>
    </g>
    <g clip-path="url(#pa19d196fb5)">
     <use style="fill:#4878d0;stroke:#ffffff;stroke-width:0.75;" x="78.979123" xlink:href="#C0_0_5ee17408fb" y="109.283687"/>
    </g>
    <g clip-path="url(#pa19d196fb5)">
     <use style="fill:#4878d0;stroke:#ffffff;stroke-width:0.75;" x="94.171564" xlink:href="#C0_0_5ee17408fb" y="56.722605"/>
    </g>
    <g clip-path="url(#pa19d196fb5)">
     <use style="fill:#4878d0;stroke:#ffffff;stroke-width:0.75;" x="106.820295" xlink:href="#C0_0_5ee17408fb" y="97.939889"/>
    </g>
    <g clip-path="url(#pa19d196fb5)">
     <use style="fill:#4878d0;stroke:#ffffff;stroke-width:0.75;" x="124.430723" xlink:href="#C0_0_5ee17408fb" y="154.996032"/>
    </g>
    <g clip-path="url(#pa19d196fb5)">
     <use style="fill:#4878d0;stroke:#ffffff;stroke-width:0.75;" x="117.893253" xlink:href="#C0_0_5ee17408fb" y="137.45948"/>
    </g>
    <g clip-path="url(#pa19d196fb5)">
     <use style="fill:#4878d0;stroke:#ffffff;stroke-width:0.75;" x="119.153808" xlink:href="#C0_0_5ee17408fb" y="129.613023"/>
    </g>
    <g clip-path="url(#pa19d196fb5)">
     <use style="fill:#4878d0;stroke:#ffffff;stroke-width:0.75;" x="130.66827" xlink:href="#C0_0_5ee17408fb" y="190.262364"/>
    </g>
    <g clip-path="url(#pa19d196fb5)">
     <use style="fill:#4878d0;stroke:#ffffff;stroke-width:0.75;" x="128.6983" xlink:href="#C0_0_5ee17408fb" y="126.533875"/>
    </g>
    <g clip-path="url(#pa19d196fb5)">
     <use style="fill:#4878d0;stroke:#ffffff;stroke-width:0.75;" x="104.654113" xlink:href="#C0_0_5ee17408fb" y="141.612255"/>
    </g>
    <g clip-path="url(#pa19d196fb5)">
     <use style="fill:#4878d0;stroke:#ffffff;stroke-width:0.75;" x="158.025898" xlink:href="#C0_0_5ee17408fb" y="161.597467"/>
    </g>
    <g clip-path="url(#pa19d196fb5)">
     <use style="fill:#4878d0;stroke:#ffffff;stroke-width:0.75;" x="151.270395" xlink:href="#C0_0_5ee17408fb" y="199.428848"/>
    </g>
    <g clip-path="url(#pa19d196fb5)">
     <use style="fill:#4878d0;stroke:#ffffff;stroke-width:0.75;" x="146.603525" xlink:href="#C0_0_5ee17408fb" y="225.964148"/>
    </g>
    <g clip-path="url(#pa19d196fb5)">
     <use style="fill:#4878d0;stroke:#ffffff;stroke-width:0.75;" x="145.467893" xlink:href="#C0_0_5ee17408fb" y="160.533358"/>
    </g>
    <g clip-path="url(#pa19d196fb5)">
     <use style="fill:#4878d0;stroke:#ffffff;stroke-width:0.75;" x="121.270502" xlink:href="#C0_0_5ee17408fb" y="172.097157"/>
    </g>
    <g clip-path="url(#pa19d196fb5)">
     <use style="fill:#4878d0;stroke:#ffffff;stroke-width:0.75;" x="119.805875" xlink:href="#C0_0_5ee17408fb" y="177.722661"/>
    </g>
    <g clip-path="url(#pa19d196fb5)">
     <use style="fill:#4878d0;stroke:#ffffff;stroke-width:0.75;" x="145.327659" xlink:href="#C0_0_5ee17408fb" y="206.536651"/>
    </g>
    <g clip-path="url(#pa19d196fb5)">
     <use style="fill:#4878d0;stroke:#ffffff;stroke-width:0.75;" x="146.876536" xlink:href="#C0_0_5ee17408fb" y="216.305412"/>
    </g>
    <g clip-path="url(#pa19d196fb5)">
     <use style="fill:#4878d0;stroke:#ffffff;stroke-width:0.75;" x="133.344934" xlink:href="#C0_0_5ee17408fb" y="155.840111"/>
    </g>
    <g clip-path="url(#pa19d196fb5)">
     <use style="fill:#4878d0;stroke:#ffffff;stroke-width:0.75;" x="94.872157" xlink:href="#C0_0_5ee17408fb" y="125.782557"/>
    </g>
    <g clip-path="url(#pa19d196fb5)">
     <use style="fill:#4878d0;stroke:#ffffff;stroke-width:0.75;" x="87.374046" xlink:href="#C0_0_5ee17408fb" y="98.362682"/>
    </g>
    <g clip-path="url(#pa19d196fb5)">
     <use style="fill:#4878d0;stroke:#ffffff;stroke-width:0.75;" x="140.219253" xlink:href="#C0_0_5ee17408fb" y="211.942173"/>
    </g>
    <g clip-path="url(#pa19d196fb5)">
     <use style="fill:#4878d0;stroke:#ffffff;stroke-width:0.75;" x="120.520413" xlink:href="#C0_0_5ee17408fb" y="189.193703"/>
    </g>
    <g clip-path="url(#pa19d196fb5)">
     <use style="fill:#4878d0;stroke:#ffffff;stroke-width:0.75;" x="106.134038" xlink:href="#C0_0_5ee17408fb" y="163.260676"/>
    </g>
    <g clip-path="url(#pa19d196fb5)">
     <use style="fill:#4878d0;stroke:#ffffff;stroke-width:0.75;" x="112.356281" xlink:href="#C0_0_5ee17408fb" y="171.253078"/>
    </g>
    <g clip-path="url(#pa19d196fb5)">
     <use style="fill:#4878d0;stroke:#ffffff;stroke-width:0.75;" x="143.028686" xlink:href="#C0_0_5ee17408fb" y="213.864454"/>
    </g>
    <g clip-path="url(#pa19d196fb5)">
     <use style="fill:#4878d0;stroke:#ffffff;stroke-width:0.75;" x="126.463158" xlink:href="#C0_0_5ee17408fb" y="182.0859"/>
    </g>
    <g clip-path="url(#pa19d196fb5)">
     <use style="fill:#4878d0;stroke:#ffffff;stroke-width:0.75;" x="121.417218" xlink:href="#C0_0_5ee17408fb" y="150.852798"/>
    </g>
    <g clip-path="url(#pa19d196fb5)">
     <use style="fill:#4878d0;stroke:#ffffff;stroke-width:0.75;" x="170.975917" xlink:href="#C0_0_5ee17408fb" y="269.947814"/>
    </g>
    <g clip-path="url(#pa19d196fb5)">
     <use style="fill:#4878d0;stroke:#ffffff;stroke-width:0.75;" x="136.287144" xlink:href="#C0_0_5ee17408fb" y="194.10695"/>
    </g>
    <g clip-path="url(#pa19d196fb5)">
     <use style="fill:#4878d0;stroke:#ffffff;stroke-width:0.75;" x="154.444579" xlink:href="#C0_0_5ee17408fb" y="124.738836"/>
    </g>
    <g clip-path="url(#pa19d196fb5)">
     <use style="fill:#4878d0;stroke:#ffffff;stroke-width:0.75;" x="144.669103" xlink:href="#C0_0_5ee17408fb" y="133.668075"/>
    </g>
    <g clip-path="url(#pa19d196fb5)">
     <use style="fill:#4878d0;stroke:#ffffff;stroke-width:0.75;" x="146.750242" xlink:href="#C0_0_5ee17408fb" y="204.719789"/>
    </g>
    <g clip-path="url(#pa19d196fb5)">
     <use style="fill:#4878d0;stroke:#ffffff;stroke-width:0.75;" x="117.815475" xlink:href="#C0_0_5ee17408fb" y="146.824151"/>
    </g>
    <g clip-path="url(#pa19d196fb5)">
     <use style="fill:#4878d0;stroke:#ffffff;stroke-width:0.75;" x="137.47876" xlink:href="#C0_0_5ee17408fb" y="198.140181"/>
    </g>
    <g clip-path="url(#pa19d196fb5)">
     <use style="fill:#4878d0;stroke:#ffffff;stroke-width:0.75;" x="112.707062" xlink:href="#C0_0_5ee17408fb" y="152.229649"/>
    </g>
    <g clip-path="url(#pa19d196fb5)">
     <use style="fill:#4878d0;stroke:#ffffff;stroke-width:0.75;" x="126.820428" xlink:href="#C0_0_5ee17408fb" y="187.82143"/>
    </g>
    <g clip-path="url(#pa19d196fb5)">
     <use style="fill:#ee854a;stroke:#ffffff;stroke-width:0.75;" x="327.406045" xlink:href="#C0_0_5ee17408fb" y="180.362203"/>
    </g>
    <g clip-path="url(#pa19d196fb5)">
     <use style="fill:#ee854a;stroke:#ffffff;stroke-width:0.75;" x="334.840338" xlink:href="#C0_0_5ee17408fb" y="159.557863"/>
    </g>
    <g clip-path="url(#pa19d196fb5)">
     <use style="fill:#ee854a;stroke:#ffffff;stroke-width:0.75;" x="348.443236" xlink:href="#C0_0_5ee17408fb" y="185.899559"/>
    </g>
    <g clip-path="url(#pa19d196fb5)">
     <use style="fill:#ee854a;stroke:#ffffff;stroke-width:0.75;" x="345.049874" xlink:href="#C0_0_5ee17408fb" y="254.106254"/>
    </g>
    <g clip-path="url(#pa19d196fb5)">
     <use style="fill:#ee854a;stroke:#ffffff;stroke-width:0.75;" x="351.336922" xlink:href="#C0_0_5ee17408fb" y="203.216101"/>
    </g>
    <g clip-path="url(#pa19d196fb5)">
     <use style="fill:#ee854a;stroke:#ffffff;stroke-width:0.75;" x="348.729208" xlink:href="#C0_0_5ee17408fb" y="225.758677"/>
    </g>
    <g clip-path="url(#pa19d196fb5)">
     <use style="fill:#ee854a;stroke:#ffffff;stroke-width:0.75;" x="349.135964" xlink:href="#C0_0_5ee17408fb" y="145.337695"/>
    </g>
    <g clip-path="url(#pa19d196fb5)">
     <use style="fill:#ee854a;stroke:#ffffff;stroke-width:0.75;" x="300.241515" xlink:href="#C0_0_5ee17408fb" y="253.98852"/>
    </g>
    <g clip-path="url(#pa19d196fb5)">
     <use style="fill:#ee854a;stroke:#ffffff;stroke-width:0.75;" x="333.796803" xlink:href="#C0_0_5ee17408fb" y="219.14312"/>
    </g>
    <g clip-path="url(#pa19d196fb5)">
     <use style="fill:#ee854a;stroke:#ffffff;stroke-width:0.75;" x="338.370804" xlink:href="#C0_0_5ee17408fb" y="197.710129"/>
    </g>
    <g clip-path="url(#pa19d196fb5)">
     <use style="fill:#ee854a;stroke:#ffffff;stroke-width:0.75;" x="321.573498" xlink:href="#C0_0_5ee17408fb" y="301.899999"/>
    </g>
    <g clip-path="url(#pa19d196fb5)">
     <use style="fill:#ee854a;stroke:#ffffff;stroke-width:0.75;" x="336.185147" xlink:href="#C0_0_5ee17408fb" y="167.105666"/>
    </g>
    <g clip-path="url(#pa19d196fb5)">
     <use style="fill:#ee854a;stroke:#ffffff;stroke-width:0.75;" x="320.790012" xlink:href="#C0_0_5ee17408fb" y="302.308645"/>
    </g>
    <g clip-path="url(#pa19d196fb5)">
     <use style="fill:#ee854a;stroke:#ffffff;stroke-width:0.75;" x="353.915372" xlink:href="#C0_0_5ee17408fb" y="210.988472"/>
    </g>
    <g clip-path="url(#pa19d196fb5)">
     <use style="fill:#ee854a;stroke:#ffffff;stroke-width:0.75;" x="303.661782" xlink:href="#C0_0_5ee17408fb" y="177.710793"/>
    </g>
    <g clip-path="url(#pa19d196fb5)">
     <use style="fill:#ee854a;stroke:#ffffff;stroke-width:0.75;" x="321.736331" xlink:href="#C0_0_5ee17408fb" y="177.811281"/>
    </g>
    <g clip-path="url(#pa19d196fb5)">
     <use style="fill:#ee854a;stroke:#ffffff;stroke-width:0.75;" x="356.15701" xlink:href="#C0_0_5ee17408fb" y="180.195389"/>
    </g>
    <g clip-path="url(#pa19d196fb5)">
     <use style="fill:#ee854a;stroke:#ffffff;stroke-width:0.75;" x="312.415327" xlink:href="#C0_0_5ee17408fb" y="257.388132"/>
    </g>
    <g clip-path="url(#pa19d196fb5)">
     <use style="fill:#ee854a;stroke:#ffffff;stroke-width:0.75;" x="372.191828" xlink:href="#C0_0_5ee17408fb" y="258.565367"/>
    </g>
    <g clip-path="url(#pa19d196fb5)">
     <use style="fill:#ee854a;stroke:#ffffff;stroke-width:0.75;" x="319.303607" xlink:href="#C0_0_5ee17408fb" y="255.901287"/>
    </g>
    <g clip-path="url(#pa19d196fb5)">
     <use style="fill:#ee854a;stroke:#ffffff;stroke-width:0.75;" x="376.977154" xlink:href="#C0_0_5ee17408fb" y="133.993927"/>
    </g>
    <g clip-path="url(#pa19d196fb5)">
     <use style="fill:#ee854a;stroke:#ffffff;stroke-width:0.75;" x="317.26468" xlink:href="#C0_0_5ee17408fb" y="204.052489"/>
    </g>
    <g clip-path="url(#pa19d196fb5)">
     <use style="fill:#ee854a;stroke:#ffffff;stroke-width:0.75;" x="379.599197" xlink:href="#C0_0_5ee17408fb" y="245.832065"/>
    </g>
    <g clip-path="url(#pa19d196fb5)">
     <use style="fill:#ee854a;stroke:#ffffff;stroke-width:0.75;" x="344.9387" xlink:href="#C0_0_5ee17408fb" y="246.783007"/>
    </g>
    <g clip-path="url(#pa19d196fb5)">
     <use style="fill:#ee854a;stroke:#ffffff;stroke-width:0.75;" x="322.934416" xlink:href="#C0_0_5ee17408fb" y="206.603431"/>
    </g>
    <g clip-path="url(#pa19d196fb5)">
     <use style="fill:#ee854a;stroke:#ffffff;stroke-width:0.75;" x="326.928987" xlink:href="#C0_0_5ee17408fb" y="187.800024"/>
    </g>
    <g clip-path="url(#pa19d196fb5)">
     <use style="fill:#ee854a;stroke:#ffffff;stroke-width:0.75;" x="349.368318" xlink:href="#C0_0_5ee17408fb" y="224.350469"/>
    </g>
    <g clip-path="url(#pa19d196fb5)">
     <use style="fill:#ee854a;stroke:#ffffff;stroke-width:0.75;" x="372.640632" xlink:href="#C0_0_5ee17408fb" y="174.335751"/>
    </g>
    <g clip-path="url(#pa19d196fb5)">
     <use style="fill:#ee854a;stroke:#ffffff;stroke-width:0.75;" x="352.240212" xlink:href="#C0_0_5ee17408fb" y="189.634119"/>
    </g>
    <g clip-path="url(#pa19d196fb5)">
     <use style="fill:#ee854a;stroke:#ffffff;stroke-width:0.75;" x="288.595648" xlink:href="#C0_0_5ee17408fb" y="241.857491"/>
    </g>
    <g clip-path="url(#pa19d196fb5)">
     <use style="fill:#ee854a;stroke:#ffffff;stroke-width:0.75;" x="319.660863" xlink:href="#C0_0_5ee17408fb" y="261.636788"/>
    </g>
    <g clip-path="url(#pa19d196fb5)">
     <use style="fill:#ee854a;stroke:#ffffff;stroke-width:0.75;" x="308.651748" xlink:href="#C0_0_5ee17408fb" y="270.34145"/>
    </g>
    <g clip-path="url(#pa19d196fb5)">
     <use style="fill:#ee854a;stroke:#ffffff;stroke-width:0.75;" x="315.092005" xlink:href="#C0_0_5ee17408fb" y="222.965883"/>
    </g>
    <g clip-path="url(#pa19d196fb5)">
     <use style="fill:#ee854a;stroke:#ffffff;stroke-width:0.75;" x="394.167834" xlink:href="#C0_0_5ee17408fb" y="221.953139"/>
    </g>
    <g clip-path="url(#pa19d196fb5)">
     <use style="fill:#ee854a;stroke:#ffffff;stroke-width:0.75;" x="359.800788" xlink:href="#C0_0_5ee17408fb" y="180.415394"/>
    </g>
    <g clip-path="url(#pa19d196fb5)">
     <use style="fill:#ee854a;stroke:#ffffff;stroke-width:0.75;" x="341.560088" xlink:href="#C0_0_5ee17408fb" y="127.282476"/>
    </g>
    <g clip-path="url(#pa19d196fb5)">
     <use style="fill:#ee854a;stroke:#ffffff;stroke-width:0.75;" x="342.416223" xlink:href="#C0_0_5ee17408fb" y="177.613082"/>
    </g>
    <g clip-path="url(#pa19d196fb5)">
     <use style="fill:#ee854a;stroke:#ffffff;stroke-width:0.75;" x="349.81632" xlink:href="#C0_0_5ee17408fb" y="270.239179"/>
    </g>
    <g clip-path="url(#pa19d196fb5)">
     <use style="fill:#ee854a;stroke:#ffffff;stroke-width:0.75;" x="324.467979" xlink:href="#C0_0_5ee17408fb" y="189.098229"/>
    </g>
    <g clip-path="url(#pa19d196fb5)">
     <use style="fill:#ee854a;stroke:#ffffff;stroke-width:0.75;" x="338.308332" xlink:href="#C0_0_5ee17408fb" y="234.34875"/>
    </g>
    <g clip-path="url(#pa19d196fb5)">
     <use style="fill:#ee854a;stroke:#ffffff;stroke-width:0.75;" x="348.10542" xlink:href="#C0_0_5ee17408fb" y="254.440833"/>
    </g>
    <g clip-path="url(#pa19d196fb5)">
     <use style="fill:#ee854a;stroke:#ffffff;stroke-width:0.75;" x="345.709217" xlink:href="#C0_0_5ee17408fb" y="196.8565"/>
    </g>
    <g clip-path="url(#pa19d196fb5)">
     <use style="fill:#ee854a;stroke:#ffffff;stroke-width:0.75;" x="323.298169" xlink:href="#C0_0_5ee17408fb" y="237.097879"/>
    </g>
    <g clip-path="url(#pa19d196fb5)">
     <use style="fill:#ee854a;stroke:#ffffff;stroke-width:0.75;" x="301.790401" xlink:href="#C0_0_5ee17408fb" y="263.757281"/>
    </g>
    <g clip-path="url(#pa19d196fb5)">
     <use style="fill:#ee854a;stroke:#ffffff;stroke-width:0.75;" x="339.415677" xlink:href="#C0_0_5ee17408fb" y="222.987706"/>
    </g>
    <g clip-path="url(#pa19d196fb5)">
     <use style="fill:#ee854a;stroke:#ffffff;stroke-width:0.75;" x="321.307758" xlink:href="#C0_0_5ee17408fb" y="206.199336"/>
    </g>
    <g clip-path="url(#pa19d196fb5)">
     <use style="fill:#ee854a;stroke:#ffffff;stroke-width:0.75;" x="330.852245" xlink:href="#C0_0_5ee17408fb" y="203.120199"/>
    </g>
    <g clip-path="url(#pa19d196fb5)">
     <use style="fill:#ee854a;stroke:#ffffff;stroke-width:0.75;" x="326.578203" xlink:href="#C0_0_5ee17408fb" y="206.823437"/>
    </g>
    <g clip-path="url(#pa19d196fb5)">
     <use style="fill:#ee854a;stroke:#ffffff;stroke-width:0.75;" x="284.894521" xlink:href="#C0_0_5ee17408fb" y="218.172177"/>
    </g>
    <g clip-path="url(#pa19d196fb5)">
     <use style="fill:#ee854a;stroke:#ffffff;stroke-width:0.75;" x="329.387632" xlink:href="#C0_0_5ee17408fb" y="208.745731"/>
    </g>
    <g clip-path="url(#pa19d196fb5)">
     <use style="fill:#6acc64;stroke:#ffffff;stroke-width:0.75;" x="467.559612" xlink:href="#C0_0_5ee17408fb" y="84.008757"/>
    </g>
    <g clip-path="url(#pa19d196fb5)">
     <use style="fill:#6acc64;stroke:#ffffff;stroke-width:0.75;" x="416.332787" xlink:href="#C0_0_5ee17408fb" y="183.29948"/>
    </g>
    <g clip-path="url(#pa19d196fb5)">
     <use style="fill:#6acc64;stroke:#ffffff;stroke-width:0.75;" x="433.566503" xlink:href="#C0_0_5ee17408fb" y="160.343322"/>
    </g>
    <g clip-path="url(#pa19d196fb5)">
     <use style="fill:#6acc64;stroke:#ffffff;stroke-width:0.75;" x="418.485028" xlink:href="#C0_0_5ee17408fb" y="197.216032"/>
    </g>
    <g clip-path="url(#pa19d196fb5)">
     <use style="fill:#6acc64;stroke:#ffffff;stroke-width:0.75;" x="445.836192" xlink:href="#C0_0_5ee17408fb" y="143.792198"/>
    </g>
    <g clip-path="url(#pa19d196fb5)">
     <use style="fill:#6acc64;stroke:#ffffff;stroke-width:0.75;" x="458.304789" xlink:href="#C0_0_5ee17408fb" y="189.565948"/>
    </g>
    <g clip-path="url(#pa19d196fb5)">
     <use style="fill:#6acc64;stroke:#ffffff;stroke-width:0.75;" x="398.111548" xlink:href="#C0_0_5ee17408fb" y="204.443371"/>
    </g>
    <g clip-path="url(#pa19d196fb5)">
     <use style="fill:#6acc64;stroke:#ffffff;stroke-width:0.75;" x="434.113884" xlink:href="#C0_0_5ee17408fb" y="225.888666"/>
    </g>
    <g clip-path="url(#pa19d196fb5)">
     <use style="fill:#6acc64;stroke:#ffffff;stroke-width:0.75;" x="434.351356" xlink:href="#C0_0_5ee17408fb" y="244.797514"/>
    </g>
    <g clip-path="url(#pa19d196fb5)">
     <use style="fill:#6acc64;stroke:#ffffff;stroke-width:0.75;" x="445.885681" xlink:href="#C0_0_5ee17408fb" y="57.63572"/>
    </g>
    <g clip-path="url(#pa19d196fb5)">
     <use style="fill:#6acc64;stroke:#ffffff;stroke-width:0.75;" x="392.899431" xlink:href="#C0_0_5ee17408fb" y="120.177819"/>
    </g>
    <g clip-path="url(#pa19d196fb5)">
     <use style="fill:#6acc64;stroke:#ffffff;stroke-width:0.75;" x="415.072244" xlink:href="#C0_0_5ee17408fb" y="191.145947"/>
    </g>
    <g clip-path="url(#pa19d196fb5)">
     <use style="fill:#6acc64;stroke:#ffffff;stroke-width:0.75;" x="419.690594" xlink:href="#C0_0_5ee17408fb" y="143.660384"/>
    </g>
    <g clip-path="url(#pa19d196fb5)">
     <use style="fill:#6acc64;stroke:#ffffff;stroke-width:0.75;" x="426.234566" xlink:href="#C0_0_5ee17408fb" y="185.955863"/>
    </g>
    <g clip-path="url(#pa19d196fb5)">
     <use style="fill:#6acc64;stroke:#ffffff;stroke-width:0.75;" x="443.830657" xlink:href="#C0_0_5ee17408fb" y="108.631274"/>
    </g>
    <g clip-path="url(#pa19d196fb5)">
     <use style="fill:#6acc64;stroke:#ffffff;stroke-width:0.75;" x="422.913295" xlink:href="#C0_0_5ee17408fb" y="89.920641"/>
    </g>
    <g clip-path="url(#pa19d196fb5)">
     <use style="fill:#6acc64;stroke:#ffffff;stroke-width:0.75;" x="406.635094" xlink:href="#C0_0_5ee17408fb" y="182.864055"/>
    </g>
    <g clip-path="url(#pa19d196fb5)">
     <use style="fill:#6acc64;stroke:#ffffff;stroke-width:0.75;" x="440.525862" xlink:href="#C0_0_5ee17408fb" y="101.721274"/>
    </g>
    <g clip-path="url(#pa19d196fb5)">
     <use style="fill:#6acc64;stroke:#ffffff;stroke-width:0.75;" x="496.819627" xlink:href="#C0_0_5ee17408fb" y="215.814883"/>
    </g>
    <g clip-path="url(#pa19d196fb5)">
     <use style="fill:#6acc64;stroke:#ffffff;stroke-width:0.75;" x="400.01257" xlink:href="#C0_0_5ee17408fb" y="280.05155"/>
    </g>
    <g clip-path="url(#pa19d196fb5)">
     <use style="fill:#6acc64;stroke:#ffffff;stroke-width:0.75;" x="433.145394" xlink:href="#C0_0_5ee17408fb" y="106.383553"/>
    </g>
    <g clip-path="url(#pa19d196fb5)">
     <use style="fill:#6acc64;stroke:#ffffff;stroke-width:0.75;" x="413.108758" xlink:href="#C0_0_5ee17408fb" y="152.176389"/>
    </g>
    <g clip-path="url(#pa19d196fb5)">
     <use style="fill:#6acc64;stroke:#ffffff;stroke-width:0.75;" x="461.886111" xlink:href="#C0_0_5ee17408fb" y="226.424559"/>
    </g>
    <g clip-path="url(#pa19d196fb5)">
     <use style="fill:#6acc64;stroke:#ffffff;stroke-width:0.75;" x="391.37883" xlink:href="#C0_0_5ee17408fb" y="187.200897"/>
    </g>
    <g clip-path="url(#pa19d196fb5)">
     <use style="fill:#6acc64;stroke:#ffffff;stroke-width:0.75;" x="421.070958" xlink:href="#C0_0_5ee17408fb" y="122.640605"/>
    </g>
    <g clip-path="url(#pa19d196fb5)">
     <use style="fill:#6acc64;stroke:#ffffff;stroke-width:0.75;" x="411.317285" xlink:href="#C0_0_5ee17408fb" y="183.60271"/>
    </g>
    <g clip-path="url(#pa19d196fb5)">
     <use style="fill:#6acc64;stroke:#ffffff;stroke-width:0.75;" x="384.994572" xlink:href="#C0_0_5ee17408fb" y="173.178928"/>
    </g>
    <g clip-path="url(#pa19d196fb5)">
     <use style="fill:#6acc64;stroke:#ffffff;stroke-width:0.75;" x="384.910307" xlink:href="#C0_0_5ee17408fb" y="157.784658"/>
    </g>
    <g clip-path="url(#pa19d196fb5)">
     <use style="fill:#6acc64;stroke:#ffffff;stroke-width:0.75;" x="438.555089" xlink:href="#C0_0_5ee17408fb" y="168.11113"/>
    </g>
    <g clip-path="url(#pa19d196fb5)">
     <use style="fill:#6acc64;stroke:#ffffff;stroke-width:0.75;" x="396.040603" xlink:href="#C0_0_5ee17408fb" y="220.769522"/>
    </g>
    <g clip-path="url(#pa19d196fb5)">
     <use style="fill:#6acc64;stroke:#ffffff;stroke-width:0.75;" x="432.165698" xlink:href="#C0_0_5ee17408fb" y="214.193051"/>
    </g>
    <g clip-path="url(#pa19d196fb5)">
     <use style="fill:#6acc64;stroke:#ffffff;stroke-width:0.75;" x="410.028456" xlink:href="#C0_0_5ee17408fb" y="114.657361"/>
    </g>
    <g clip-path="url(#pa19d196fb5)">
     <use style="fill:#6acc64;stroke:#ffffff;stroke-width:0.75;" x="444.728824" xlink:href="#C0_0_5ee17408fb" y="155.153222"/>
    </g>
    <g clip-path="url(#pa19d196fb5)">
     <use style="fill:#6acc64;stroke:#ffffff;stroke-width:0.75;" x="379.157664" xlink:href="#C0_0_5ee17408fb" y="224.702283"/>
    </g>
    <g clip-path="url(#pa19d196fb5)">
     <use style="fill:#6acc64;stroke:#ffffff;stroke-width:0.75;" x="407.546229" xlink:href="#C0_0_5ee17408fb" y="278.903863"/>
    </g>
    <g clip-path="url(#pa19d196fb5)">
     <use style="fill:#6acc64;stroke:#ffffff;stroke-width:0.75;" x="444.653391" xlink:href="#C0_0_5ee17408fb" y="142.273982"/>
    </g>
    <g clip-path="url(#pa19d196fb5)">
     <use style="fill:#6acc64;stroke:#ffffff;stroke-width:0.75;" x="438.673541" xlink:href="#C0_0_5ee17408fb" y="70.074925"/>
    </g>
    <g clip-path="url(#pa19d196fb5)">
     <use style="fill:#6acc64;stroke:#ffffff;stroke-width:0.75;" x="405.086216" xlink:href="#C0_0_5ee17408fb" y="173.095318"/>
    </g>
    <g clip-path="url(#pa19d196fb5)">
     <use style="fill:#6acc64;stroke:#ffffff;stroke-width:0.75;" x="381.896808" xlink:href="#C0_0_5ee17408fb" y="153.641429"/>
    </g>
    <g clip-path="url(#pa19d196fb5)">
     <use style="fill:#6acc64;stroke:#ffffff;stroke-width:0.75;" x="409.66255" xlink:href="#C0_0_5ee17408fb" y="129.418409"/>
    </g>
    <g clip-path="url(#pa19d196fb5)">
     <use style="fill:#6acc64;stroke:#ffffff;stroke-width:0.75;" x="441.498302" xlink:href="#C0_0_5ee17408fb" y="99.271183"/>
    </g>
    <g clip-path="url(#pa19d196fb5)">
     <use style="fill:#6acc64;stroke:#ffffff;stroke-width:0.75;" x="407.503817" xlink:href="#C0_0_5ee17408fb" y="90.742909"/>
    </g>
    <g clip-path="url(#pa19d196fb5)">
     <use style="fill:#6acc64;stroke:#ffffff;stroke-width:0.75;" x="416.332787" xlink:href="#C0_0_5ee17408fb" y="183.29948"/>
    </g>
    <g clip-path="url(#pa19d196fb5)">
     <use style="fill:#6acc64;stroke:#ffffff;stroke-width:0.75;" x="444.638082" xlink:href="#C0_0_5ee17408fb" y="115.000039"/>
    </g>
    <g clip-path="url(#pa19d196fb5)">
     <use style="fill:#6acc64;stroke:#ffffff;stroke-width:0.75;" x="445.765868" xlink:href="#C0_0_5ee17408fb" y="70.809032"/>
    </g>
    <g clip-path="url(#pa19d196fb5)">
     <use style="fill:#6acc64;stroke:#ffffff;stroke-width:0.75;" x="419.353759" xlink:href="#C0_0_5ee17408fb" y="105.094886"/>
    </g>
    <g clip-path="url(#pa19d196fb5)">
     <use style="fill:#6acc64;stroke:#ffffff;stroke-width:0.75;" x="409.129488" xlink:href="#C0_0_5ee17408fb" y="198.25374"/>
    </g>
    <g clip-path="url(#pa19d196fb5)">
     <use style="fill:#6acc64;stroke:#ffffff;stroke-width:0.75;" x="404.476362" xlink:href="#C0_0_5ee17408fb" y="144.188555"/>
    </g>
    <g clip-path="url(#pa19d196fb5)">
     <use style="fill:#6acc64;stroke:#ffffff;stroke-width:0.75;" x="424.650927" xlink:href="#C0_0_5ee17408fb" y="74.636374"/>
    </g>
    <g clip-path="url(#pa19d196fb5)">
     <use style="fill:#6acc64;stroke:#ffffff;stroke-width:0.75;" x="398.224861" xlink:href="#C0_0_5ee17408fb" y="166.511126"/>
    </g>
   </g>
   <g id="PathCollection_2"/>
   <g id="PathCollection_3"/>
   <g id="PathCollection_4"/>
   <g id="PathCollection_5"/>
   <g id="patch_3">
    <path d="M 58.08 314.61 
L 58.08 44.42125 
" style="fill:none;stroke:#262626;stroke-linecap:square;stroke-linejoin:miter;stroke-width:0.8;"/>
   </g>
   <g id="patch_4">
    <path d="M 58.08 314.61 
L 517.71875 314.61 
" style="fill:none;stroke:#262626;stroke-linecap:square;stroke-linejoin:miter;stroke-width:0.8;"/>
   </g>
   <g id="legend_1">
    <g id="patch_5">
     <path d="M 65.08 309.61 
L 139.865938 309.61 
Q 141.865938 309.61 141.865938 307.61 
L 141.865938 251.789687 
Q 141.865938 249.789687 139.865938 249.789687 
L 65.08 249.789687 
Q 63.08 249.789687 63.08 251.789687 
L 63.08 307.61 
Q 63.08 309.61 65.08 309.61 
z
" style="fill:#ffffff;opacity:0.8;stroke:#cccccc;stroke-linejoin:miter;"/>
    </g>
    <g id="PathCollection_6">
     <defs>
      <path id="m8b3240b3f5" style="stroke:#ffffff;stroke-width:1.5;"/>
     </defs>
     <g>
      <use style="fill:#ffffff;stroke:#ffffff;stroke-width:1.5;" x="77.08" xlink:href="#m8b3240b3f5" y="258.444375"/>
     </g>
    </g>
    <g id="text_17">
     <!-- Species -->
     <defs>
      <path d="M 4.5 23 
L 13.421875 23.78125 
Q 14.0625 18.40625 16.375 14.96875 
Q 18.703125 11.53125 23.578125 9.40625 
Q 28.46875 7.28125 34.578125 7.28125 
Q 39.984375 7.28125 44.140625 8.890625 
Q 48.296875 10.5 50.3125 13.296875 
Q 52.34375 16.109375 52.34375 19.4375 
Q 52.34375 22.796875 50.390625 25.3125 
Q 48.4375 27.828125 43.953125 29.546875 
Q 41.0625 30.671875 31.203125 33.03125 
Q 21.34375 35.40625 17.390625 37.5 
Q 12.25 40.1875 9.734375 44.15625 
Q 7.234375 48.140625 7.234375 53.078125 
Q 7.234375 58.5 10.296875 63.203125 
Q 13.375 67.921875 19.28125 70.359375 
Q 25.203125 72.796875 32.421875 72.796875 
Q 40.375 72.796875 46.453125 70.234375 
Q 52.546875 67.671875 55.8125 62.6875 
Q 59.078125 57.71875 59.328125 51.421875 
L 50.25 50.734375 
Q 49.515625 57.515625 45.28125 60.984375 
Q 41.0625 64.453125 32.8125 64.453125 
Q 24.21875 64.453125 20.28125 61.296875 
Q 16.359375 58.15625 16.359375 53.71875 
Q 16.359375 49.859375 19.140625 47.359375 
Q 21.875 44.875 33.421875 42.265625 
Q 44.96875 39.65625 49.265625 37.703125 
Q 55.515625 34.8125 58.484375 30.390625 
Q 61.46875 25.984375 61.46875 20.21875 
Q 61.46875 14.5 58.203125 9.4375 
Q 54.9375 4.390625 48.796875 1.578125 
Q 42.671875 -1.21875 35.015625 -1.21875 
Q 25.296875 -1.21875 18.71875 1.609375 
Q 12.15625 4.4375 8.421875 10.125 
Q 4.6875 15.828125 4.5 23 
z
" id="ArialMT-83"/>
      <path d="M 6.59375 -19.875 
L 6.59375 51.859375 
L 14.59375 51.859375 
L 14.59375 45.125 
Q 17.4375 49.078125 21 51.046875 
Q 24.5625 53.03125 29.640625 53.03125 
Q 36.28125 53.03125 41.359375 49.609375 
Q 46.4375 46.1875 49.015625 39.953125 
Q 51.609375 33.734375 51.609375 26.3125 
Q 51.609375 18.359375 48.75 11.984375 
Q 45.90625 5.609375 40.453125 2.21875 
Q 35.015625 -1.171875 29 -1.171875 
Q 24.609375 -1.171875 21.109375 0.6875 
Q 17.625 2.546875 15.375 5.375 
L 15.375 -19.875 
z
M 14.546875 25.640625 
Q 14.546875 15.625 18.59375 10.84375 
Q 22.65625 6.0625 28.421875 6.0625 
Q 34.28125 6.0625 38.453125 11.015625 
Q 42.625 15.96875 42.625 26.375 
Q 42.625 36.28125 38.546875 41.203125 
Q 34.46875 46.140625 28.8125 46.140625 
Q 23.1875 46.140625 18.859375 40.890625 
Q 14.546875 35.640625 14.546875 25.640625 
z
" id="ArialMT-112"/>
      <path d="M 42.09375 16.703125 
L 51.171875 15.578125 
Q 49.03125 7.625 43.21875 3.21875 
Q 37.40625 -1.171875 28.375 -1.171875 
Q 17 -1.171875 10.328125 5.828125 
Q 3.65625 12.84375 3.65625 25.484375 
Q 3.65625 38.578125 10.390625 45.796875 
Q 17.140625 53.03125 27.875 53.03125 
Q 38.28125 53.03125 44.875 45.953125 
Q 51.46875 38.875 51.46875 26.03125 
Q 51.46875 25.25 51.421875 23.6875 
L 12.75 23.6875 
Q 13.234375 15.140625 17.578125 10.59375 
Q 21.921875 6.0625 28.421875 6.0625 
Q 33.25 6.0625 36.671875 8.59375 
Q 40.09375 11.140625 42.09375 16.703125 
z
M 13.234375 30.90625 
L 42.1875 30.90625 
Q 41.609375 37.453125 38.875 40.71875 
Q 34.671875 45.796875 27.984375 45.796875 
Q 21.921875 45.796875 17.796875 41.75 
Q 13.671875 37.703125 13.234375 30.90625 
z
" id="ArialMT-101"/>
     </defs>
     <g style="fill:#262626;" transform="translate(95.08 261.069375)scale(0.1 -0.1)">
      <use xlink:href="#ArialMT-83"/>
      <use x="66.699219" xlink:href="#ArialMT-112"/>
      <use x="122.314453" xlink:href="#ArialMT-101"/>
      <use x="177.929688" xlink:href="#ArialMT-99"/>
      <use x="227.929688" xlink:href="#ArialMT-105"/>
      <use x="250.146484" xlink:href="#ArialMT-101"/>
      <use x="305.761719" xlink:href="#ArialMT-115"/>
     </g>
    </g>
    <g id="PathCollection_7">
     <defs>
      <path d="M 0 3 
C 0.795609 3 1.55874 2.683901 2.12132 2.12132 
C 2.683901 1.55874 3 0.795609 3 0 
C 3 -0.795609 2.683901 -1.55874 2.12132 -2.12132 
C 1.55874 -2.683901 0.795609 -3 0 -3 
C -0.795609 -3 -1.55874 -2.683901 -2.12132 -2.12132 
C -2.683901 -1.55874 -3 -0.795609 -3 0 
C -3 0.795609 -2.683901 1.55874 -2.12132 2.12132 
C -1.55874 2.683901 -0.795609 3 0 3 
z
" id="m8a2adb5d1c" style="stroke:#4878d0;"/>
     </defs>
     <g>
      <use style="fill:#4878d0;stroke:#4878d0;" x="77.08" xlink:href="#m8a2adb5d1c" y="272.589687"/>
     </g>
    </g>
    <g id="text_18">
     <!-- setosa -->
     <defs>
      <path d="M 3.328125 25.921875 
Q 3.328125 40.328125 11.328125 47.265625 
Q 18.015625 53.03125 27.640625 53.03125 
Q 38.328125 53.03125 45.109375 46.015625 
Q 51.90625 39.015625 51.90625 26.65625 
Q 51.90625 16.65625 48.90625 10.90625 
Q 45.90625 5.171875 40.15625 2 
Q 34.421875 -1.171875 27.640625 -1.171875 
Q 16.75 -1.171875 10.03125 5.8125 
Q 3.328125 12.796875 3.328125 25.921875 
z
M 12.359375 25.921875 
Q 12.359375 15.96875 16.703125 11.015625 
Q 21.046875 6.0625 27.640625 6.0625 
Q 34.1875 6.0625 38.53125 11.03125 
Q 42.875 16.015625 42.875 26.21875 
Q 42.875 35.84375 38.5 40.796875 
Q 34.125 45.75 27.640625 45.75 
Q 21.046875 45.75 16.703125 40.8125 
Q 12.359375 35.890625 12.359375 25.921875 
z
" id="ArialMT-111"/>
     </defs>
     <g style="fill:#262626;" transform="translate(95.08 275.214687)scale(0.1 -0.1)">
      <use xlink:href="#ArialMT-115"/>
      <use x="50" xlink:href="#ArialMT-101"/>
      <use x="105.615234" xlink:href="#ArialMT-116"/>
      <use x="133.398438" xlink:href="#ArialMT-111"/>
      <use x="189.013672" xlink:href="#ArialMT-115"/>
      <use x="239.013672" xlink:href="#ArialMT-97"/>
     </g>
    </g>
    <g id="PathCollection_8">
     <defs>
      <path d="M 0 3 
C 0.795609 3 1.55874 2.683901 2.12132 2.12132 
C 2.683901 1.55874 3 0.795609 3 0 
C 3 -0.795609 2.683901 -1.55874 2.12132 -2.12132 
C 1.55874 -2.683901 0.795609 -3 0 -3 
C -0.795609 -3 -1.55874 -2.683901 -2.12132 -2.12132 
C -2.683901 -1.55874 -3 -0.795609 -3 0 
C -3 0.795609 -2.683901 1.55874 -2.12132 2.12132 
C -1.55874 2.683901 -0.795609 3 0 3 
z
" id="mf9082e1dab" style="stroke:#ee854a;"/>
     </defs>
     <g>
      <use style="fill:#ee854a;stroke:#ee854a;" x="77.08" xlink:href="#mf9082e1dab" y="286.735"/>
     </g>
    </g>
    <g id="text_19">
     <!-- versicolor -->
     <defs>
      <path d="M 21 0 
L 1.265625 51.859375 
L 10.546875 51.859375 
L 21.6875 20.796875 
Q 23.484375 15.765625 25 10.359375 
Q 26.171875 14.453125 28.265625 20.21875 
L 39.796875 51.859375 
L 48.828125 51.859375 
L 29.203125 0 
z
" id="ArialMT-118"/>
      <path d="M 6.390625 0 
L 6.390625 71.578125 
L 15.1875 71.578125 
L 15.1875 0 
z
" id="ArialMT-108"/>
     </defs>
     <g style="fill:#262626;" transform="translate(95.08 289.36)scale(0.1 -0.1)">
      <use xlink:href="#ArialMT-118"/>
      <use x="50" xlink:href="#ArialMT-101"/>
      <use x="105.615234" xlink:href="#ArialMT-114"/>
      <use x="138.916016" xlink:href="#ArialMT-115"/>
      <use x="188.916016" xlink:href="#ArialMT-105"/>
      <use x="211.132812" xlink:href="#ArialMT-99"/>
      <use x="261.132812" xlink:href="#ArialMT-111"/>
      <use x="316.748047" xlink:href="#ArialMT-108"/>
      <use x="338.964844" xlink:href="#ArialMT-111"/>
      <use x="394.580078" xlink:href="#ArialMT-114"/>
     </g>
    </g>
    <g id="PathCollection_9">
     <defs>
      <path d="M 0 3 
C 0.795609 3 1.55874 2.683901 2.12132 2.12132 
C 2.683901 1.55874 3 0.795609 3 0 
C 3 -0.795609 2.683901 -1.55874 2.12132 -2.12132 
C 1.55874 -2.683901 0.795609 -3 0 -3 
C -0.795609 -3 -1.55874 -2.683901 -2.12132 -2.12132 
C -2.683901 -1.55874 -3 -0.795609 -3 0 
C -3 0.795609 -2.683901 1.55874 -2.12132 2.12132 
C -1.55874 2.683901 -0.795609 3 0 3 
z
" id="m1ee14056c2" style="stroke:#6acc64;"/>
     </defs>
     <g>
      <use style="fill:#6acc64;stroke:#6acc64;" x="77.08" xlink:href="#m1ee14056c2" y="300.880313"/>
     </g>
    </g>
    <g id="text_20">
     <!-- virginica -->
     <defs>
      <path d="M 4.984375 -4.296875 
L 13.53125 -5.5625 
Q 14.0625 -9.515625 16.5 -11.328125 
Q 19.78125 -13.765625 25.4375 -13.765625 
Q 31.546875 -13.765625 34.859375 -11.328125 
Q 38.1875 -8.890625 39.359375 -4.5 
Q 40.046875 -1.8125 39.984375 6.78125 
Q 34.234375 0 25.640625 0 
Q 14.9375 0 9.078125 7.71875 
Q 3.21875 15.4375 3.21875 26.21875 
Q 3.21875 33.640625 5.90625 39.90625 
Q 8.59375 46.1875 13.6875 49.609375 
Q 18.796875 53.03125 25.6875 53.03125 
Q 34.859375 53.03125 40.828125 45.609375 
L 40.828125 51.859375 
L 48.921875 51.859375 
L 48.921875 7.03125 
Q 48.921875 -5.078125 46.453125 -10.125 
Q 44 -15.1875 38.640625 -18.109375 
Q 33.296875 -21.046875 25.484375 -21.046875 
Q 16.21875 -21.046875 10.5 -16.875 
Q 4.78125 -12.703125 4.984375 -4.296875 
z
M 12.25 26.859375 
Q 12.25 16.65625 16.296875 11.96875 
Q 20.359375 7.28125 26.46875 7.28125 
Q 32.515625 7.28125 36.609375 11.9375 
Q 40.71875 16.609375 40.71875 26.5625 
Q 40.71875 36.078125 36.5 40.90625 
Q 32.28125 45.75 26.3125 45.75 
Q 20.453125 45.75 16.34375 40.984375 
Q 12.25 36.234375 12.25 26.859375 
z
" id="ArialMT-103"/>
     </defs>
     <g style="fill:#262626;" transform="translate(95.08 303.505313)scale(0.1 -0.1)">
      <use xlink:href="#ArialMT-118"/>
      <use x="50" xlink:href="#ArialMT-105"/>
      <use x="72.216797" xlink:href="#ArialMT-114"/>
      <use x="105.517578" xlink:href="#ArialMT-103"/>
      <use x="161.132812" xlink:href="#ArialMT-105"/>
      <use x="183.349609" xlink:href="#ArialMT-110"/>
      <use x="238.964844" xlink:href="#ArialMT-105"/>
      <use x="261.181641" xlink:href="#ArialMT-99"/>
      <use x="311.181641" xlink:href="#ArialMT-97"/>
     </g>
    </g>
   </g>
  </g>
 </g>
 <defs>
  <clipPath id="pa19d196fb5">
   <rect height="270.18875" width="459.63875" x="58.08" y="44.42125"/>
  </clipPath>
 </defs>
</svg>
