<?xml version="1.0" encoding="utf-8" standalone="no"?>
<!DOCTYPE svg PUBLIC "-//W3C//DTD SVG 1.1//EN"
  "http://www.w3.org/Graphics/SVG/1.1/DTD/svg11.dtd">
<!-- Created with matplotlib (https://matplotlib.org/) -->
<svg height="360pt" version="1.1" viewBox="0 0 576 360" width="576pt" xmlns="http://www.w3.org/2000/svg" xmlns:xlink="http://www.w3.org/1999/xlink">
 <defs>
  <style type="text/css">
*{stroke-linecap:butt;stroke-linejoin:round;}
  </style>
 </defs>
 <g id="figure_1">
  <g id="patch_1">
   <path d="M 0 360 
L 576 360 
L 576 0 
L 0 0 
z
" style="fill:#ffffff;"/>
  </g>
  <g id="axes_1">
   <g id="patch_2">
    <path d="M 58.08 314.61 
L 537.7 314.61 
L 537.7 24.44 
L 58.08 24.44 
z
" style="fill:#ffffff;"/>
   </g>
   <g id="matplotlib.axis_1">
    <g id="xtick_1">
     <g id="text_1">
      <!-- −1.5 -->
      <defs>
       <path d="M 52.828125 31.203125 
L 5.5625 31.203125 
L 5.5625 39.40625 
L 52.828125 39.40625 
z
" id="ArialMT-8722"/>
       <path d="M 37.25 0 
L 28.46875 0 
L 28.46875 56 
Q 25.296875 52.984375 20.140625 49.953125 
Q 14.984375 46.921875 10.890625 45.40625 
L 10.890625 53.90625 
Q 18.265625 57.375 23.78125 62.296875 
Q 29.296875 67.234375 31.59375 71.875 
L 37.25 71.875 
z
" id="ArialMT-49"/>
       <path d="M 9.078125 0 
L 9.078125 10.015625 
L 19.09375 10.015625 
L 19.09375 0 
z
" id="ArialMT-46"/>
       <path d="M 4.15625 18.75 
L 13.375 19.53125 
Q 14.40625 12.796875 18.140625 9.390625 
Q 21.875 6 27.15625 6 
Q 33.5 6 37.890625 10.78125 
Q 42.28125 15.578125 42.28125 23.484375 
Q 42.28125 31 38.0625 35.34375 
Q 33.84375 39.703125 27 39.703125 
Q 22.75 39.703125 19.328125 37.765625 
Q 15.921875 35.84375 13.96875 32.765625 
L 5.71875 33.84375 
L 12.640625 70.609375 
L 48.25 70.609375 
L 48.25 62.203125 
L 19.671875 62.203125 
L 15.828125 42.96875 
Q 22.265625 47.46875 29.34375 47.46875 
Q 38.71875 47.46875 45.15625 40.96875 
Q 51.609375 34.46875 51.609375 24.265625 
Q 51.609375 14.546875 45.953125 7.46875 
Q 39.0625 -1.21875 27.15625 -1.21875 
Q 17.390625 -1.21875 11.203125 4.25 
Q 5.03125 9.71875 4.15625 18.75 
z
" id="ArialMT-53"/>
      </defs>
      <g style="fill:#262626;" transform="translate(108.691073 328.767812)scale(0.1 -0.1)">
       <use xlink:href="#ArialMT-8722"/>
       <use x="58.398438" xlink:href="#ArialMT-49"/>
       <use x="114.013672" xlink:href="#ArialMT-46"/>
       <use x="141.796875" xlink:href="#ArialMT-53"/>
      </g>
     </g>
    </g>
    <g id="xtick_2">
     <g id="text_2">
      <!-- −1.0 -->
      <defs>
       <path d="M 4.15625 35.296875 
Q 4.15625 48 6.765625 55.734375 
Q 9.375 63.484375 14.515625 67.671875 
Q 19.671875 71.875 27.484375 71.875 
Q 33.25 71.875 37.59375 69.546875 
Q 41.9375 67.234375 44.765625 62.859375 
Q 47.609375 58.5 49.21875 52.21875 
Q 50.828125 45.953125 50.828125 35.296875 
Q 50.828125 22.703125 48.234375 14.96875 
Q 45.65625 7.234375 40.5 3 
Q 35.359375 -1.21875 27.484375 -1.21875 
Q 17.140625 -1.21875 11.234375 6.203125 
Q 4.15625 15.140625 4.15625 35.296875 
z
M 13.1875 35.296875 
Q 13.1875 17.671875 17.3125 11.828125 
Q 21.4375 6 27.484375 6 
Q 33.546875 6 37.671875 11.859375 
Q 41.796875 17.71875 41.796875 35.296875 
Q 41.796875 52.984375 37.671875 58.78125 
Q 33.546875 64.59375 27.390625 64.59375 
Q 21.34375 64.59375 17.71875 59.46875 
Q 13.1875 52.9375 13.1875 35.296875 
z
" id="ArialMT-48"/>
      </defs>
      <g style="fill:#262626;" transform="translate(173.610477 328.767812)scale(0.1 -0.1)">
       <use xlink:href="#ArialMT-8722"/>
       <use x="58.398438" xlink:href="#ArialMT-49"/>
       <use x="114.013672" xlink:href="#ArialMT-46"/>
       <use x="141.796875" xlink:href="#ArialMT-48"/>
      </g>
     </g>
    </g>
    <g id="xtick_3">
     <g id="text_3">
      <!-- −0.5 -->
      <g style="fill:#262626;" transform="translate(238.529882 328.767812)scale(0.1 -0.1)">
       <use xlink:href="#ArialMT-8722"/>
       <use x="58.398438" xlink:href="#ArialMT-48"/>
       <use x="114.013672" xlink:href="#ArialMT-46"/>
       <use x="141.796875" xlink:href="#ArialMT-53"/>
      </g>
     </g>
    </g>
    <g id="xtick_4">
     <g id="text_4">
      <!-- 0.0 -->
      <g style="fill:#262626;" transform="translate(306.369599 328.767812)scale(0.1 -0.1)">
       <use xlink:href="#ArialMT-48"/>
       <use x="55.615234" xlink:href="#ArialMT-46"/>
       <use x="83.398438" xlink:href="#ArialMT-48"/>
      </g>
     </g>
    </g>
    <g id="xtick_5">
     <g id="text_5">
      <!-- 0.5 -->
      <g style="fill:#262626;" transform="translate(371.289004 328.767812)scale(0.1 -0.1)">
       <use xlink:href="#ArialMT-48"/>
       <use x="55.615234" xlink:href="#ArialMT-46"/>
       <use x="83.398438" xlink:href="#ArialMT-53"/>
      </g>
     </g>
    </g>
    <g id="xtick_6">
     <g id="text_6">
      <!-- 1.0 -->
      <g style="fill:#262626;" transform="translate(436.208409 328.767812)scale(0.1 -0.1)">
       <use xlink:href="#ArialMT-49"/>
       <use x="55.615234" xlink:href="#ArialMT-46"/>
       <use x="83.398438" xlink:href="#ArialMT-48"/>
      </g>
     </g>
    </g>
    <g id="xtick_7">
     <g id="text_7">
      <!-- 1.5 -->
      <g style="fill:#262626;" transform="translate(501.127813 328.767812)scale(0.1 -0.1)">
       <use xlink:href="#ArialMT-49"/>
       <use x="55.615234" xlink:href="#ArialMT-46"/>
       <use x="83.398438" xlink:href="#ArialMT-53"/>
      </g>
     </g>
    </g>
    <g id="text_8">
     <!-- Factor 1 -->
     <defs>
      <path d="M 8.203125 0 
L 8.203125 71.578125 
L 56.5 71.578125 
L 56.5 63.140625 
L 17.671875 63.140625 
L 17.671875 40.96875 
L 51.265625 40.96875 
L 51.265625 32.515625 
L 17.671875 32.515625 
L 17.671875 0 
z
" id="ArialMT-70"/>
      <path d="M 40.4375 6.390625 
Q 35.546875 2.25 31.03125 0.53125 
Q 26.515625 -1.171875 21.34375 -1.171875 
Q 12.796875 -1.171875 8.203125 3 
Q 3.609375 7.171875 3.609375 13.671875 
Q 3.609375 17.484375 5.34375 20.625 
Q 7.078125 23.78125 9.890625 25.6875 
Q 12.703125 27.59375 16.21875 28.5625 
Q 18.796875 29.25 24.03125 29.890625 
Q 34.671875 31.15625 39.703125 32.90625 
Q 39.75 34.71875 39.75 35.203125 
Q 39.75 40.578125 37.25 42.78125 
Q 33.890625 45.75 27.25 45.75 
Q 21.046875 45.75 18.09375 43.578125 
Q 15.140625 41.40625 13.71875 35.890625 
L 5.125 37.0625 
Q 6.296875 42.578125 8.984375 45.96875 
Q 11.671875 49.359375 16.75 51.1875 
Q 21.828125 53.03125 28.515625 53.03125 
Q 35.15625 53.03125 39.296875 51.46875 
Q 43.453125 49.90625 45.40625 47.53125 
Q 47.359375 45.171875 48.140625 41.546875 
Q 48.578125 39.3125 48.578125 33.453125 
L 48.578125 21.734375 
Q 48.578125 9.46875 49.140625 6.21875 
Q 49.703125 2.984375 51.375 0 
L 42.1875 0 
Q 40.828125 2.734375 40.4375 6.390625 
z
M 39.703125 26.03125 
Q 34.90625 24.078125 25.34375 22.703125 
Q 19.921875 21.921875 17.671875 20.9375 
Q 15.4375 19.96875 14.203125 18.09375 
Q 12.984375 16.21875 12.984375 13.921875 
Q 12.984375 10.40625 15.640625 8.0625 
Q 18.3125 5.71875 23.4375 5.71875 
Q 28.515625 5.71875 32.46875 7.9375 
Q 36.421875 10.15625 38.28125 14.015625 
Q 39.703125 17 39.703125 22.796875 
z
" id="ArialMT-97"/>
      <path d="M 40.4375 19 
L 49.078125 17.875 
Q 47.65625 8.9375 41.8125 3.875 
Q 35.984375 -1.171875 27.484375 -1.171875 
Q 16.84375 -1.171875 10.375 5.78125 
Q 3.90625 12.75 3.90625 25.734375 
Q 3.90625 34.125 6.6875 40.421875 
Q 9.46875 46.734375 15.15625 49.875 
Q 20.84375 53.03125 27.546875 53.03125 
Q 35.984375 53.03125 41.359375 48.75 
Q 46.734375 44.484375 48.25 36.625 
L 39.703125 35.296875 
Q 38.484375 40.53125 35.375 43.15625 
Q 32.28125 45.796875 27.875 45.796875 
Q 21.234375 45.796875 17.078125 41.03125 
Q 12.9375 36.28125 12.9375 25.984375 
Q 12.9375 15.53125 16.9375 10.796875 
Q 20.953125 6.0625 27.390625 6.0625 
Q 32.5625 6.0625 36.03125 9.234375 
Q 39.5 12.40625 40.4375 19 
z
" id="ArialMT-99"/>
      <path d="M 25.78125 7.859375 
L 27.046875 0.09375 
Q 23.34375 -0.6875 20.40625 -0.6875 
Q 15.625 -0.6875 12.984375 0.828125 
Q 10.359375 2.34375 9.28125 4.8125 
Q 8.203125 7.28125 8.203125 15.1875 
L 8.203125 45.015625 
L 1.765625 45.015625 
L 1.765625 51.859375 
L 8.203125 51.859375 
L 8.203125 64.703125 
L 16.9375 69.96875 
L 16.9375 51.859375 
L 25.78125 51.859375 
L 25.78125 45.015625 
L 16.9375 45.015625 
L 16.9375 14.703125 
Q 16.9375 10.9375 17.40625 9.859375 
Q 17.875 8.796875 18.921875 8.15625 
Q 19.96875 7.515625 21.921875 7.515625 
Q 23.390625 7.515625 25.78125 7.859375 
z
" id="ArialMT-116"/>
      <path d="M 3.328125 25.921875 
Q 3.328125 40.328125 11.328125 47.265625 
Q 18.015625 53.03125 27.640625 53.03125 
Q 38.328125 53.03125 45.109375 46.015625 
Q 51.90625 39.015625 51.90625 26.65625 
Q 51.90625 16.65625 48.90625 10.90625 
Q 45.90625 5.171875 40.15625 2 
Q 34.421875 -1.171875 27.640625 -1.171875 
Q 16.75 -1.171875 10.03125 5.8125 
Q 3.328125 12.796875 3.328125 25.921875 
z
M 12.359375 25.921875 
Q 12.359375 15.96875 16.703125 11.015625 
Q 21.046875 6.0625 27.640625 6.0625 
Q 34.1875 6.0625 38.53125 11.03125 
Q 42.875 16.015625 42.875 26.21875 
Q 42.875 35.84375 38.5 40.796875 
Q 34.125 45.75 27.640625 45.75 
Q 21.046875 45.75 16.703125 40.8125 
Q 12.359375 35.890625 12.359375 25.921875 
z
" id="ArialMT-111"/>
      <path d="M 6.5 0 
L 6.5 51.859375 
L 14.40625 51.859375 
L 14.40625 44 
Q 17.4375 49.515625 20 51.265625 
Q 22.5625 53.03125 25.640625 53.03125 
Q 30.078125 53.03125 34.671875 50.203125 
L 31.640625 42.046875 
Q 28.421875 43.953125 25.203125 43.953125 
Q 22.3125 43.953125 20.015625 42.21875 
Q 17.71875 40.484375 16.75 37.40625 
Q 15.28125 32.71875 15.28125 27.15625 
L 15.28125 0 
z
" id="ArialMT-114"/>
      <path id="ArialMT-32"/>
     </defs>
     <g style="fill:#262626;" transform="translate(510.192578 347.109469)scale(0.15 -0.15)">
      <use xlink:href="#ArialMT-70"/>
      <use x="61.083984" xlink:href="#ArialMT-97"/>
      <use x="116.699219" xlink:href="#ArialMT-99"/>
      <use x="166.699219" xlink:href="#ArialMT-116"/>
      <use x="194.482422" xlink:href="#ArialMT-111"/>
      <use x="250.097656" xlink:href="#ArialMT-114"/>
      <use x="283.398438" xlink:href="#ArialMT-32"/>
      <use x="311.181641" xlink:href="#ArialMT-49"/>
     </g>
    </g>
   </g>
   <g id="matplotlib.axis_2">
    <g id="ytick_1">
     <g id="text_9">
      <!-- −2 -->
      <defs>
       <path d="M 50.34375 8.453125 
L 50.34375 0 
L 3.03125 0 
Q 2.9375 3.171875 4.046875 6.109375 
Q 5.859375 10.9375 9.828125 15.625 
Q 13.8125 20.3125 21.34375 26.46875 
Q 33.015625 36.03125 37.109375 41.625 
Q 41.21875 47.21875 41.21875 52.203125 
Q 41.21875 57.421875 37.46875 61 
Q 33.734375 64.59375 27.734375 64.59375 
Q 21.390625 64.59375 17.578125 60.78125 
Q 13.765625 56.984375 13.71875 50.25 
L 4.6875 51.171875 
Q 5.609375 61.28125 11.65625 66.578125 
Q 17.71875 71.875 27.9375 71.875 
Q 38.234375 71.875 44.234375 66.15625 
Q 50.25 60.453125 50.25 52 
Q 50.25 47.703125 48.484375 43.546875 
Q 46.734375 39.40625 42.65625 34.8125 
Q 38.578125 30.21875 29.109375 22.21875 
Q 21.1875 15.578125 18.9375 13.203125 
Q 16.703125 10.84375 15.234375 8.453125 
z
" id="ArialMT-50"/>
      </defs>
      <g style="fill:#262626;" transform="translate(39.678438 281.727)scale(0.1 -0.1)">
       <use xlink:href="#ArialMT-8722"/>
       <use x="58.398438" xlink:href="#ArialMT-50"/>
      </g>
     </g>
    </g>
    <g id="ytick_2">
     <g id="text_10">
      <!-- −1 -->
      <g style="fill:#262626;" transform="translate(39.678438 224.730014)scale(0.1 -0.1)">
       <use xlink:href="#ArialMT-8722"/>
       <use x="58.398438" xlink:href="#ArialMT-49"/>
      </g>
     </g>
    </g>
    <g id="ytick_3">
     <g id="text_11">
      <!-- 0 -->
      <g style="fill:#262626;" transform="translate(45.519063 167.733028)scale(0.1 -0.1)">
       <use xlink:href="#ArialMT-48"/>
      </g>
     </g>
    </g>
    <g id="ytick_4">
     <g id="text_12">
      <!-- 1 -->
      <g style="fill:#262626;" transform="translate(45.519063 110.736042)scale(0.1 -0.1)">
       <use xlink:href="#ArialMT-49"/>
      </g>
     </g>
    </g>
    <g id="ytick_5">
     <g id="text_13">
      <!-- 2 -->
      <g style="fill:#262626;" transform="translate(45.519063 53.739056)scale(0.1 -0.1)">
       <use xlink:href="#ArialMT-50"/>
      </g>
     </g>
    </g>
    <g id="text_14">
     <!-- Factor 2 -->
     <g style="fill:#262626;" transform="translate(19.12725 66.455922)rotate(-90)scale(0.15 -0.15)">
      <use xlink:href="#ArialMT-70"/>
      <use x="61.083984" xlink:href="#ArialMT-97"/>
      <use x="116.699219" xlink:href="#ArialMT-99"/>
      <use x="166.699219" xlink:href="#ArialMT-116"/>
      <use x="194.482422" xlink:href="#ArialMT-111"/>
      <use x="250.097656" xlink:href="#ArialMT-114"/>
      <use x="283.398438" xlink:href="#ArialMT-32"/>
      <use x="311.181641" xlink:href="#ArialMT-50"/>
     </g>
    </g>
   </g>
   <g id="PathCollection_1">
    <defs>
     <path d="M 0 3 
C 0.795609 3 1.55874 2.683901 2.12132 2.12132 
C 2.683901 1.55874 3 0.795609 3 0 
C 3 -0.795609 2.683901 -1.55874 2.12132 -2.12132 
C 1.55874 -2.683901 0.795609 -3 0 -3 
C -0.795609 -3 -1.55874 -2.683901 -2.12132 -2.12132 
C -2.683901 -1.55874 -3 -0.795609 -3 0 
C -3 0.795609 -2.683901 1.55874 -2.12132 2.12132 
C -1.55874 2.683901 -0.795609 3 0 3 
z
" id="m6fc3de9dea" style="stroke:#ffffff;stroke-width:0.75;"/>
    </defs>
    <g clip-path="url(#p2a03124851)">
     <use style="fill:#1f77b4;stroke:#ffffff;stroke-width:0.75;" x="485.709582" xlink:href="#m6fc3de9dea" y="194.043561"/>
     <use style="fill:#1f77b4;stroke:#ffffff;stroke-width:0.75;" x="486.466017" xlink:href="#m6fc3de9dea" y="148.643266"/>
     <use style="fill:#1f77b4;stroke:#ffffff;stroke-width:0.75;" x="494.842494" xlink:href="#m6fc3de9dea" y="147.495371"/>
     <use style="fill:#1f77b4;stroke:#ffffff;stroke-width:0.75;" x="482.323085" xlink:href="#m6fc3de9dea" y="129.184789"/>
     <use style="fill:#1f77b4;stroke:#ffffff;stroke-width:0.75;" x="486.616739" xlink:href="#m6fc3de9dea" y="192.319572"/>
     <use style="fill:#1f77b4;stroke:#ffffff;stroke-width:0.75;" x="462.084892" xlink:href="#m6fc3de9dea" y="232.9692"/>
     <use style="fill:#1f77b4;stroke:#ffffff;stroke-width:0.75;" x="488.201309" xlink:href="#m6fc3de9dea" y="148.815292"/>
     <use style="fill:#1f77b4;stroke:#ffffff;stroke-width:0.75;" x="479.752331" xlink:href="#m6fc3de9dea" y="178.033099"/>
     <use style="fill:#1f77b4;stroke:#ffffff;stroke-width:0.75;" x="490.095055" xlink:href="#m6fc3de9dea" y="104.06418"/>
     <use style="fill:#1f77b4;stroke:#ffffff;stroke-width:0.75;" x="481.192296" xlink:href="#m6fc3de9dea" y="152.985529"/>
     <use style="fill:#1f77b4;stroke:#ffffff;stroke-width:0.75;" x="477.181576" xlink:href="#m6fc3de9dea" y="226.881394"/>
     <use style="fill:#1f77b4;stroke:#ffffff;stroke-width:0.75;" x="474.702237" xlink:href="#m6fc3de9dea" y="160.298648"/>
     <use style="fill:#1f77b4;stroke:#ffffff;stroke-width:0.75;" x="488.35936" xlink:href="#m6fc3de9dea" y="141.575277"/>
     <use style="fill:#1f77b4;stroke:#ffffff;stroke-width:0.75;" x="511.825987" xlink:href="#m6fc3de9dea" y="109.889687"/>
     <use style="fill:#1f77b4;stroke:#ffffff;stroke-width:0.75;" x="494.297286" xlink:href="#m6fc3de9dea" y="282.630001"/>
     <use style="fill:#1f77b4;stroke:#ffffff;stroke-width:0.75;" x="473.69674" xlink:href="#m6fc3de9dea" y="290.686877"/>
     <use style="fill:#1f77b4;stroke:#ffffff;stroke-width:0.75;" x="488.333522" xlink:href="#m6fc3de9dea" y="242.16962"/>
     <use style="fill:#1f77b4;stroke:#ffffff;stroke-width:0.75;" x="484.572271" xlink:href="#m6fc3de9dea" y="193.394378"/>
     <use style="fill:#1f77b4;stroke:#ffffff;stroke-width:0.75;" x="460.802981" xlink:href="#m6fc3de9dea" y="250.776704"/>
     <use style="fill:#1f77b4;stroke:#ffffff;stroke-width:0.75;" x="478.463491" xlink:href="#m6fc3de9dea" y="209.073839"/>
     <use style="fill:#1f77b4;stroke:#ffffff;stroke-width:0.75;" x="463.603885" xlink:href="#m6fc3de9dea" y="204.301618"/>
     <use style="fill:#1f77b4;stroke:#ffffff;stroke-width:0.75;" x="477.175055" xlink:href="#m6fc3de9dea" y="202.431472"/>
     <use style="fill:#1f77b4;stroke:#ffffff;stroke-width:0.75;" x="515.889493" xlink:href="#m6fc3de9dea" y="170.65126"/>
     <use style="fill:#1f77b4;stroke:#ffffff;stroke-width:0.75;" x="462.308927" xlink:href="#m6fc3de9dea" y="173.209314"/>
     <use style="fill:#1f77b4;stroke:#ffffff;stroke-width:0.75;" x="455.015773" xlink:href="#m6fc3de9dea" y="153.398336"/>
     <use style="fill:#1f77b4;stroke:#ffffff;stroke-width:0.75;" x="472.585671" xlink:href="#m6fc3de9dea" y="151.760229"/>
     <use style="fill:#1f77b4;stroke:#ffffff;stroke-width:0.75;" x="470.915553" xlink:href="#m6fc3de9dea" y="174.434627"/>
     <use style="fill:#1f77b4;stroke:#ffffff;stroke-width:0.75;" x="478.391393" xlink:href="#m6fc3de9dea" y="199.460629"/>
     <use style="fill:#1f77b4;stroke:#ffffff;stroke-width:0.75;" x="484.802424" xlink:href="#m6fc3de9dea" y="195.76755"/>
     <use style="fill:#1f77b4;stroke:#ffffff;stroke-width:0.75;" x="475.156022" xlink:href="#m6fc3de9dea" y="140.595056"/>
     <use style="fill:#1f77b4;stroke:#ffffff;stroke-width:0.75;" x="474.24886" xlink:href="#m6fc3de9dea" y="142.319067"/>
     <use style="fill:#1f77b4;stroke:#ffffff;stroke-width:0.75;" x="474.453579" xlink:href="#m6fc3de9dea" y="207.603461"/>
     <use style="fill:#1f77b4;stroke:#ffffff;stroke-width:0.75;" x="480.435457" xlink:href="#m6fc3de9dea" y="236.068945"/>
     <use style="fill:#1f77b4;stroke:#ffffff;stroke-width:0.75;" x="483.74333" xlink:href="#m6fc3de9dea" y="266.864606"/>
     <use style="fill:#1f77b4;stroke:#ffffff;stroke-width:0.75;" x="480.054986" xlink:href="#m6fc3de9dea" y="152.336345"/>
     <use style="fill:#1f77b4;stroke:#ffffff;stroke-width:0.75;" x="499.136544" xlink:href="#m6fc3de9dea" y="172.947029"/>
     <use style="fill:#1f77b4;stroke:#ffffff;stroke-width:0.75;" x="489.247608" xlink:href="#m6fc3de9dea" y="227.212395"/>
     <use style="fill:#1f77b4;stroke:#ffffff;stroke-width:0.75;" x="488.510082" xlink:href="#m6fc3de9dea" y="185.251582"/>
     <use style="fill:#1f77b4;stroke:#ffffff;stroke-width:0.75;" x="496.808338" xlink:href="#m6fc3de9dea" y="112.357469"/>
     <use style="fill:#1f77b4;stroke:#ffffff;stroke-width:0.75;" x="478.996299" xlink:href="#m6fc3de9dea" y="185.750272"/>
     <use style="fill:#1f77b4;stroke:#ffffff;stroke-width:0.75;" x="491.890461" xlink:href="#m6fc3de9dea" y="187.97731"/>
     <use style="fill:#1f77b4;stroke:#ffffff;stroke-width:0.75;" x="493.857116" xlink:href="#m6fc3de9dea" y="77.473128"/>
     <use style="fill:#1f77b4;stroke:#ffffff;stroke-width:0.75;" x="497.11059" xlink:href="#m6fc3de9dea" y="124.343852"/>
     <use style="fill:#1f77b4;stroke:#ffffff;stroke-width:0.75;" x="468.792058" xlink:href="#m6fc3de9dea" y="179.129445"/>
     <use style="fill:#1f77b4;stroke:#ffffff;stroke-width:0.75;" x="451.077559" xlink:href="#m6fc3de9dea" y="199.224238"/>
     <use style="fill:#1f77b4;stroke:#ffffff;stroke-width:0.75;" x="486.084739" xlink:href="#m6fc3de9dea" y="140.27691"/>
     <use style="fill:#1f77b4;stroke:#ffffff;stroke-width:0.75;" x="473.038644" xlink:href="#m6fc3de9dea" y="207.422917"/>
     <use style="fill:#1f77b4;stroke:#ffffff;stroke-width:0.75;" x="489.036368" xlink:href="#m6fc3de9dea" y="137.478093"/>
     <use style="fill:#1f77b4;stroke:#ffffff;stroke-width:0.75;" x="477.937608" xlink:href="#m6fc3de9dea" y="219.164221"/>
     <use style="fill:#1f77b4;stroke:#ffffff;stroke-width:0.75;" x="486.163362" xlink:href="#m6fc3de9dea" y="174.340006"/>
     <use style="fill:#1f77b4;stroke:#ffffff;stroke-width:0.75;" x="240.692728" xlink:href="#m6fc3de9dea" y="238.996788"/>
     <use style="fill:#1f77b4;stroke:#ffffff;stroke-width:0.75;" x="257.215912" xlink:href="#m6fc3de9dea" y="196.644734"/>
     <use style="fill:#1f77b4;stroke:#ffffff;stroke-width:0.75;" x="227.035994" xlink:href="#m6fc3de9dea" y="220.037018"/>
     <use style="fill:#1f77b4;stroke:#ffffff;stroke-width:0.75;" x="297.745476" xlink:href="#m6fc3de9dea" y="86.050279"/>
     <use style="fill:#1f77b4;stroke:#ffffff;stroke-width:0.75;" x="249.293228" xlink:href="#m6fc3de9dea" y="178.08904"/>
     <use style="fill:#1f77b4;stroke:#ffffff;stroke-width:0.75;" x="264.178262" xlink:href="#m6fc3de9dea" y="119.950051"/>
     <use style="fill:#1f77b4;stroke:#ffffff;stroke-width:0.75;" x="243.86146" xlink:href="#m6fc3de9dea" y="189.671357"/>
     <use style="fill:#1f77b4;stroke:#ffffff;stroke-width:0.75;" x="351.779822" xlink:href="#m6fc3de9dea" y="63.788684"/>
     <use style="fill:#1f77b4;stroke:#ffffff;stroke-width:0.75;" x="250.962943" xlink:href="#m6fc3de9dea" y="193.097778"/>
     <use style="fill:#1f77b4;stroke:#ffffff;stroke-width:0.75;" x="306.042918" xlink:href="#m6fc3de9dea" y="88.522407"/>
     <use style="fill:#1f77b4;stroke:#ffffff;stroke-width:0.75;" x="337.294972" xlink:href="#m6fc3de9dea" y="42.932883"/>
     <use style="fill:#1f77b4;stroke:#ffffff;stroke-width:0.75;" x="280.380304" xlink:href="#m6fc3de9dea" y="152.972768"/>
     <use style="fill:#1f77b4;stroke:#ffffff;stroke-width:0.75;" x="297.226118" xlink:href="#m6fc3de9dea" y="120.590546"/>
     <use style="fill:#1f77b4;stroke:#ffffff;stroke-width:0.75;" x="247.043646" xlink:href="#m6fc3de9dea" y="151.562591"/>
     <use style="fill:#1f77b4;stroke:#ffffff;stroke-width:0.75;" x="324.144828" xlink:href="#m6fc3de9dea" y="138.927019"/>
     <use style="fill:#1f77b4;stroke:#ffffff;stroke-width:0.75;" x="262.496151" xlink:href="#m6fc3de9dea" y="216.75234"/>
     <use style="fill:#1f77b4;stroke:#ffffff;stroke-width:0.75;" x="262.961924" xlink:href="#m6fc3de9dea" y="122.920894"/>
     <use style="fill:#1f77b4;stroke:#ffffff;stroke-width:0.75;" x="292.931661" xlink:href="#m6fc3de9dea" y="132.822047"/>
     <use style="fill:#1f77b4;stroke:#ffffff;stroke-width:0.75;" x="257.216723" xlink:href="#m6fc3de9dea" y="121.278454"/>
     <use style="fill:#1f77b4;stroke:#ffffff;stroke-width:0.75;" x="306.128465" xlink:href="#m6fc3de9dea" y="109.352303"/>
     <use style="fill:#1f77b4;stroke:#ffffff;stroke-width:0.75;" x="237.897666" xlink:href="#m6fc3de9dea" y="149.210965"/>
     <use style="fill:#1f77b4;stroke:#ffffff;stroke-width:0.75;" x="293.964909" xlink:href="#m6fc3de9dea" y="162.319303"/>
     <use style="fill:#1f77b4;stroke:#ffffff;stroke-width:0.75;" x="230.665435" xlink:href="#m6fc3de9dea" y="137.77481"/>
     <use style="fill:#1f77b4;stroke:#ffffff;stroke-width:0.75;" x="249.16714" xlink:href="#m6fc3de9dea" y="146.867758"/>
     <use style="fill:#1f77b4;stroke:#ffffff;stroke-width:0.75;" x="272.161456" xlink:href="#m6fc3de9dea" y="184.563739"/>
     <use style="fill:#1f77b4;stroke:#ffffff;stroke-width:0.75;" x="263.101057" xlink:href="#m6fc3de9dea" y="203.041983"/>
     <use style="fill:#1f77b4;stroke:#ffffff;stroke-width:0.75;" x="235.038109" xlink:href="#m6fc3de9dea" y="197.289564"/>
     <use style="fill:#1f77b4;stroke:#ffffff;stroke-width:0.75;" x="219.560165" xlink:href="#m6fc3de9dea" y="195.010982"/>
     <use style="fill:#1f77b4;stroke:#ffffff;stroke-width:0.75;" x="259.786667" xlink:href="#m6fc3de9dea" y="147.796439"/>
     <use style="fill:#1f77b4;stroke:#ffffff;stroke-width:0.75;" x="332.909499" xlink:href="#m6fc3de9dea" y="132.912263"/>
     <use style="fill:#1f77b4;stroke:#ffffff;stroke-width:0.75;" x="313.295537" xlink:href="#m6fc3de9dea" y="97.942053"/>
     <use style="fill:#1f77b4;stroke:#ffffff;stroke-width:0.75;" x="320.994997" xlink:href="#m6fc3de9dea" y="100.891339"/>
     <use style="fill:#1f77b4;stroke:#ffffff;stroke-width:0.75;" x="303.781338" xlink:href="#m6fc3de9dea" y="136.123884"/>
     <use style="fill:#1f77b4;stroke:#ffffff;stroke-width:0.75;" x="218.974176" xlink:href="#m6fc3de9dea" y="121.360249"/>
     <use style="fill:#1f77b4;stroke:#ffffff;stroke-width:0.75;" x="264.473988" xlink:href="#m6fc3de9dea" y="107.486548"/>
     <use style="fill:#1f77b4;stroke:#ffffff;stroke-width:0.75;" x="259.404985" xlink:href="#m6fc3de9dea" y="177.113204"/>
     <use style="fill:#1f77b4;stroke:#ffffff;stroke-width:0.75;" x="241.672392" xlink:href="#m6fc3de9dea" y="209.20285"/>
     <use style="fill:#1f77b4;stroke:#ffffff;stroke-width:0.75;" x="265.448584" xlink:href="#m6fc3de9dea" y="138.587317"/>
     <use style="fill:#1f77b4;stroke:#ffffff;stroke-width:0.75;" x="291.485175" xlink:href="#m6fc3de9dea" y="133.419681"/>
     <use style="fill:#1f77b4;stroke:#ffffff;stroke-width:0.75;" x="298.047728" xlink:href="#m6fc3de9dea" y="98.036661"/>
     <use style="fill:#1f77b4;stroke:#ffffff;stroke-width:0.75;" x="273.087533" xlink:href="#m6fc3de9dea" y="95.478608"/>
     <use style="fill:#1f77b4;stroke:#ffffff;stroke-width:0.75;" x="253.756922" xlink:href="#m6fc3de9dea" y="159.855877"/>
     <use style="fill:#1f77b4;stroke:#ffffff;stroke-width:0.75;" x="297.068063" xlink:href="#m6fc3de9dea" y="127.830584"/>
     <use style="fill:#1f77b4;stroke:#ffffff;stroke-width:0.75;" x="350.872664" xlink:href="#m6fc3de9dea" y="65.512659"/>
     <use style="fill:#1f77b4;stroke:#ffffff;stroke-width:0.75;" x="284.469648" xlink:href="#m6fc3de9dea" y="113.140012"/>
     <use style="fill:#1f77b4;stroke:#ffffff;stroke-width:0.75;" x="285.304302" xlink:href="#m6fc3de9dea" y="139.485934"/>
     <use style="fill:#1f77b4;stroke:#ffffff;stroke-width:0.75;" x="284.015868" xlink:href="#m6fc3de9dea" y="132.843567"/>
     <use style="fill:#1f77b4;stroke:#ffffff;stroke-width:0.75;" x="273.673523" xlink:href="#m6fc3de9dea" y="169.129356"/>
     <use style="fill:#1f77b4;stroke:#ffffff;stroke-width:0.75;" x="368.968037" xlink:href="#m6fc3de9dea" y="91.467343"/>
     <use style="fill:#1f77b4;stroke:#ffffff;stroke-width:0.75;" x="290.426891" xlink:href="#m6fc3de9dea" y="129.150471"/>
     <use style="fill:#1f77b4;stroke:#ffffff;stroke-width:0.75;" x="148.31763" xlink:href="#m6fc3de9dea" y="153.927346"/>
     <use style="fill:#1f77b4;stroke:#ffffff;stroke-width:0.75;" x="217.07431" xlink:href="#m6fc3de9dea" y="103.978353"/>
     <use style="fill:#1f77b4;stroke:#ffffff;stroke-width:0.75;" x="152.927385" xlink:href="#m6fc3de9dea" y="202.582036"/>
     <use style="fill:#1f77b4;stroke:#ffffff;stroke-width:0.75;" x="181.922929" xlink:href="#m6fc3de9dea" y="143.699299"/>
     <use style="fill:#1f77b4;stroke:#ffffff;stroke-width:0.75;" x="162.888418" xlink:href="#m6fc3de9dea" y="157.92988"/>
     <use style="fill:#1f77b4;stroke:#ffffff;stroke-width:0.75;" x="103.212143" xlink:href="#m6fc3de9dea" y="225.067212"/>
     <use style="fill:#1f77b4;stroke:#ffffff;stroke-width:0.75;" x="265.223902" xlink:href="#m6fc3de9dea" y="37.636331"/>
     <use style="fill:#1f77b4;stroke:#ffffff;stroke-width:0.75;" x="128.427493" xlink:href="#m6fc3de9dea" y="204.770365"/>
     <use style="fill:#1f77b4;stroke:#ffffff;stroke-width:0.75;" x="165.169968" xlink:href="#m6fc3de9dea" y="145.995011"/>
     <use style="fill:#1f77b4;stroke:#ffffff;stroke-width:0.75;" x="135.404566" xlink:href="#m6fc3de9dea" y="239.061404"/>
     <use style="fill:#1f77b4;stroke:#ffffff;stroke-width:0.75;" x="211.4004" xlink:href="#m6fc3de9dea" y="187.315366"/>
     <use style="fill:#1f77b4;stroke:#ffffff;stroke-width:0.75;" x="199.413784" xlink:href="#m6fc3de9dea" y="145.681213"/>
     <use style="fill:#1f77b4;stroke:#ffffff;stroke-width:0.75;" x="181.444111" xlink:href="#m6fc3de9dea" y="188.630937"/>
     <use style="fill:#1f77b4;stroke:#ffffff;stroke-width:0.75;" x="222.952933" xlink:href="#m6fc3de9dea" y="85.92568"/>
     <use style="fill:#1f77b4;stroke:#ffffff;stroke-width:0.75;" x="211.538882" xlink:href="#m6fc3de9dea" y="106.72562"/>
     <use style="fill:#1f77b4;stroke:#ffffff;stroke-width:0.75;" x="195.620171" xlink:href="#m6fc3de9dea" y="173.050428"/>
     <use style="fill:#1f77b4;stroke:#ffffff;stroke-width:0.75;" x="187.12414" xlink:href="#m6fc3de9dea" y="167.426931"/>
     <use style="fill:#1f77b4;stroke:#ffffff;stroke-width:0.75;" x="95.965655" xlink:href="#m6fc3de9dea" y="277.780613"/>
     <use style="fill:#1f77b4;stroke:#ffffff;stroke-width:0.75;" x="79.890507" xlink:href="#m6fc3de9dea" y="200.612936"/>
     <use style="fill:#1f77b4;stroke:#ffffff;stroke-width:0.75;" x="225.918008" xlink:href="#m6fc3de9dea" y="94.343586"/>
     <use style="fill:#1f77b4;stroke:#ffffff;stroke-width:0.75;" x="165.59141" xlink:href="#m6fc3de9dea" y="202.435921"/>
     <use style="fill:#1f77b4;stroke:#ffffff;stroke-width:0.75;" x="230.724491" xlink:href="#m6fc3de9dea" y="98.488176"/>
     <use style="fill:#1f77b4;stroke:#ffffff;stroke-width:0.75;" x="96.72902" xlink:href="#m6fc3de9dea" y="219.147083"/>
     <use style="fill:#1f77b4;stroke:#ffffff;stroke-width:0.75;" x="227.555756" xlink:href="#m6fc3de9dea" y="147.813643"/>
     <use style="fill:#1f77b4;stroke:#ffffff;stroke-width:0.75;" x="169.529224" xlink:href="#m6fc3de9dea" y="194.293089"/>
     <use style="fill:#1f77b4;stroke:#ffffff;stroke-width:0.75;" x="149.323385" xlink:href="#m6fc3de9dea" y="221.933039"/>
     <use style="fill:#1f77b4;stroke:#ffffff;stroke-width:0.75;" x="235.025067" xlink:href="#m6fc3de9dea" y="148.389719"/>
     <use style="fill:#1f77b4;stroke:#ffffff;stroke-width:0.75;" x="229.521201" xlink:href="#m6fc3de9dea" y="150.358826"/>
     <use style="fill:#1f77b4;stroke:#ffffff;stroke-width:0.75;" x="177.603841" xlink:href="#m6fc3de9dea" y="143.475724"/>
     <use style="fill:#1f77b4;stroke:#ffffff;stroke-width:0.75;" x="164.420053" xlink:href="#m6fc3de9dea" y="215.845227"/>
     <use style="fill:#1f77b4;stroke:#ffffff;stroke-width:0.75;" x="139.507355" xlink:href="#m6fc3de9dea" y="210.445371"/>
     <use style="fill:#1f77b4;stroke:#ffffff;stroke-width:0.75;" x="116.414658" xlink:href="#m6fc3de9dea" y="301.413669"/>
     <use style="fill:#1f77b4;stroke:#ffffff;stroke-width:0.75;" x="176.466529" xlink:href="#m6fc3de9dea" y="142.82654"/>
     <use style="fill:#1f77b4;stroke:#ffffff;stroke-width:0.75;" x="217.994513" xlink:href="#m6fc3de9dea" y="151.154172"/>
     <use style="fill:#1f77b4;stroke:#ffffff;stroke-width:0.75;" x="187.53086" xlink:href="#m6fc3de9dea" y="112.882068"/>
     <use style="fill:#1f77b4;stroke:#ffffff;stroke-width:0.75;" x="132.992269" xlink:href="#m6fc3de9dea" y="242.98654"/>
     <use style="fill:#1f77b4;stroke:#ffffff;stroke-width:0.75;" x="175.854694" xlink:href="#m6fc3de9dea" y="169.770147"/>
     <use style="fill:#1f77b4;stroke:#ffffff;stroke-width:0.75;" x="188.031298" xlink:href="#m6fc3de9dea" y="165.702942"/>
     <use style="fill:#1f77b4;stroke:#ffffff;stroke-width:0.75;" x="236.839382" xlink:href="#m6fc3de9dea" y="144.941756"/>
     <use style="fill:#1f77b4;stroke:#ffffff;stroke-width:0.75;" x="187.401354" xlink:href="#m6fc3de9dea" y="204.641397"/>
     <use style="fill:#1f77b4;stroke:#ffffff;stroke-width:0.75;" x="172.377189" xlink:href="#m6fc3de9dea" y="182.659258"/>
     <use style="fill:#1f77b4;stroke:#ffffff;stroke-width:0.75;" x="204.813213" xlink:href="#m6fc3de9dea" y="210.243348"/>
     <use style="fill:#1f77b4;stroke:#ffffff;stroke-width:0.75;" x="217.07431" xlink:href="#m6fc3de9dea" y="103.978353"/>
     <use style="fill:#1f77b4;stroke:#ffffff;stroke-width:0.75;" x="153.223111" xlink:href="#m6fc3de9dea" y="190.118533"/>
     <use style="fill:#1f77b4;stroke:#ffffff;stroke-width:0.75;" x="164.979982" xlink:href="#m6fc3de9dea" y="191.696356"/>
     <use style="fill:#1f77b4;stroke:#ffffff;stroke-width:0.75;" x="199.612005" xlink:href="#m6fc3de9dea" y="186.515678"/>
     <use style="fill:#1f77b4;stroke:#ffffff;stroke-width:0.75;" x="219.554044" xlink:href="#m6fc3de9dea" y="132.877975"/>
     <use style="fill:#1f77b4;stroke:#ffffff;stroke-width:0.75;" x="204.535999" xlink:href="#m6fc3de9dea" y="173.028882"/>
     <use style="fill:#1f77b4;stroke:#ffffff;stroke-width:0.75;" x="190.872341" xlink:href="#m6fc3de9dea" y="167.302326"/>
     <use style="fill:#1f77b4;stroke:#ffffff;stroke-width:0.75;" x="217.908965" xlink:href="#m6fc3de9dea" y="130.324276"/>
    </g>
   </g>
   <g id="patch_3">
    <path d="M 58.08 314.61 
L 58.08 24.44 
" style="fill:none;stroke:#262626;stroke-linecap:square;stroke-linejoin:miter;stroke-width:0.8;"/>
   </g>
   <g id="patch_4">
    <path d="M 58.08 314.61 
L 537.7 314.61 
" style="fill:none;stroke:#262626;stroke-linecap:square;stroke-linejoin:miter;stroke-width:0.8;"/>
   </g>
  </g>
 </g>
 <defs>
  <clipPath id="p2a03124851">
   <rect height="290.17" width="479.62" x="58.08" y="24.44"/>
  </clipPath>
 </defs>
</svg>
